<svg xmlns="http://www.w3.org/2000/svg" viewBox="0 0 500 500"><g id="freepik--background-complete--inject-102"><path d="M65.92,411.37c6.21-.09,22.14-.34,28.14-.41l9.28,0-.46.45,0-11.76.5.5L84.63,400c-4.66,0-14-.13-18.71-.19l.23-.24-.23,11.76Zm0,0-.24-11.76v-.23h.24c4.67-.06,14-.16,18.71-.2l18.71-.07h.5v.5l0,11.76v.46h-.45l-9.44,0c-6-.06-21.83-.32-28-.42Z" style="fill:#ebebeb"></path><path d="M86.79,426.21c6.22-.1,22.14-.35,28.14-.42l9.28,0-.46.46,0-11.77.5.5-18.71-.06c-4.66,0-14-.14-18.71-.2l.24-.24-.24,11.77Zm0,0-.23-11.77v-.23h.24c4.67-.06,14-.16,18.71-.2l18.71-.06h.5v.5l0,11.77v.46h-.45l-9.44,0c-6-.06-21.82-.31-28-.41Z" style="fill:#ebebeb"></path><path d="M395.92,411.37c6.21-.09,22.14-.34,28.14-.41l9.28,0-.46.45,0-11.76.5.5L414.63,400c-4.66,0-14.05-.13-18.71-.19l.23-.24-.23,11.76Zm0,0-.24-11.76v-.23h.24c4.67-.06,14-.16,18.71-.2l18.71-.07h.5v.5l0,11.76v.46h-.45l-9.44,0c-6-.06-21.83-.32-28-.42Z" style="fill:#ebebeb"></path><rect x="416.79" y="414.44" width="37.42" height="11.76" transform="translate(871 840.65) rotate(180)" style="fill:#ebebeb"></rect><path d="M355.44,197.61c6.23-.1,22-.35,28-.42l9.44,0h.45v.46l.05,11.76v.5h-.5l-18.71-.07c-4.66,0-14-.13-18.71-.19h-.24v-.23l.24-11.76Zm0,0,.23,11.76-.23-.24c4.67-.06,14-.15,18.71-.19l18.71-.07-.5.5,0-11.76.46.45-9.28,0c-5.93-.06-22-.32-28.14-.41Z" style="fill:#ebebeb"></path><rect x="376.31" y="182.77" width="37.42" height="11.76" transform="translate(790.04 377.31) rotate(180)" style="fill:#ebebeb"></rect><rect x="45.05" y="414.44" width="37.42" height="11.76" transform="translate(127.51 840.65) rotate(180)" style="fill:#ebebeb"></rect><path d="M258.83,349.29C265,349.2,281,349,287,348.88l9.28,0-.46.45,0-11.76.5.5L277.54,338c-4.66,0-14.05-.14-18.71-.19l.23-.24-.23,11.76Zm0,0-.24-11.76v-.23h.24c4.67-.06,14-.17,18.71-.2l18.71-.07h.5v.5l-.05,11.76v.46h-.45l-9.44,0c-6-.06-21.83-.32-28-.42Z" style="fill:#ebebeb"></path><rect x="279.7" y="352.36" width="37.42" height="11.76" transform="translate(596.82 716.49) rotate(180)" style="fill:#ebebeb"></rect><path d="M238,364.13c6.21-.1,22.14-.35,28.14-.42l9.27,0-.45.46-.05-11.77.5.5-18.7-.06c-4.66,0-14.05-.14-18.71-.2l.23-.24L238,364.13Zm0,0-.24-11.77v-.23H238c4.67-.06,14-.16,18.71-.2l18.7-.07h.51v.5l0,11.77v.46h-.46l-9.43,0c-6-.06-21.83-.31-28-.41Z" style="fill:#ebebeb"></path><rect x="104.81" y="197.61" width="37.42" height="11.76" style="fill:#ebebeb"></rect><path d="M66.54,51.91c6.21-.1,22.14-.35,28.14-.41l9.28,0-.46.46,0-11.76.5.5-18.71-.07c-4.66,0-14-.14-18.71-.2l.23-.23-.23,11.76Zm0,0L66.3,40.15v-.24h.24c4.67-.06,14-.16,18.71-.2L104,39.65h.5v.51l0,11.76v.46H104l-9.44,0c-6-.06-21.83-.31-28-.41Z" style="fill:#ebebeb"></path><rect x="45.67" y="54.98" width="37.42" height="11.76" transform="translate(128.75 121.72) rotate(180)" style="fill:#ebebeb"></rect><path d="M417.54,51.92c6.21-.1,22.14-.35,28.14-.41l9.27,0-.45.45-.05-11.76.5.5-18.7-.07c-4.66,0-14.05-.14-18.71-.2l.23-.23-.23,11.76Zm0,0-.24-11.76v-.23h.24c4.67-.06,14-.16,18.71-.19l18.7-.07h.51v.5l0,11.76v.46H455l-9.43,0c-6-.07-21.83-.32-28-.42Z" style="fill:#ebebeb"></path><rect x="43.72" y="312.56" width="99.29" height="161.09" style="fill:#dbdbdb"></rect><rect x="48.1" y="431.38" width="90.51" height="37.12" style="fill:#ebebeb"></rect><path d="M106.25,431.38c0,3.2-5.77,5.79-12.89,5.79s-12.89-2.59-12.89-5.79Z" style="fill:#dbdbdb"></path><rect x="48.1" y="393.49" width="90.51" height="37.12" style="fill:#ebebeb"></rect><path d="M106.25,393.49c0,3.2-5.77,5.79-12.89,5.79s-12.89-2.59-12.89-5.79Z" style="fill:#dbdbdb"></path><rect x="48.1" y="355.6" width="90.51" height="37.12" style="fill:#ebebeb"></rect><path d="M106.25,355.6c0,3.2-5.77,5.79-12.89,5.79s-12.89-2.59-12.89-5.79Z" style="fill:#dbdbdb"></path><rect x="48.1" y="317.71" width="90.51" height="37.12" style="fill:#ebebeb"></rect><path d="M106.25,317.71c0,3.2-5.77,5.79-12.89,5.79s-12.89-2.59-12.89-5.79Z" style="fill:#dbdbdb"></path><circle cx="439.77" cy="114.01" r="6.78" style="fill:#ebebeb"></circle><rect x="439.27" width="1" height="81.09" style="fill:#c7c7c7"></rect><rect x="435.62" y="76.41" width="8.29" height="8.97" transform="translate(879.53 161.79) rotate(180)" style="fill:#dbdbdb"></rect><path d="M422.81,114h33.92c-.69-12.91-6.84-33.58-17-33.58S423.48,101.1,422.81,114Z" style="fill:#dbdbdb"></path><circle cx="394.07" cy="91.86" r="6.78" style="fill:#ebebeb"></circle><rect x="393.57" width="1" height="58.94" style="fill:#c7c7c7"></rect><rect x="389.92" y="54.26" width="8.29" height="8.97" transform="translate(788.13 117.49) rotate(180)" style="fill:#dbdbdb"></rect><path d="M377.11,91.86H411c-.69-12.91-6.84-33.58-17-33.58S377.79,79,377.11,91.86Z" style="fill:#dbdbdb"></path></g><g id="freepik--Plant--inject-102"><path d="M414.53,279.6s22.55-3.16,17.28-30.39C431.81,249.21,406.61,254.87,414.53,279.6Z" style="fill:#FFC727"></path><path d="M414.53,279.6s22.55-3.16,17.28-30.39C431.81,249.21,406.61,254.87,414.53,279.6Z" style="opacity:0.1"></path><path d="M415.67,273.92c.44-1.38,1-2.73,1.53-4.06,0-.18.05-.35.06-.52l.09-1.12c.07-.81.12-1.63.17-2.44.09-1.63.2-3.26.22-4.88a.07.07,0,0,1,.14,0c0,1.63,0,3.26,0,4.89,0,.81-.07,1.62-.13,2.44,0,.18,0,.36,0,.54a47.82,47.82,0,0,1,4.53-7.73,39.38,39.38,0,0,1,2.46-3.13c.9-1,1.85-2,2.76-3,.06-.06.16,0,.1.1a39.55,39.55,0,0,0-4.35,5.78c-.69,1-1.33,2.1-1.95,3.18l.21-.08.8-.32,1.85-.7c1.21-.45,2.42-.89,3.62-1.35.08,0,.13.1.05.13-1.2.47-2.38,1-3.57,1.49l-1.74.75-.89.37a2.6,2.6,0,0,1-.59.21c-.46.81-.91,1.63-1.32,2.47a57.08,57.08,0,0,0-2.76,6.5c-.06.15-.11.31-.16.47a11.22,11.22,0,0,1,1.85-.89l2.33-1.07c1.58-.73,3.15-1.46,4.67-2.32a.07.07,0,0,1,.07.12c-1.55.85-3.07,1.75-4.63,2.59-.77.42-1.55.83-2.35,1.22a7.66,7.66,0,0,1-2.12.85,27,27,0,0,0-1.47,6.39c-.26,3.08-.23,6.19-.3,9.27a0,0,0,1,1-.08,0c-.23-2.8-.35-5.62-.36-8.43A24.28,24.28,0,0,1,415.67,273.92Z" style="fill:#263238"></path><path d="M419.14,257.9a26.69,26.69,0,0,1,.22,4.81s-.06,0-.07,0c-.09-1.59-.1-3.18-.28-4.76C419,257.85,419.13,257.82,419.14,257.9Z" style="fill:#263238"></path><path d="M425.59,259.27a18.16,18.16,0,0,0,2.9-1.43c.07,0,.14.08.07.12a11.27,11.27,0,0,1-2.93,1.4C425.57,259.38,425.53,259.29,425.59,259.27Z" style="fill:#263238"></path><path d="M413.81,322.83c0-2.49.06-5,.09-7.48.05-8.28.12-16.55.26-24.83q.18-9.86.46-19.71a.11.11,0,0,1,.06-.09l0-5.38s.05-.07.11-.07.1,0,.1.07c0,1.8,0,3.6,0,5.4,0,0,.05,0,.05.07.33,11.7.63,23.4.7,35.09,0,2.38,0,4.76,0,7.14q.12,11.43.09,22.88c0,1.21,0,2.42,0,3.64,0,7-.07,13.95-.07,20.93,0,.38-.42.56-.86.58s-1.05-.18-1.05-.61c0-7.69-.05-15.39-.05-23.08C413.79,332.53,413.77,327.68,413.81,322.83Z" style="fill:#263238"></path><path d="M423.23,315.26s10.84-8,21.14-2.61S456.28,339,456.28,339s-15.12,2.16-24.64-6.9C422.47,323.38,423.23,315.26,423.23,315.26Z" style="fill:#FFC727"></path><path d="M420.27,315.75a13,13,0,0,1,6.28-.82,8.56,8.56,0,0,1,1.33-.13l1.53-.11c1.06-.09,2.11-.15,3.17-.23,2.14-.16,4.28-.29,6.42-.5.07,0,.09.12,0,.13-2.11.27-4.22.57-6.34.79-1.09.11-2.18.22-3.27.3l-.79.08,1,.23a26.48,26.48,0,0,1,4.91,2c.86.16,1.71.4,2.55.59,1.34.32,2.68.67,4,1,2.63.69,5.24,1.47,7.86,2.23a.07.07,0,0,1,0,.13c-2.62-.64-5.24-1.22-7.86-1.85l-3.82-.91-1-.23a32,32,0,0,1,7.71,6.7,42,42,0,0,1,5.36,8.46c0,.07-.07.15-.12.07a41,41,0,0,0-6.48-8.51c0,.14.09.29.14.43l.6,1.92c.4,1.27.81,2.55,1.19,3.83,0,.09-.1.12-.13,0-.46-1.24-.89-2.49-1.33-3.73-.22-.61-.43-1.22-.64-1.83-.12-.32-.22-.64-.33-1,0-.09-.07-.19-.1-.29a38.57,38.57,0,0,0-3.85-3.28,29.63,29.63,0,0,0-5.76-3.3c0,.19.07.38.11.56.11.49.22,1,.32,1.48.21,1,.41,2.06.61,3.09.41,2.1.66,4.22,1.06,6.32,0,.09-.12.12-.14,0-.48-2.11-1.11-4.19-1.58-6.31-.24-1.06-.48-2.11-.7-3.18l-.3-1.48c-.05-.28-.12-.56-.15-.83l-.59-.25c-2.85-1.05-6-1.82-9-1.23a8.85,8.85,0,0,0-6.53,5.23c-.09.23-.47.09-.41-.15A8.39,8.39,0,0,1,420.27,315.75Z" style="fill:#263238"></path><path d="M436.88,324.69c.3,1.38.61,2.75.91,4.13a30.47,30.47,0,0,1,.76,4c0,.05-.07.05-.09,0a31.07,31.07,0,0,1-.92-4c-.27-1.36-.53-2.72-.8-4.07C436.73,324.64,436.86,324.6,436.88,324.69Z" style="fill:#263238"></path><path d="M447.37,328.19c1.38.7,2.72,1.49,4.16,2.07.09,0,0,.17,0,.12a42.62,42.62,0,0,1-4.14-2.14S447.33,328.17,447.37,328.19Z" style="fill:#263238"></path><path d="M420.79,300.49s13.26.85,19.42-7.89S445,271.37,445,271.37s-13.93,1.69-19.46,8S420.79,300.49,420.79,300.49Z" style="fill:#FFC727"></path><path d="M414.56,313.58c.46-1.42,1-2.82,1.57-4.22s1.06-2.66,1.65-4a81.79,81.79,0,0,1,4-7.81c.94-1.61,1.94-3.18,3-4.72,0-.23.07-.47.11-.7l.18-1.24c.13-.83.28-1.67.42-2.51.3-1.83.68-3.65,1-5.48,0-.09.15-.09.14,0-.27,1.81-.45,3.63-.7,5.44-.13.89-.24,1.78-.38,2.67l-.15,1a97.79,97.79,0,0,1,6.56-8.51l1-1.08c0-.1.08-.2.12-.3.1-.26.2-.51.29-.76l.57-1.58c.38-1,.71-2.09,1-3.16,0-.08.15,0,.13,0-.26,1.09-.55,2.18-.87,3.25-.15.52-.32,1-.5,1.54,0,.09-.07.17-.1.26,1.7-1.85,3.47-3.63,5.25-5.39.06-.06.16,0,.1.1a95.17,95.17,0,0,0-9.4,11.51c.32-.1.66-.18,1-.25,1-.2,2.05-.34,3.08-.47,2.16-.28,4.32-.55,6.47-.89.09,0,.12.12,0,.13-2.05.41-4.09.87-6.13,1.34-1,.22-1.93.41-2.9.6a18.64,18.64,0,0,0-2.32.67c-.22.3-.44.6-.65.91q-1.46,2.13-2.82,4.32l1.35-.26c1-.2,2.05-.39,3.08-.56,2-.33,4.05-.68,6.05-1.14.08,0,.12.12,0,.14-2,.47-4,1-6.05,1.56-1,.26-1.95.5-2.93.72l-1.47.31a3.65,3.65,0,0,1-.6.11q-2.91,4.71-5.44,9.63c-.74,1.45-1.45,2.9-2.14,4.37s-1.32,3-2,4.57C414.94,314,414.46,313.91,414.56,313.58Z" style="fill:#263238"></path><path d="M428.13,283.1c.26-1.26.52-2.52.8-3.78,0-.09.15-.05.14,0-.25,1.24-.49,2.48-.72,3.73a36,36,0,0,1-.75,3.72,0,0,0,0,1,0,0A25.85,25.85,0,0,1,428.13,283.1Z" style="fill:#263238"></path><path d="M435.87,282.73c.61-.3,1.26-.55,1.9-.8l1-.39.51-.21a2.56,2.56,0,0,0,.56-.24c.1-.08.17.1.07.11a2.87,2.87,0,0,0-.57.24l-.5.22-1,.43a17.38,17.38,0,0,1-2,.78C435.84,282.89,435.8,282.77,435.87,282.73Z" style="fill:#263238"></path><path d="M407.21,290.07s-8-15-20.23-17.31S367.3,283,367.3,283s8.9,11.37,20.11,13.35S407.21,290.07,407.21,290.07Z" style="fill:#FFC727"></path><path d="M378.8,279.47a33,33,0,0,1,9.57.12l-.54-.29c-.91-.46-1.81-.93-2.71-1.4-1.87-1-3.77-2-5.73-2.8-.09,0,0-.17.05-.12,1.91.89,3.89,1.63,5.81,2.51,1,.44,1.9.9,2.83,1.4.6.32,1.27.62,1.86,1a33.53,33.53,0,0,1,7.76,2.58l-1.52-1.66c-1.14-1.25-2.26-2.56-3.51-3.69-.07-.06,0-.16.1-.1,1.28,1.16,2.63,2.24,3.86,3.44.61.59,1.18,1.2,1.74,1.82.28.31.56.63.83,1a32.17,32.17,0,0,1,16.36,22.11.07.07,0,0,1-.13,0,36.86,36.86,0,0,0-9-15.19,35.14,35.14,0,0,0-27.64-10.48C378.66,279.73,378.65,279.5,378.8,279.47Z" style="fill:#263238"></path><path d="M367.3,283s8.9,11.37,20.11,13.35c8.55,1.52,15.58-2.94,18.43-5.13l.62-1s-5.78-4.87-16.71-7.68S367.3,283,367.3,283Z" style="opacity:0.1"></path><path d="M385.89,274.13a31,31,0,0,1,2.71,1.79,17.82,17.82,0,0,1,2.36,2.15c.06.07,0,.16-.11.1-.81-.7-1.62-1.4-2.47-2.07a24.47,24.47,0,0,0-2.56-1.85A.07.07,0,1,1,385.89,274.13Z" style="fill:#263238"></path><path d="M379.19,276.67c.45.19.91.35,1.37.54l1.35.56c.1,0,.06.2,0,.16l-1.37-.55c-.45-.19-.89-.4-1.35-.58C379.07,276.77,379.11,276.63,379.19,276.67Z" style="fill:#263238"></path><path d="M408.82,308.93S406.67,323.8,395.49,329s-24.81,0-24.81,0S376,296.83,408.82,308.93Z" style="fill:#FFC727"></path><path d="M378.38,319.33c1-.12,2.06-.29,3.08-.48l1.5-.28.79-.16c.3-.28.59-.57.9-.84a45.68,45.68,0,0,1,6.84-5,38.59,38.59,0,0,1,4.1-2.1h-.21l-3.68.16c-2.46.11-4.91.17-7.36.32-.09,0-.09-.13,0-.13,2.46-.17,4.91-.44,7.37-.65l3.58-.32,1.84-.16.47-.05c.64-.24,1.28-.46,1.93-.67a17.55,17.55,0,0,1,9.47-.52c2.81.72,5.62,2.57,6.35,5.53,0,.1-.14.17-.18.07-1.05-2.48-3.8-3.72-6.28-4.24a14.88,14.88,0,0,0-5.07-.1,11.23,11.23,0,0,1-.56,2.25c-.31,1.05-.61,2.09-.93,3.14-.64,2.09-1.33,4.15-1.95,6.25a.07.07,0,0,1-.13,0c.52-2.09.95-4.2,1.46-6.29.24-1,.5-2.05.76-3.07a17.51,17.51,0,0,1,.56-2.12,27.82,27.82,0,0,0-2.9.69,42.77,42.77,0,0,0-5.07,1.85c-.16,1.06-.4,2.11-.64,3.16-.31,1.31-.65,2.61-1.06,3.9a.07.07,0,0,1-.13,0c0-.08,0-.16,0-.25h0c.25-1.21.52-2.43.78-3.64.2-1,.39-2,.61-2.94a44.52,44.52,0,0,0-4.08,2.06c0,.3-.1.62-.14.89-.08.51-.18,1-.27,1.53-.21,1.14-.44,2.29-.71,3.42a54,54,0,0,1-1.93,6.47.05.05,0,0,1,0,.08l-.06.08a.07.07,0,0,1-.11-.07c.51-2.21,1.1-4.39,1.59-6.6.24-1.11.48-2.21.7-3.32.12-.55.22-1.11.32-1.66,0-.16,0-.33.08-.5a47,47,0,0,0-11,9c-.08.09-.24,0-.16-.14.85-1.12,1.7-2.21,2.66-3.25.56-.6,1.15-1.18,1.74-1.75l-.18,0c-.53.09-1.05.17-1.58.24-1,.13-2.07.24-3.11.35C378.33,319.47,378.29,319.34,378.38,319.33Z" style="fill:#263238"></path><path d="M386.24,324.37h0l.06-.38c0-.17.11-.33.14-.49h0c.23-1,.43-2,.61-3,0-.07.12,0,.12,0a12.38,12.38,0,0,1-.85,3.89s-.09,0-.08,0Z" style="fill:#263238"></path><path d="M395.6,324.13a.06.06,0,0,1,.06-.06c.32-1.32.62-2.63.89-4,.14-.7.29-1.39.42-2.09l.21-1.13a3.54,3.54,0,0,1,.24-1,.07.07,0,0,1,.13,0,6.85,6.85,0,0,1-.28,2c-.14.72-.28,1.45-.44,2.17-.32,1.47-.69,2.93-1.11,4.37,0,.08-.15.06-.14,0Z" style="fill:#263238"></path><path d="M379.4,315.05c2-.28,4.08-.58,6.13-.83.09,0,.12.13,0,.14-2,.3-4.08.55-6.13.82C379.35,315.19,379.31,315.06,379.4,315.05Z" style="fill:#263238"></path><path d="M414.54,274.06s6.84-30-25.41-42.16C389.13,231.9,380.2,271.41,414.54,274.06Z" style="fill:#FFC727"></path><path d="M407.58,257l-.34-.21-1.83-1-3.74-2.1c-2.46-1.37-4.89-2.81-7.37-4.15-.08-.05,0-.16.07-.12,2.49,1.35,5,2.61,7.51,3.93l3.7,2,1.51.8c-1.08-2-2.23-4-3.49-6-1.69-2.57-3.53-5-5.46-7.42-.08-.11.06-.25.16-.15a51.21,51.21,0,0,1,7.46,9.14c0-.1,0-.21,0-.31,0-.75-.05-1.49-.07-2.24,0-1.47.05-2.93,0-4.4,0-.09.13-.08.14,0,.06,1.44.23,2.88.31,4.32,0,.72.07,1.44.1,2.16,0,.39,0,.83,0,1.25.66,1.06,1.3,2.13,1.91,3.22a57.87,57.87,0,0,1,2.88,6.05c0-.75.08-1.5.12-2.25.1-1.64.3-3.28.37-4.92,0-.09.14-.09.13,0,0,1.65.05,3.29,0,4.94,0,.82-.05,1.64-.1,2.46l-.06.92a53.73,53.73,0,0,1,2.44,8.25,88.76,88.76,0,0,1,1.2,9.06,0,0,0,0,1,0,0,49.44,49.44,0,0,0-1.72-8.08c-.4-1.42-.82-2.83-1.27-4.23-1.34-.63-2.63-1.42-3.92-2.14l-4-2.21c-2.69-1.48-5.38-3-8.15-4.28-.08,0,0-.16.07-.12,2.81,1.27,5.65,2.48,8.41,3.87,1.37.69,2.72,1.43,4.06,2.18,1.12.64,2.27,1.27,3.34,2-.31-.93-.64-1.86-1-2.78C409.92,261.93,408.81,259.45,407.58,257Z" style="fill:#263238"></path><path d="M410.3,250.17a.07.07,0,0,1,.14,0c-.12,1.71-.18,3.42-.36,5.13a.08.08,0,0,1-.15,0C410,253.59,410.17,251.88,410.3,250.17Z" style="fill:#263238"></path><path d="M394.84,255.9c2,.82,4.05,1.59,6.06,2.43a0,0,0,0,1,0,.09c-2-.76-4-1.59-6.07-2.38C394.72,256,394.76,255.87,394.84,255.9Z" style="fill:#263238"></path><path d="M391.77,242.06a53.6,53.6,0,0,1,5.74,3.08.08.08,0,0,1-.09.14c-1.87-1.09-3.78-2.14-5.72-3.1C391.62,242.14,391.69,242,391.77,242.06Z" style="fill:#263238"></path><rect x="392.26" y="344.41" width="46.51" height="58.99" transform="translate(831.03 747.81) rotate(180)" style="fill:#455a64"></rect><rect x="439.59" y="361.76" width="2.38" height="111.9" style="fill:#263238"></rect><rect x="389.31" y="361.76" width="2.38" height="111.9" style="fill:#263238"></rect><rect x="413.18" y="361.76" width="2.38" height="111.9" style="fill:#263238"></rect><rect x="390.5" y="400.26" width="50.28" height="6.79" transform="translate(831.28 807.3) rotate(180)" style="fill:#263238"></rect></g><g id="freepik--Station--inject-102"><rect x="90.75" y="260.54" width="318.5" height="14" style="fill:#FFC727"></rect><rect x="90.75" y="260.54" width="318.5" height="14" style="opacity:0.4"></rect><rect x="90.75" y="260.54" width="30.61" height="14" style="opacity:0.1"></rect><rect x="324.49" y="297.87" width="28.08" height="169.32" style="fill:#FFC727"></rect><rect x="324.49" y="297.87" width="28.08" height="169.32" style="opacity:0.5"></rect><polygon points="352.57 302.17 324.49 303.17 324.49 297.87 352.57 297.87 352.57 302.17" style="opacity:0.1"></polygon><rect x="324.49" y="297.87" width="11.07" height="169.32" style="opacity:0.1"></rect><rect x="320.06" y="467.19" width="36.93" height="6.48" style="fill:#FFC727"></rect><rect x="320.06" y="467.19" width="36.93" height="6.48" style="opacity:0.4"></rect><rect x="320.06" y="467.19" width="14.56" height="6.48" style="opacity:0.1"></rect><rect x="147.43" y="297.87" width="28.08" height="169.32" style="fill:#FFC727"></rect><rect x="147.43" y="297.87" width="28.08" height="169.32" style="opacity:0.5"></rect><polygon points="175.51 302.17 147.43 303.17 147.43 297.87 175.51 297.87 175.51 302.17" style="opacity:0.1"></polygon><rect x="147.43" y="297.87" width="11.07" height="169.32" style="opacity:0.1"></rect><rect x="143" y="467.19" width="36.93" height="6.48" style="fill:#FFC727"></rect><rect x="143" y="467.19" width="36.93" height="6.48" style="opacity:0.4"></rect><rect x="143" y="467.19" width="14.56" height="6.48" style="opacity:0.1"></rect><rect x="175.51" y="418.81" width="156.55" height="7.4" style="fill:#FFC727"></rect><rect x="175.51" y="418.81" width="156.55" height="7.4" style="opacity:0.5"></rect><rect x="108.75" y="274.55" width="282.49" height="23.32" style="fill:#FFC727"></rect><rect x="108.75" y="274.55" width="282.49" height="23.32" style="opacity:0.5"></rect><polygon points="391.25 278.42 108.75 282.29 108.75 274.55 391.25 274.55 391.25 278.42" style="opacity:0.1"></polygon><rect x="108.75" y="274.55" width="27.15" height="23.32" style="opacity:0.1"></rect><rect x="134.57" y="56.8" width="230.85" height="203.74" style="fill:#FFC727"></rect><rect x="134.57" y="56.8" width="230.85" height="203.74" style="opacity:0.6000000000000001"></rect><rect x="148.59" y="70.82" width="202.82" height="175.72" style="fill:#fff"></rect><g style="opacity:0.2"><polygon points="351.41 86.61 351.41 102.17 215.29 246.53 200.63 246.53 351.41 86.61" style="fill:#ebebeb"></polygon><polygon points="187.29 70.81 148.59 111.85 148.59 96.29 172.62 70.81 187.29 70.81" style="fill:#ebebeb"></polygon><polygon points="296.33 70.81 148.59 227.51 148.59 187.52 258.63 70.81 296.33 70.81" style="fill:#ebebeb"></polygon><polygon points="351.41 176.96 351.41 216.95 323.52 246.53 285.81 246.53 351.41 176.96" style="fill:#ebebeb"></polygon><polygon points="242.1 70.81 148.59 169.99 148.59 165.91 238.25 70.81 242.1 70.81" style="fill:#ebebeb"></polygon><polygon points="351.41 154.26 351.41 158.34 268.26 246.53 264.4 246.53 351.41 154.26" style="fill:#ebebeb"></polygon></g><g style="opacity:0.2"><path d="M134.57,56.8a95.29,95.29,0,0,1,14,14,95.29,95.29,0,0,1-14-14Z"></path><path d="M351.41,246.53a96.14,96.14,0,0,1,14,14,95.65,95.65,0,0,1-14-14Z"></path><path d="M365.42,56.8a94.74,94.74,0,0,1-14,14,95.71,95.71,0,0,1,14-14Z"></path><path d="M148.59,246.53a95.71,95.71,0,0,1-14,14,95.71,95.71,0,0,1,14-14Z"></path></g><rect x="126.79" y="223.22" width="25.26" height="37.32" style="fill:#455a64"></rect><rect x="134.27" y="215.68" width="10.3" height="7.54" style="fill:#FFC727"></rect><rect x="130.31" y="232.69" width="18.14" height="17.35" style="fill:#263238"></rect><rect x="129.58" y="223.22" width="3.9" height="37.32" style="fill:#fff;opacity:0.2"></rect><rect x="101.36" y="218.35" width="21.65" height="42.19" style="fill:#FFC727"></rect><rect x="101.36" y="218.35" width="21.65" height="42.19" style="opacity:0.2"></rect><rect x="107.77" y="211.89" width="8.83" height="6.47" style="fill:#FFC727"></rect><rect x="103.39" y="227.9" width="15.24" height="21.42" style="fill:#ebebeb"></rect><rect x="104.49" y="218.35" width="3.9" height="42.19" style="fill:#fff;opacity:0.2"></rect></g><g id="freepik--Floor--inject-102"><path d="M43.72,473.65c132.15-.61,280.41-.62,412.56,0-132.15.62-280.41.61-412.56,0Z" style="fill:#263238"></path></g><g id="freepik--barber-pole--inject-102"><rect x="64.93" y="71.91" width="36.38" height="110.23" style="fill:#fff"></rect><rect x="64.92" y="71.91" width="36.39" height="110.23" style="fill:#fff"></rect><path d="M101.31,71.91l.26,55,.15,55.23v.41h-.41l-36.39.09h-.5c-.07-.22.31-110.4.26-110.73v-.25h.24l36.39.24Zm0,0-36.39.24c.65-1.55.29,110.34.5,110l-.5-.5,36.39.08-.42.42.15-55,.27-55.22Z" style="fill:#c7c7c7"></path><rect x="62.55" y="66.73" width="41.13" height="5.17" style="fill:#455a64"></rect><rect x="58.46" y="61.56" width="49.3" height="5.17" style="fill:#37474f"></rect><path d="M83.12,46.16h0c-10.05,0-18.19,6.65-18.19,14.85v.55H101.3V61C101.3,52.81,93.16,46.16,83.12,46.16Z" style="fill:#263238"></path><rect x="62.55" y="182.14" width="41.13" height="5.17" transform="translate(166.23 369.45) rotate(180)" style="fill:#455a64"></rect><rect x="58.46" y="187.31" width="49.3" height="5.17" transform="translate(166.23 379.8) rotate(180)" style="fill:#37474f"></rect><path d="M83.12,207.89h0c10,0,18.18-6.65,18.18-14.85v-.55H64.93V193C64.93,201.24,73.07,207.89,83.12,207.89Z" style="fill:#263238"></path><polygon points="101.31 71.91 101.31 83.86 64.92 112.87 64.92 91.49 89.5 71.91 101.31 71.91" style="fill:#FFC727"></polygon><polygon points="101.3 123.21 64.93 152.21 64.93 130.84 101.3 101.84 101.3 123.21" style="fill:#37474f"></polygon><polygon points="101.31 141.18 101.31 162.55 76.74 182.14 64.92 182.14 64.92 170.19 101.31 141.18" style="fill:#FFC727"></polygon><rect x="70.09" y="71.91" width="6.21" height="110.23" style="fill:#fff;opacity:0.30000000000000004"></rect></g><g id="freepik--Character--inject-102"><path d="M405.16,473.88c-2.64.85-77.92-.13-80.76-2-1.09-.69-1.59-11.66-1.81-24.94v-.42c-.06-2.74-.09-5.56-.1-8.41,0-.4,0-.79,0-1.18l3.65-39.06,50.36.51-5,38.69,0,1.53-.31,8,0,.82s28.65,13.26,31.56,15.64S407.8,473,405.16,473.88Z" style="fill:#eb9481"></path><path d="M405.16,473.88c-2.64.85-77.92-.13-80.76-2-1.09-.69-1.59-11.66-1.81-24.94v-.42c-.06-2.74-.09-5.56-.1-8.41,0-.4,0-.79,0-1.18l49,.14,0,1.53-.31,8,0,.82s28.65,13.26,31.56,15.64S407.8,473,405.16,473.88Z" style="fill:#ebebeb"></path><path d="M405.17,473.87c-1.36.44-21.81.39-41.81,0-4-.08-8-.17-11.82-.28-14.26-.39-26-1-27.14-1.69s-1.57-11.36-1.79-24.39c0-.19,0-.37,0-.55a3.1,3.1,0,0,0,0-.43h.06l48.52.09,0,.83s28.65,13.26,31.55,15.63S407.81,473,405.17,473.87Z" style="fill:#FFC727"></path><path d="M404.35,471c-12.69-.48-63.9-1.2-76.48-.71-.1,0-.1.07,0,.08,12.56.75,63.78,1.05,76.47.83C404.61,471.15,404.61,471,404.35,471Z" style="fill:#263238"></path><path d="M376.57,446.83c-5-1-11.1-.31-15,3.19-.15.14,0,.35.21.3a70.17,70.17,0,0,1,14.73-2.86A.32.32,0,0,0,376.57,446.83Z" style="fill:#263238"></path><path d="M380.14,449c-5-1-11.1-.31-15,3.2-.15.14.05.35.21.3a70.22,70.22,0,0,1,14.72-2.87A.32.32,0,0,0,380.14,449Z" style="fill:#263238"></path><path d="M383.72,451.26c-5-1-11.1-.31-15,3.2-.15.14,0,.35.21.3a70.09,70.09,0,0,1,14.72-2.87A.32.32,0,0,0,383.72,451.26Z" style="fill:#263238"></path><path d="M363.36,473.86c-4-.08-8-.17-11.82-.28-14.26-.39-26-1-27.14-1.69s-1.57-11.36-1.79-24.39c0-.19,0-.37,0-.55a3.1,3.1,0,0,0,0-.43h.06C329.29,451.18,352.71,466.78,363.36,473.86Z" style="opacity:0.1"></path><path d="M374.47,446.78H320.25s10.91-127.63,10.49-129.84c-.54-2.83-3.75-15.65-8-32.4-1.33-5.24-2.77-10.86-4.27-16.68-4-15.76-8.5-33-12.38-48C300.25,197.46,295.7,180,295.7,180h46s5.35,17,12.1,39.06c11,35.9,25.69,85.31,27.14,97.32C383.25,335.79,374.47,446.78,374.47,446.78Z" style="fill:#263238"></path><path d="M372.06,437.53c-8.28-.17-5.9-.24-14.18-.32-4.05,0-30.68-.27-34.47.36-.08,0-.08.15,0,.17,3.79.63,30.42.39,34.47.35,8.28-.08,5.9-.14,14.18-.32A.12.12,0,1,0,372.06,437.53Z" style="fill:#37474f"></path><path d="M340.94,309.2c-1.78-7.84-4.43-15.52-6.75-23.21q-7.05-23.44-14.18-46.87-3.56-11.72-7.15-23.42c-1.21-3.94-2.42-7.88-3.66-11.81s-2.58-7.66-3.67-11.54c-.44-1.58-.68-.72-.11,1.29,1.14,4,2.27,8.09,3.45,12.12q3.5,12,7.05,24,7.05,23.82,14.22,47.62,3.58,11.93,7.18,23.86a97.5,97.5,0,0,1,2.93,11.54,53.15,53.15,0,0,1,.48,12.35c-.52,8.29-1.48,16.57-2.25,24.85s-1.53,16.59-2.3,24.88c-1.53,16.5-3.06,34-4.54,50.52-.19,2.09-.38,4.18-.54,6.28-.05.7.44.78.52.11,1.78-16.32,3.72-32.83,5.25-49.18s3.05-33.53,4.57-49.79c.38-4.09.82-8.18.82-12.28A51,51,0,0,0,340.94,309.2Z" style="fill:#37474f"></path><path d="M336.44,180c-3.19,24.68-9.27,70.95-13.71,104.52-10.36-40.67-27-104.52-27-104.52Z" style="fill:#37474f"></path><path d="M347.72,473.6c-2.63.86-77.92.16-80.77-1.69-1.09-.68-1.63-11.66-1.9-24.94v-.41c-.06-2.74-.11-5.56-.12-8.42,0-.39,0-.78,0-1.17-.18-19.17,1.21-39.06,1.21-39.06l49.21.32L314,436.92l-.05,1.54-.27,8,0,.82s28.7,13.16,31.61,15.52S350.36,472.75,347.72,473.6Z" style="fill:#eb9481"></path><path d="M347.72,473.6c-2.63.86-77.92.16-80.77-1.69-1.09-.68-1.63-11.66-1.9-24.94v-.41c-.06-2.74-.11-5.56-.12-8.42,0-.39,0-.78,0-1.17l49-.05-.05,1.54-.27,8,0,.82s28.7,13.16,31.61,15.52S350.36,472.75,347.72,473.6Z" style="fill:#ebebeb"></path><path d="M347.72,473.6c-2.63.86-77.92.16-80.77-1.69-1.09-.68-1.63-11.66-1.9-24.94v-.41l48.58-.09,0,.82s28.7,13.16,31.61,15.52S350.36,472.75,347.72,473.6Z" style="fill:#FFC727"></path><path d="M346.9,470.67c-12.69-.43-63.9-1-76.48-.42-.1,0-.1.07,0,.08,12.57.7,63.79.82,76.48.55C347.17,470.88,347.17,470.68,346.9,470.67Z" style="fill:#263238"></path><path d="M319,446.65c-5-1-11.1-.26-14.95,3.26-.15.14.05.34.21.3A69.46,69.46,0,0,1,319,447.29.32.32,0,0,0,319,446.65Z" style="fill:#263238"></path><path d="M322.62,448.86c-5-1-11.11-.27-14.95,3.25-.15.14,0,.35.2.3a70.31,70.31,0,0,1,14.72-2.92A.32.32,0,0,0,322.62,448.86Z" style="fill:#263238"></path><path d="M326.2,451.07c-5-1-11.1-.27-14.95,3.25-.15.14.05.35.21.3a70.09,70.09,0,0,1,14.71-2.92A.32.32,0,0,0,326.2,451.07Z" style="fill:#263238"></path><path d="M340.17,180s-1.06,22-6.09,39.4c-.41,1.44-.84,2.85-1.32,4.21a81.47,81.47,0,0,0-13.24,6.81s-.53,17.69-1.06,37.42c-.59,22.05-1.2,46.65-1.07,51.87.46,19.52-2.44,126.85-2.44,126.85l-54.21.22s9.8-119.86,9.73-127c-.1-11.49,2.63-62.29,4.74-99.34A278,278,0,0,1,280.43,180Z" style="fill:#263238"></path><path d="M313.09,436.94c-8.28-.14-5.9-.22-14.18-.26-4.06,0-30.69-.14-34.47.5-.09,0-.09.15,0,.17,3.79.61,30.42.26,34.47.21,8.28-.12,5.9-.17,14.18-.38A.12.12,0,1,0,313.09,436.94Z" style="fill:#37474f"></path><path d="M282.11,187.88c-1,30.24-2.05,60.49-3.41,90.71s-8.48,138.91-10.3,155.78c0,.11.16.16.18,0,3.94-30,6.14-74.41,8.08-104.6s3.26-60.42,4.29-90.65c.58-17.1,1-34.2,1.54-51.3C282.5,187.61,282.12,187.63,282.11,187.88Z" style="fill:#37474f"></path><path d="M335,222.32a100.71,100.71,0,0,0-15.5,8.12.18.18,0,0,0,.16.32c5.23-2.54,10.57-5,15.66-7.81A.35.35,0,0,0,335,222.32Z" style="fill:#37474f"></path><path d="M335.32,203.67c-.36,1.93-.82,3.84-1.24,5.75s-.68,3.63-1.15,5.41a9.24,9.24,0,0,1-2.52,4.53c-.71.65-1.48,1.23-2.23,1.83-.41.33-.85.64-1.27,1,.06-.26.1-.52.15-.78.13-.73.25-1.46.37-2.19.27-1.63.53-3.25.78-4.88.49-3.19.94-6.43,1.61-9.59a.1.1,0,0,0-.2-.05c-.8,3.14-1.68,6.24-2.37,9.4-.34,1.55-1.55,9.21-1.61,9.75s-.1,1.13-.12,1.69a6.6,6.6,0,0,0,0,1.72c0,.14.2.11.26,0h0a6.4,6.4,0,0,0,.48-1.67c.14-.55.27-1.1.37-1.66l.09-.61c.75-.46,1.46-1.06,2.16-1.57s1.53-1.09,2.25-1.69a8.59,8.59,0,0,0,2.75-4.3,31.06,31.06,0,0,0,.91-5.51c.24-2.17.42-4.36.72-6.53C335.54,203.59,335.35,203.54,335.32,203.67Z" style="fill:#37474f"></path><path d="M336.09,74.74c8.85,17.17,1.91,41.76,0,46.2,0,0-19.46,5.57-35.55-6.34,0,0,9.1-19.55,9.87-30.09C312.18,60.65,330.93,64.74,336.09,74.74Z" style="fill:#263238"></path><path d="M307.91,95.7l-.21.48a37.69,37.69,0,0,1-3.28,5.82,21.83,21.83,0,0,1-4.13,4.74c-.05,0-.11,0-.06-.07a20.11,20.11,0,0,0,3.91-5.12,57,57,0,0,0,2.92-5.66A54.6,54.6,0,0,0,311,83.44a.07.07,0,0,1,.14,0c-.06.6-.14,1.21-.23,1.81,0,0,.09,0,.08.09a62.37,62.37,0,0,1-2.84,11.81,45.3,45.3,0,0,1-5.65,10.43,54.09,54.09,0,0,1-4.14,5.14s-.06,0,0,0A58.34,58.34,0,0,0,307.91,95.7Z" style="fill:#263238"></path><path d="M332.08,70.48c9.42,8.72,10.46,23,8.65,35.33a64.59,64.59,0,0,1-2.58,11.12c0,.06-.11,0-.1,0a75.12,75.12,0,0,0,2.48-19.59c-.06-6.2-.67-12.71-3.07-18.45A23.31,23.31,0,0,0,332,70.65C331.89,70.56,332,70.4,332.08,70.48Z" style="fill:#263238"></path><path d="M329.9,68.25c2.22,1.49,8.59.22,10.79-3.31,3-4.86-3.4-12.24-9-9.12S328.2,67.1,329.9,68.25Z" style="fill:#263238"></path><path d="M338.85,56.83a11.65,11.65,0,0,1,2.95,4.71,4.26,4.26,0,0,1-1.47,4.7A10.22,10.22,0,0,1,338,67.68a12,12,0,0,1-2.6.92,9.49,9.49,0,0,1-5.52-.35,8.27,8.27,0,0,0,5.65,1.07,11.61,11.61,0,0,0,2.84-.84,11,11,0,0,0,2.55-1.54,5.28,5.28,0,0,0,1.7-2.57,5,5,0,0,0-.16-3A9.62,9.62,0,0,0,338.85,56.83Z" style="fill:#263238"></path><path d="M335.51,118.7c22.91,20,49.42,49.06,44.58,58.39-5.39,10.39-33.23-7.09-34.22-8.54-1.09-1.62-13.78-22-21.26-41.86C316.42,104.93,329.84,113.76,335.51,118.7Z" style="fill:#eb9481"></path><path d="M335.51,118.7c22.91,20,49.42,49.06,44.58,58.39-5.39,10.39-33.23-7.09-34.22-8.54-1.09-1.62-13.78-22-21.26-41.86C316.42,104.93,329.84,113.76,335.51,118.7Z" style="fill:#FFC727"></path><path d="M324.61,126.69c7.48,19.84,20.17,40.24,21.27,41.86.8,1.2,19.64,13.13,29.38,11.7L323.46,113C321.53,113.92,321.22,117.69,324.61,126.69Z" style="fill:#000102;opacity:0.1"></path><path d="M349.58,199l-74.8-3.46c-.24-.46,16.17-63.29,32.61-82.74,4.94-5.85,18.56-6.21,22.64,2.48C337.08,130.25,350.75,198.13,349.58,199Z" style="fill:#FFC727"></path><path d="M299.77,120.39c-16.4,14.92-27.82,30.37-32.3,32.44-9.89,4.56-26.71,11-31.81,12.53-3.24,1,4.34,30.26,9.58,28.76,4.41-1.26,32.65-13.48,39.23-20.94,5.8-6.59,16.41-25.44,25.17-45.19C316.86,111.72,309,112,299.77,120.39Z" style="fill:#eb9481"></path><path d="M246.41,193.39c-3.13,2.07-18.31,10.29-23,11.64s-18.65,4.21-20,.69,2.6-4.69,2.6-4.69-6.06.28-7.14-3.39,5.2-5.28,5.2-5.28-6.25-.17-7.07-3.91,5.78-4.3,5.78-4.3-5.72.12-5.1-3.25c.75-4.05,11.33-3.07,16.44-5,1.17-.42,22.94-10.3,22.94-10.3Z" style="fill:#eb9481"></path><path d="M202.14,184.21c7.78.7,11.3-.34,18.14-3.85.13-.07.26.12.13.2-6.38,4-10.62,6-18.33,4C201.71,184.49,201.77,184.18,202.14,184.21Z" style="fill:#263238"></path><path d="M203.38,192.29c8.14,0,12-1.08,19.4-4.22.11,0,.19.13.09.18-7,3.7-11.3,5.54-19.43,4.45C203.07,192.65,203,192.29,203.38,192.29Z" style="fill:#263238"></path><path d="M206.31,200.86c7.88-.55,12.13-1.57,19-5.55a.14.14,0,0,1,.16.24c-6.57,4.74-11.86,6-19.08,5.55C205.86,201.06,205.81,200.89,206.31,200.86Z" style="fill:#263238"></path><path d="M242,164.34s-9.57-2-14-2-20.74,6.23-19.61,9.83c1.47,4.66,11.61,3,16.47,1.46,0,0,3.38,10.77,10.93,11.11S242,164.34,242,164.34Z" style="fill:#eb9481"></path><path d="M209.22,173.35c4.4,3.28,10.65.92,15.47-.18a.46.46,0,0,1,.57.48c1.72,4.42,5.43,10.16,10.3,11.33a.12.12,0,0,1,0,.23c-5.39-.55-9.5-5.89-11.07-10.85-4.92,1.19-11.3,3.29-15.27-1C209.16,173.37,209.19,173.33,209.22,173.35Z" style="fill:#263238"></path><path d="M249.29,197.25,236.92,164s28.24-11.33,30.77-13.12c1.73-1.23,27.35-28.43,35.71-35.65s14.72-2.35,9.1,11.17S294.58,163,289.69,169.05C280.63,180.23,249.29,197.25,249.29,197.25Z" style="fill:#FFC727"></path><path d="M255.36,190.84c-1.11-3.65-2.41-7.24-3.72-10.84s-2.61-7.19-4-10.76c-.79-2-1.57-4-2.44-6a.05.05,0,0,0-.1,0c1.1,3.64,2.39,7.25,3.67,10.84s2.62,7.2,4,10.78c.77,2,1.57,4,2.44,6C255.21,191,255.39,191,255.36,190.84Z" style="fill:#263238"></path><path d="M273.46,182.6c5.44-4.47,11.08-8.78,15.93-13.91,6.87-10.5,12.34-21.94,18.72-32.77q-6.32,13.38-13.56,26.27a62.3,62.3,0,0,1-4.48,7.11c-4.94,5.12-10.79,9.28-16.61,13.3Z" style="fill:#263238"></path><path d="M308.09,139.11a7.56,7.56,0,0,1-3.86,4.22,19.85,19.85,0,0,1,3.86-4.22Z" style="fill:#263238"></path><path d="M323.26,123c-4,.67-10.46-5.86-12.83-11-.16-.35.59-3.88,1.31-8.2.42-2.63.83-5.56,1-8.27l16.69,5.25a43.51,43.51,0,0,0-2.33,10.28,6.83,6.83,0,0,0,0,1.12.9.9,0,0,1,0,.18C327.37,114.51,327.16,122.31,323.26,123Z" style="fill:#eb9481"></path><path d="M311,108c7.14,3,14.32-.9,17.51-4.29.54-1.89.94-3,.94-3l-16.69-5.26c-.18,2.7-.58,5.64-1,8.27C311.48,105.36,311.22,106.8,311,108Z" style="fill:#263238"></path><path d="M333.57,74.08c2.12,5.93-.22,23.48-4.31,27.56-5.94,5.93-16.08,7-21.22-.28-5-7-1.52-29.83,3.09-33.59C317.93,62.24,330.42,65.31,333.57,74.08Z" style="fill:#eb9481"></path><path d="M319.51,85.71s.09.06.08.11c-.13,1.18-.08,2.55,1,3,0,0,0,.07,0,.06C319.24,88.62,319.2,86.8,319.51,85.71Z" style="fill:#263238"></path><path d="M320.66,84.56c1.91,0,1.76,3.83,0,3.82S319.06,84.55,320.66,84.56Z" style="fill:#263238"></path><path d="M312.56,85.41s-.1,0-.1.1c0,1.19-.22,2.54-1.31,2.89,0,0,0,.07,0,.07C312.48,88.34,312.74,86.54,312.56,85.41Z" style="fill:#263238"></path><path d="M311.55,84.13c-1.89-.22-2.2,3.59-.44,3.8S313.14,84.32,311.55,84.13Z" style="fill:#263238"></path><path d="M322.2,83.22a15.11,15.11,0,0,1-1.45-.58,2.57,2.57,0,0,1-1.38-.88.81.81,0,0,1,.17-1,2,2,0,0,1,2-.12A2.91,2.91,0,0,1,323.21,82,.86.86,0,0,1,322.2,83.22Z" style="fill:#263238"></path><path d="M310.11,82.27c.53-.06,1-.19,1.54-.3a2.54,2.54,0,0,0,1.52-.59.81.81,0,0,0,0-1,2,2,0,0,0-2-.51,3,3,0,0,0-1.87,1A.87.87,0,0,0,310.11,82.27Z" style="fill:#263238"></path><path d="M320.15,96.42c-.24.32-.46.74-.88.84a3,3,0,0,1-1.3-.1,0,0,0,0,0,0,.07,1.59,1.59,0,0,0,1.58.41,1.28,1.28,0,0,0,.76-1.18C320.28,96.39,320.18,96.38,320.15,96.42Z" style="fill:#263238"></path><path d="M318.8,93A4,4,0,0,1,316,94.64a5,5,0,0,1-1.45,0l-.53-.09a.31.31,0,0,1-.23-.28h0s.18-2.53.18-2.53c-.34.16-2.06.85-2,.38A61.31,61.31,0,0,1,314,80a.11.11,0,0,1,.22,0c-.23,3.79-1.13,7.52-1.42,11.32a7.18,7.18,0,0,1,1.92-.5c.07,0-.3,3.1-.29,3.12a5.56,5.56,0,0,0,4.22-1.12C318.78,92.78,318.87,92.87,318.8,93Z" style="fill:#263238"></path><path d="M332,87.79c-1.06-.69-3.1-6-3.1-6s-11.08-2.44-13.83-11.67c0,0-4.1,6.37-8.28,8.29,0,0-1.43-9.76,7.31-12.52,0,0,8.24-4.8,17,2.33s3.59,19.35,3.59,19.35Z" style="fill:#263238"></path><path d="M315,68.29A9.14,9.14,0,0,0,316.1,73a17.29,17.29,0,0,0,2.67,4,15.5,15.5,0,0,0,3.73,3.17,19,19,0,0,0,5.3,1.75c.06,0,0,.11,0,.1a21.69,21.69,0,0,1-5.58-1.58,14.88,14.88,0,0,1-4.06-3.08,12.19,12.19,0,0,1-2.86-4.23,10.49,10.49,0,0,1-.43-4.82A.1.1,0,0,1,315,68.29Z" style="fill:#263238"></path><path d="M330,90.14s3.26-6,6-5,.7,9.55-2.15,11A3.06,3.06,0,0,1,329.6,95Z" style="fill:#eb9481"></path><path d="M335.37,87.6s.06.05,0,.07c-2,1.09-2.86,3.16-3.4,5.26a1.68,1.68,0,0,1,2.45-.75c.06,0,0,.12,0,.12a1.89,1.89,0,0,0-2,.89,9.37,9.37,0,0,0-.79,1.77c-.07.2-.42.14-.38-.08v0C330.9,92.17,332.54,88.2,335.37,87.6Z" style="fill:#263238"></path><path d="M327.92,117.66s-.05,0-.06,0c-.06,3.34-.43,11.07-5.6,10.17a11.06,11.06,0,0,1-5.39-3.24,29.85,29.85,0,0,1-4.06-4.84,43.34,43.34,0,0,1-3.65-6.1c0-.09-.18,0-.14.08,1.08,2.13,1.94,4.33,3.21,6.36a25.58,25.58,0,0,0,4.37,5.35c1.61,1.46,3.54,2.94,5.75,3.21a4.23,4.23,0,0,0,4.54-2.82A18.77,18.77,0,0,0,327.92,117.66Z" style="fill:#263238"></path><path d="M296.61,176.57c-1.12,2.54-18.68,4.87-19.11,5S276,184.8,276,184.8s15.35,2.22,16.25,2.44S278.71,287.9,279,289.07s44.71,12,57.22,12.25,40.77-18.87,41.12-19.89-25.9-79.57-29.79-95c-5.32-21.07-10.84-46-11.36-46s-23.74-.27-26-.12C309.29,140.43,297.72,174,296.61,176.57Z" style="fill:#FFC727"></path><g style="opacity:0.7000000000000001"><path d="M296.61,176.57c-1.12,2.54-18.68,4.87-19.11,5S276,184.8,276,184.8s15.35,2.22,16.25,2.44S278.71,287.9,279,289.07s44.71,12,57.22,12.25,40.77-18.87,41.12-19.89-25.9-79.57-29.79-95c-5.32-21.07-10.84-46-11.36-46s-23.74-.27-26-.12C309.29,140.43,297.72,174,296.61,176.57Z"></path></g><path d="M335.83,146.53s-4.92-28.94-5.66-31a14.57,14.57,0,0,0-2.75-4.15l5.48,34.93Z" style="fill:#455a64"></path><path d="M333.3,144.9a.87.87,0,0,0,.85.87.94.94,0,0,0-.14-1.84A.85.85,0,0,0,333.3,144.9Z" style="fill:#263238"></path><path d="M315,144.47l-4.37-.36s-.65-19.64-1.2-23.93a30.94,30.94,0,0,0-2.3-7.64,4.07,4.07,0,0,1,3.33-2s2.95,7,3.26,12.36C313.94,127.58,315,144.47,315,144.47Z" style="fill:#455a64"></path><path d="M311.6,142.1a1,1,0,1,0,1.21-.87A1.05,1.05,0,0,0,311.6,142.1Z" style="fill:#263238"></path><rect x="310.99" y="198.19" width="13.18" height="7.02" transform="translate(26.16 -36.24) rotate(6.81)" style="fill:#455a64"></rect><polygon points="324.08 206 323.68 209.34 318.16 213.77 314.17 213.29 309.85 207.68 310.25 204.35 324.08 206" style="fill:#dbdbdb"></polygon><polygon points="313.16 246.29 311.38 246.07 314.17 213.29 318.16 213.77 313.16 246.29" style="fill:#dbdbdb"></polygon><polygon points="337.88 199.18 327.89 196.96 328.25 195.62 337.99 198.81 337.88 199.18" style="fill:#FFC727"></polygon><polygon points="337.52 200.52 327.54 198.29 327.89 196.96 337.63 200.14 337.52 200.52" style="fill:#FFC727"></polygon><polygon points="337.17 201.85 327.18 199.63 327.54 198.29 337.27 201.48 337.17 201.85" style="fill:#FFC727"></polygon><polygon points="336.81 203.19 326.82 200.96 327.18 199.63 336.91 202.81 336.81 203.19" style="fill:#FFC727"></polygon><polygon points="336.45 204.52 326.46 202.29 326.82 200.96 336.55 204.14 336.45 204.52" style="fill:#FFC727"></polygon><polygon points="336.09 205.86 326.1 203.63 326.46 202.29 336.19 205.48 336.09 205.86" style="fill:#FFC727"></polygon><polygon points="335.73 207.19 325.74 204.96 326.1 203.63 335.83 206.81 335.73 207.19" style="fill:#FFC727"></polygon><polygon points="335.37 208.53 325.38 206.3 325.74 204.96 335.47 208.15 335.37 208.53" style="fill:#FFC727"></polygon><polygon points="335.01 209.86 325.02 207.63 325.38 206.3 335.11 209.48 335.01 209.86" style="fill:#FFC727"></polygon><polygon points="334.65 211.19 324.66 208.97 325.02 207.63 334.75 210.82 334.65 211.19" style="fill:#FFC727"></polygon><polygon points="334.29 212.53 324.3 210.3 324.66 208.97 334.39 212.15 334.29 212.53" style="fill:#FFC727"></polygon><polygon points="333.93 213.86 323.94 211.63 324.3 210.3 334.03 213.49 333.93 213.86" style="fill:#FFC727"></polygon><polygon points="333.57 215.2 323.58 212.97 323.94 211.63 333.67 214.82 333.57 215.2" style="fill:#FFC727"></polygon><polygon points="333.21 216.53 323.22 214.3 323.58 212.97 333.31 216.15 333.21 216.53" style="fill:#FFC727"></polygon><polygon points="332.85 217.87 322.87 215.64 323.22 214.3 332.96 217.49 332.85 217.87" style="fill:#FFC727"></polygon><polygon points="332.5 219.2 322.5 216.97 322.87 215.64 332.6 218.82 332.5 219.2" style="fill:#FFC727"></polygon><polygon points="332.14 220.53 322.15 218.31 322.5 216.97 332.24 220.16 332.14 220.53" style="fill:#FFC727"></polygon><polygon points="331.78 221.87 321.79 219.64 322.15 218.31 331.88 221.49 331.78 221.87" style="fill:#FFC727"></polygon><polygon points="316.8 242.92 315.11 242.47 326.53 195.16 329.45 195.94 316.8 242.92" style="fill:#FFC727"></polygon><rect x="297.82" y="195.71" width="13.18" height="7.02" transform="translate(-9.88 15.98) rotate(-2.96)" style="fill:#455a64"></rect><polygon points="311.55 202.36 311.72 205.71 307.03 211.02 303.02 211.23 297.81 206.43 297.64 203.08 311.55 202.36" style="fill:#FFC727"></polygon><polygon points="307.62 243.91 305.83 244.01 303.02 211.23 307.03 211.02 307.62 243.91" style="fill:#FFC727"></polygon><path d="M300.17,219.34s11.11,3.95,27.16,2.58c0,0-1,23.79-1.84,25.07s-10.32,4.16-13.69,4.2S298,247.12,296.62,245,300.17,219.34,300.17,219.34Z" style="fill:#FFC727"></path><path d="M300.17,219.34s11.11,3.95,27.16,2.58c0,0-1,23.79-1.84,25.07s-10.32,4.16-13.69,4.2S298,247.12,296.62,245,300.17,219.34,300.17,219.34Z" style="opacity:0.5"></path><path d="M378.59,178.79c-6.67,4.54-25.1,6.53-56.6,1.14-4.36-.75,4.29-31.14,9-30.59,5.91.7,28.71,4.71,30.34,5.21C375.08,158.8,383.11,175.71,378.59,178.79Z" style="fill:#eb9481"></path><path d="M339.37,152.71s-1.83-.56-11-5.11c-6.34-3.15-23.79-6.77-38.51,6.59-5.65,5.12-4.52,11.32,2.29,7,4.79-3,7.85-5.51,9.69-6.06,0,0-2.87,8.18,0,12.28a93.29,93.29,0,0,0,8.35,10.17,20.13,20.13,0,0,0,2-1.39A10.56,10.56,0,0,0,323,179.61Z" style="fill:#eb9481"></path><path d="M321.85,145.56c-3.59.94-11.16,3.06-16.74,6.95-6.21,4.32-17,14.32-13.76,18.87,2.37,3.33,6.83-.12,6.83-.12s-3.59,5.07-.79,7.61c2.55,2.32,5.84-.56,5.84-.56s-1.65,3.45,1.24,5.21c3.48,2.12,6.36-5.46,11.73-6.36C317.41,177,321.85,145.56,321.85,145.56Z" style="fill:#eb9481"></path><path d="M310.77,158.31a30.07,30.07,0,0,0-12.61,12.79c-.07.14,0,.27.09.15a73.84,73.84,0,0,1,12.56-12.88S310.8,158.29,310.77,158.31Z" style="fill:#263238"></path><path d="M314.94,164.7c-2.65,1.53-9.11,7.13-11.82,13.52-.06.14,0,.26.11.14A79.75,79.75,0,0,1,315,164.75S315,164.68,314.94,164.7Z" style="fill:#263238"></path><path d="M337.75,149.69l-7.46,34.23s45.93,1.75,49.51-5.66-9.38-21.73-17.19-23.83S337.75,149.69,337.75,149.69Z" style="fill:#FFC727"></path><path d="M367,158.22a26.43,26.43,0,0,0-9.28-5.08c-4.41-1.22-16.94-3.37-20-3.36-.08,0-.09.08,0,.09,2.74.45,14.8,2.68,19.52,3.93a35.46,35.46,0,0,1,9.69,4.48C367,158.32,367,158.26,367,158.22Z" style="fill:#263238"></path><path d="M339.13,180.57a63.89,63.89,0,0,1,1.11-6.57c.42-2.26.92-4.5,1.4-6.75s2.72-11.16,3.27-13.38c0-.1.18-.07.16,0-.42,2.26-2.08,11.22-2.57,13.42s-.95,4.41-1.5,6.6a66.69,66.69,0,0,1-1.78,6.66S339.12,180.63,339.13,180.57Z" style="fill:#263238"></path><path d="M330.85,181.3c-.14.88-.28,1.76-.44,2.64l-.11-.15c3.6,0,7.21,0,10.81-.08,10.79-.15,21.63-.31,32.3-2.05-14,3.55-28.78,3.26-43.12,2.38h-.15c.22-.91.46-1.82.71-2.73Z" style="fill:#263238"></path></g><g id="freepik--Chair--inject-102"><polygon points="300.28 343.73 293.4 343.73 293.4 340.73 298.04 340.73 306.72 311.59 309.6 312.44 300.28 343.73" style="fill:#455a64"></polygon><polygon points="281.55 343.73 274.67 343.73 274.67 340.73 279.31 340.73 287.99 311.59 290.86 312.44 281.55 343.73" style="fill:#455a64"></polygon><rect x="255.51" y="304.15" width="20.33" height="9.01" transform="translate(531.36 617.32) rotate(180)" style="fill:#455a64"></rect><rect x="275.84" y="304.15" width="55.82" height="9.01" style="fill:#37474f"></rect><polygon points="275.84 292.29 326.72 292.29 328.72 304.15 275.84 304.15 275.84 292.29" style="fill:#FFC727"></polygon><polygon points="275.84 292.29 326.72 292.29 328.72 304.15 275.84 304.15 275.84 292.29" style="opacity:0.1"></polygon><polygon points="275.84 292.29 261.01 292.29 259.01 304.15 275.84 304.15 275.84 292.29" style="fill:#FFC727"></polygon><rect x="159.13" y="168.14" width="59.64" height="32.15" style="fill:#455a64"></rect><rect x="154.52" y="168.14" width="4.61" height="32.15" transform="translate(313.64 368.43) rotate(180)" style="fill:#37474f"></rect><rect x="162.02" y="170.91" width="56.69" height="26.6" style="fill:#FFC727"></rect><polygon points="167.27 195.52 162.02 197.52 162.02 170.91 167.27 172.91 167.27 195.52" style="opacity:0.1"></polygon><polygon points="223.96 195.52 218.71 197.52 218.71 170.91 223.96 172.91 223.96 195.52" style="fill:#FFC727"></polygon><rect x="202.17" y="200.29" width="6.12" height="6.12" transform="translate(410.46 406.7) rotate(180)" style="fill:#37474f"></rect><rect x="205.23" y="200.29" width="2.16" height="6.12" transform="translate(412.62 406.7) rotate(180)" style="fill:#455a64"></rect><rect x="167.91" y="200.29" width="6.12" height="6.12" transform="translate(341.95 406.7) rotate(180)" style="fill:#37474f"></rect><rect x="170.98" y="200.29" width="2.16" height="6.12" transform="translate(344.11 406.7) rotate(180)" style="fill:#455a64"></rect><polygon points="170.86 332.42 253.83 332.42 226.06 206.41 143.09 206.41 170.86 332.42" style="fill:#37474f"></polygon><polygon points="176.04 332.42 259.01 332.42 231.24 206.41 148.27 206.41 176.04 332.42" style="fill:#455a64"></polygon><path d="M182.38,324.8c11.11-.12,39.56-.42,50.28-.52l16.65-.11-.61.76c-7-30.87-17.84-79.42-24.78-110.68l1,.78L158,214.9l.84-1.05c6.9,31.92,16.77,78.47,23.57,111Zm0,0c-7.54-33.12-18.27-78.89-25.49-111.63H158L224.9,213h.8c4.12,18.86,14.34,65.64,18.29,83.91l5.93,27.72.17.77h-.78c-18.7,0-48-.47-66.93-.62Z" style="fill:#37474f"></path><polygon points="178.49 331.06 259.06 331.06 263.18 325.15 238.24 211.99 232.05 207.77 151.32 207.77 178.49 331.06" style="fill:#FFC727"></polygon><polygon points="178.33 331.06 151.32 207.77 157.51 211.99 182.46 325.15 178.33 331.06" style="opacity:0.1"></polygon><rect x="175.75" y="334.41" width="80.12" height="15.63" transform="translate(431.62 684.46) rotate(180)" style="fill:#455a64"></rect><rect x="255.87" y="334.41" width="61.82" height="15.63" style="fill:#37474f"></rect><rect x="200.86" y="464.33" width="50.12" height="8.93" transform="translate(451.85 937.59) rotate(180)" style="fill:#455a64"></rect><rect x="250.99" y="464.33" width="41.82" height="8.93" style="fill:#37474f"></rect><polygon points="255.87 329.43 312.75 329.43 314.75 334.41 255.87 334.41 255.87 329.43" style="fill:#FFC727"></polygon><polygon points="255.87 329.43 312.75 329.43 314.75 334.41 255.87 334.41 255.87 329.43" style="opacity:0.1"></polygon><polygon points="255.87 329.43 181.24 329.43 179.24 334.41 255.87 334.41 255.87 329.43" style="fill:#FFC727"></polygon><rect x="218.73" y="350.04" width="55.34" height="3.8" transform="translate(492.81 703.88) rotate(180)" style="fill:#37474f"></rect><rect x="227.47" y="415.01" width="37.87" height="3.8" transform="translate(492.81 833.82) rotate(180)" style="fill:#37474f"></rect><rect x="236.72" y="353.84" width="19.37" height="61.17" transform="translate(492.81 768.85) rotate(180)" style="fill:#263238"></rect><rect x="248.83" y="353.84" width="4.44" height="61.17" transform="translate(502.1 768.85) rotate(180)" style="fill:#37474f"></rect><rect x="232.11" y="418.81" width="28.59" height="45.53" transform="translate(492.81 883.14) rotate(180)" style="fill:#37474f"></rect><rect x="249.98" y="418.81" width="6.55" height="45.53" transform="translate(506.51 883.14) rotate(180)" style="fill:#455a64"></rect><polygon points="195.23 343.73 188.35 343.73 179.03 312.44 181.91 311.59 190.59 340.73 195.23 340.73 195.23 343.73" style="fill:#455a64"></polygon><polygon points="213.96 343.73 207.08 343.73 197.77 312.44 200.64 311.59 209.32 340.73 213.96 340.73 213.96 343.73" style="fill:#455a64"></polygon><rect x="151.32" y="304.15" width="20.33" height="9.01" transform="translate(322.97 617.32) rotate(180)" style="fill:#455a64"></rect><rect x="171.65" y="304.15" width="55.82" height="9.01" style="fill:#37474f"></rect><polygon points="171.65 292.29 222.52 292.29 224.52 304.15 171.65 304.15 171.65 292.29" style="fill:#FFC727"></polygon><polygon points="171.65 292.29 222.52 292.29 224.52 304.15 171.65 304.15 171.65 292.29" style="opacity:0.1"></polygon><polygon points="171.65 292.29 156.81 292.29 154.81 304.15 171.65 304.15 171.65 292.29" style="fill:#FFC727"></polygon></g></svg>
