<svg xmlns="http://www.w3.org/2000/svg" viewBox="0 0 750 500"><g id="freepik--background-complete--inject-26"><circle cx="104.72" cy="100.1" r="23.64" transform="translate(-32.51 146.53) rotate(-62.4)" style="fill:#ebebeb;opacity:0.19"></circle><circle cx="104.72" cy="103.99" r="17.53" style="fill:#ebebeb;opacity:0.19"></circle><polygon points="117.45 150.82 92 150.82 96.05 140.87 113.39 140.87 117.45 150.82" style="fill:#ebebeb"></polygon><polygon points="128.33 103.66 113.39 140.87 96.05 140.87 81.11 103.66 128.33 103.66" style="fill:#ebebeb"></polygon><polygon points="115.19 134.48 113.39 140.88 96.04 140.88 95 137.17 115.19 134.48" style="fill:#dbdbdb"></polygon><circle cx="645.28" cy="100.1" r="23.64" transform="translate(118.22 485.6) rotate(-45)" style="fill:#ebebeb;opacity:0.19"></circle><circle cx="645.28" cy="103.99" r="17.53" style="fill:#ebebeb;opacity:0.19"></circle><polygon points="658.01 150.82 632.56 150.82 636.61 140.87 653.95 140.87 658.01 150.82" style="fill:#ebebeb"></polygon><polygon points="668.89 103.66 653.95 140.87 636.61 140.87 621.67 103.66 668.89 103.66" style="fill:#ebebeb"></polygon><polygon points="655.76 134.48 653.96 140.88 636.61 140.88 635.56 137.17 655.76 134.48" style="fill:#dbdbdb"></polygon><rect x="31.84" y="140.9" width="431.78" height="208.31" transform="translate(492.78 -2.67) rotate(90)" style="fill:#ebebeb"></rect><rect x="137.91" y="243.14" width="431.78" height="3.83" transform="translate(598.85 -108.74) rotate(90)" style="fill:#dbdbdb"></rect><g style="opacity:0.30000000000000004"><polygon points="325.68 460.94 304.86 460.94 143.57 192.98 143.57 158.41 325.68 460.94" style="fill:#fff"></polygon><polygon points="351.88 82.52 319.76 29.16 340.58 29.16 351.88 47.94 351.88 82.52" style="fill:#fff"></polygon><polygon points="351.88 339.55 165.04 29.16 218.54 29.16 351.88 250.68 351.88 339.55" style="fill:#fff"></polygon><polygon points="204.81 460.94 151.32 460.94 143.57 448.08 143.57 359.2 204.81 460.94" style="fill:#fff"></polygon><polygon points="351.88 211.72 241.99 29.16 247.45 29.16 351.88 202.65 351.88 211.72" style="fill:#fff"></polygon><polygon points="235.18 460.94 229.72 460.94 143.57 317.84 143.57 308.74 235.18 460.94" style="fill:#fff"></polygon></g><circle cx="160.87" cy="58.23" r="10.11" transform="translate(67.38 201.51) rotate(-76.78)" style="fill:#fff;opacity:0.5"></circle><path d="M166.93,58.23a6.06,6.06,0,1,1-6.06-6.06A6.06,6.06,0,0,1,166.93,58.23Z" style="fill:#fff"></path><circle cx="160.87" cy="111.61" r="10.11" style="fill:#fff;opacity:0.5"></circle><path d="M166.93,111.61a6.06,6.06,0,1,1-6.06-6.06A6.07,6.07,0,0,1,166.93,111.61Z" style="fill:#fff"></path><circle cx="160.87" cy="164.99" r="10.11" transform="translate(-69.55 162.07) rotate(-45)" style="fill:#fff;opacity:0.5"></circle><path d="M166.93,165a6.06,6.06,0,1,1-6.06-6.06A6.06,6.06,0,0,1,166.93,165Z" style="fill:#fff"></path><circle cx="160.87" cy="218.36" r="10.11" style="fill:#fff;opacity:0.5"></circle><path d="M166.93,218.36a6.06,6.06,0,1,1-6.06-6.05A6.06,6.06,0,0,1,166.93,218.36Z" style="fill:#fff"></path><circle cx="160.87" cy="271.74" r="10.11" transform="translate(-145.03 193.34) rotate(-45)" style="fill:#fff;opacity:0.5"></circle><path d="M166.93,271.74a6.06,6.06,0,1,1-6.06-6.06A6.06,6.06,0,0,1,166.93,271.74Z" style="fill:#fff"></path><circle cx="160.87" cy="325.12" r="10.11" style="fill:#fff;opacity:0.5"></circle><path d="M166.93,325.12a6.06,6.06,0,1,1-6.06-6.06A6.06,6.06,0,0,1,166.93,325.12Z" style="fill:#fff"></path><circle cx="160.87" cy="378.5" r="10.11" transform="translate(-220.52 224.61) rotate(-45)" style="fill:#fff;opacity:0.5"></circle><path d="M166.93,378.5a6.06,6.06,0,1,1-6.06-6.06A6.07,6.07,0,0,1,166.93,378.5Z" style="fill:#fff"></path><circle cx="160.87" cy="431.88" r="10.11" transform="translate(-296.36 489.68) rotate(-76.78)" style="fill:#fff;opacity:0.5"></circle><path d="M166.93,431.88a6.06,6.06,0,1,1-6.06-6.06A6.06,6.06,0,0,1,166.93,431.88Z" style="fill:#fff"></path><circle cx="334.58" cy="58.23" r="10.11" transform="translate(83.44 286.84) rotate(-52.18)" style="fill:#fff;opacity:0.5"></circle><path d="M340.64,58.23a6.06,6.06,0,1,1-6.06-6.06A6.06,6.06,0,0,1,340.64,58.23Z" style="fill:#fff"></path><circle cx="334.58" cy="111.61" r="10.11" style="fill:#fff;opacity:0.5"></circle><path d="M340.64,111.61a6.06,6.06,0,1,1-6.06-6.06A6.06,6.06,0,0,1,340.64,111.61Z" style="fill:#fff"></path><circle cx="334.58" cy="164.99" r="10.11" transform="matrix(0.26, -0.97, 0.97, 0.26, 89.04, 445.83)" style="fill:#fff;opacity:0.5"></circle><path d="M340.64,165a6.06,6.06,0,1,1-6.06-6.06A6.05,6.05,0,0,1,340.64,165Z" style="fill:#fff"></path><circle cx="334.58" cy="218.36" r="10.11" style="fill:#fff;opacity:0.5"></circle><path d="M340.64,218.36a6.06,6.06,0,1,1-6.06-6.05A6.06,6.06,0,0,1,340.64,218.36Z" style="fill:#fff"></path><circle cx="334.58" cy="271.74" r="10.11" transform="translate(-14.12 525.11) rotate(-75.08)" style="fill:#fff;opacity:0.5"></circle><path d="M340.64,271.74a6.06,6.06,0,1,1-6.06-6.06A6.06,6.06,0,0,1,340.64,271.74Z" style="fill:#fff"></path><circle cx="334.58" cy="325.12" r="10.11" style="fill:#fff;opacity:0.5"></circle><path d="M340.64,325.12a6.06,6.06,0,1,1-6.06-6.06A6.06,6.06,0,0,1,340.64,325.12Z" style="fill:#fff"></path><circle cx="334.58" cy="378.5" r="10.11" transform="translate(-117.28 604.38) rotate(-75.08)" style="fill:#fff;opacity:0.5"></circle><path d="M340.64,378.5a6.06,6.06,0,1,1-6.06-6.06A6.06,6.06,0,0,1,340.64,378.5Z" style="fill:#fff"></path><circle cx="334.58" cy="431.88" r="10.11" transform="translate(-211.73 431.39) rotate(-52.18)" style="fill:#fff;opacity:0.5"></circle><path d="M340.64,431.88a6.06,6.06,0,1,1-6.06-6.06A6.05,6.05,0,0,1,340.64,431.88Z" style="fill:#fff"></path><rect x="282.55" y="140.9" width="431.78" height="208.31" transform="translate(743.5 -253.39) rotate(90)" style="fill:#ebebeb"></rect><rect x="388.62" y="243.14" width="431.78" height="3.83" transform="translate(849.57 -359.46) rotate(90)" style="fill:#dbdbdb"></rect><g style="opacity:0.30000000000000004"><polygon points="576.39 460.94 555.58 460.94 394.29 192.98 394.29 158.41 576.39 460.94" style="fill:#fff"></polygon><polygon points="602.6 82.52 570.48 29.16 591.29 29.16 602.6 47.94 602.6 82.52" style="fill:#fff"></polygon><polygon points="602.6 339.55 415.76 29.16 469.25 29.16 602.6 250.68 602.6 339.55" style="fill:#fff"></polygon><polygon points="455.53 460.94 402.03 460.94 394.29 448.08 394.29 359.2 455.53 460.94" style="fill:#fff"></polygon><polygon points="602.6 211.72 492.7 29.16 498.16 29.16 602.6 202.65 602.6 211.72" style="fill:#fff"></polygon><polygon points="485.89 460.94 480.44 460.94 394.29 317.84 394.29 308.74 485.89 460.94" style="fill:#fff"></polygon></g><circle cx="411.58" cy="58.23" r="10.11" transform="translate(121.14 355.61) rotate(-53.73)" style="fill:#fff;opacity:0.5"></circle><path d="M417.64,58.23a6.06,6.06,0,1,1-6.06-6.06A6.06,6.06,0,0,1,417.64,58.23Z" style="fill:#fff"></path><circle cx="411.58" cy="111.61" r="10.11" style="fill:#fff;opacity:0.5"></circle><path d="M417.64,111.61a6.06,6.06,0,1,1-6.06-6.06A6.06,6.06,0,0,1,417.64,111.61Z" style="fill:#fff"></path><circle cx="411.58" cy="164.99" r="10.11" transform="translate(143.59 518.26) rotate(-74.66)" style="fill:#fff;opacity:0.5"></circle><path d="M417.64,165a6.06,6.06,0,1,1-6.06-6.06A6.05,6.05,0,0,1,417.64,165Z" style="fill:#fff"></path><circle cx="411.58" cy="218.36" r="10.11" style="fill:#fff;opacity:0.5"></circle><path d="M417.64,218.36a6.06,6.06,0,1,1-6.06-6.05A6.06,6.06,0,0,1,417.64,218.36Z" style="fill:#fff"></path><circle cx="411.58" cy="271.74" r="10.11" transform="translate(40.64 596.77) rotate(-74.66)" style="fill:#fff;opacity:0.5"></circle><path d="M417.64,271.74a6.06,6.06,0,1,1-6.06-6.06A6.06,6.06,0,0,1,417.64,271.74Z" style="fill:#fff"></path><circle cx="411.58" cy="325.12" r="10.11" style="fill:#fff;opacity:0.5"></circle><path d="M417.64,325.12a6.06,6.06,0,1,1-6.06-6.06A6.06,6.06,0,0,1,417.64,325.12Z" style="fill:#fff"></path><circle cx="411.58" cy="378.5" r="10.11" transform="translate(-62.31 675.29) rotate(-74.66)" style="fill:#fff;opacity:0.5"></circle><path d="M417.64,378.5a6.06,6.06,0,1,1-6.06-6.06A6.06,6.06,0,0,1,417.64,378.5Z" style="fill:#fff"></path><circle cx="411.58" cy="431.88" r="10.11" transform="translate(-180.1 508.2) rotate(-53.73)" style="fill:#fff;opacity:0.5"></circle><path d="M417.64,431.88a6.06,6.06,0,1,1-6.06-6.06A6.05,6.05,0,0,1,417.64,431.88Z" style="fill:#fff"></path><circle cx="585.3" cy="58.23" r="10.11" transform="translate(12.79 193.13) rotate(-18.94)" style="fill:#fff;opacity:0.5"></circle><path d="M591.36,58.23a6.06,6.06,0,1,1-6.06-6.06A6.06,6.06,0,0,1,591.36,58.23Z" style="fill:#fff"></path><circle cx="585.3" cy="111.61" r="10.11" style="fill:#fff;opacity:0.5"></circle><path d="M591.36,111.61a6.06,6.06,0,1,1-6.06-6.06A6.06,6.06,0,0,1,591.36,111.61Z" style="fill:#fff"></path><circle cx="585.3" cy="164.99" r="10.11" transform="translate(335.96 719.63) rotate(-81.54)" style="fill:#fff;opacity:0.5"></circle><path d="M591.36,165a6.06,6.06,0,1,1-6.06-6.06A6.05,6.05,0,0,1,591.36,165Z" style="fill:#fff"></path><circle cx="585.3" cy="218.36" r="10.11" style="fill:#fff;opacity:0.5"></circle><path d="M591.36,218.36a6.06,6.06,0,1,1-6.06-6.05A6.06,6.06,0,0,1,591.36,218.36Z" style="fill:#fff"></path><circle cx="585.3" cy="271.74" r="10.11" transform="translate(230.37 810.67) rotate(-81.54)" style="fill:#fff;opacity:0.5"></circle><path d="M591.36,271.74a6.06,6.06,0,1,1-6.06-6.06A6.06,6.06,0,0,1,591.36,271.74Z" style="fill:#fff"></path><circle cx="585.3" cy="325.12" r="10.11" style="fill:#fff;opacity:0.5"></circle><path d="M591.36,325.12a6.06,6.06,0,1,1-6.06-6.06A6.06,6.06,0,0,1,591.36,325.12Z" style="fill:#fff"></path><circle cx="585.3" cy="378.5" r="10.11" transform="translate(124.77 901.71) rotate(-81.54)" style="fill:#fff;opacity:0.5"></circle><path d="M591.36,378.5a6.06,6.06,0,1,1-6.06-6.06A6.06,6.06,0,0,1,591.36,378.5Z" style="fill:#fff"></path><circle cx="585.3" cy="431.88" r="10.11" transform="translate(-108.49 213.36) rotate(-18.94)" style="fill:#fff;opacity:0.5"></circle><path d="M591.36,431.88a6.06,6.06,0,1,1-6.06-6.06A6.05,6.05,0,0,1,591.36,431.88Z" style="fill:#fff"></path></g><g id="freepik--Floor--inject-26"><polygon points="77.16 461.3 151.62 461.06 226.08 460.97 375 460.8 523.92 460.97 598.38 461.06 672.84 461.3 598.38 461.55 523.92 461.63 375 461.8 226.08 461.63 151.62 461.55 77.16 461.3" style="fill:#263238"></polygon></g><g id="freepik--hair-drier-2--inject-26"><polygon points="597.54 461.8 585.28 461.8 585.28 65.76 572.56 53.87 566.1 53.87 569.86 40.61 576.33 40.61 597.54 60.44 597.54 461.8" style="fill:#455a64"></polygon><polygon points="591.08 461.8 578.81 461.8 578.81 65.76 566.1 53.87 559.04 55.29 556.63 43.27 569.86 40.61 591.08 60.44 591.08 461.8" style="fill:#37474f"></polygon><path d="M577.79,142.56l-94.52-46.5c25.31-51.45,57.88-67.44,85.25-54S603.1,91.11,577.79,142.56Z" style="fill:#263238"></path><ellipse cx="530.78" cy="118.79" rx="31.53" ry="52.67" transform="translate(189.9 542.64) rotate(-63.81)" style="fill:#37474f"></ellipse><ellipse cx="530.46" cy="119.45" rx="26.06" ry="43.53" transform="translate(189.13 542.71) rotate(-63.81)" style="fill:#455a64"></ellipse><path d="M498.17,84.05S523.52,34.44,558,38.41c0,0-19.31.59-39.27,44.19C518.69,82.6,507.63,81.08,498.17,84.05Z" style="fill:#455a64"></path><path d="M522.18,83.1S532.36,60.38,542,53c0,0-7.54,10.5-15.15,31Z" style="fill:#455a64"></path></g><g id="freepik--hair-drier-1--inject-26"><polygon points="323.43 461.8 311.16 461.8 311.16 65.76 298.45 53.87 291.98 53.87 295.75 40.61 302.21 40.61 323.43 60.44 323.43 461.8" style="fill:#455a64"></polygon><polygon points="316.96 461.8 304.7 461.8 304.7 65.76 291.98 53.87 284.93 55.29 282.51 43.27 295.75 40.61 316.96 60.44 316.96 461.8" style="fill:#37474f"></polygon><path d="M303.68,142.56l-94.52-46.5c25.31-51.45,57.87-67.44,85.24-54S329,91.11,303.68,142.56Z" style="fill:#263238"></path><ellipse cx="256.67" cy="118.79" rx="31.53" ry="52.67" transform="translate(36.78 296.67) rotate(-63.81)" style="fill:#37474f"></ellipse><ellipse cx="256.35" cy="119.45" rx="26.06" ry="43.53" transform="translate(36.01 296.75) rotate(-63.81)" style="fill:#455a64"></ellipse><path d="M224.06,84.05s25.35-49.61,59.79-45.64c0,0-19.31.59-39.28,44.19C244.57,82.6,233.51,81.08,224.06,84.05Z" style="fill:#455a64"></path><path d="M248.06,83.1S258.25,60.38,267.88,53c0,0-7.54,10.5-15.15,31Z" style="fill:#455a64"></path></g><g id="freepik--character-1--inject-26"><polygon points="297.63 341.44 346.27 341.44 371.22 202.66 326.68 182.2 297.63 341.44" style="fill:#FFC727"></polygon><g style="opacity:0.4"><polygon points="297.63 341.44 346.27 341.44 371.22 202.66 326.68 182.2 297.63 341.44"></polygon></g><polygon points="166.35 341.44 297.63 341.44 326.68 182.2 195.4 182.2 166.35 341.44" style="fill:#FFC727"></polygon><polygon points="166.35 341.44 297.63 341.44 326.68 182.2 195.4 182.2 166.35 341.44" style="opacity:0.2"></polygon><rect x="131.86" y="341.44" width="151.07" height="78.49" transform="translate(414.79 761.36) rotate(180)" style="fill:#FFC727"></rect><rect x="131.86" y="341.44" width="151.07" height="78.49" transform="translate(414.79 761.36) rotate(180)" style="opacity:0.2"></rect><rect x="131.86" y="307.51" width="151.07" height="34.25" transform="translate(414.79 649.26) rotate(180)" style="fill:#FFC727"></rect><rect x="131.86" y="307.51" width="151.07" height="34.25" transform="translate(414.79 649.26) rotate(180)" style="opacity:0.2"></rect><polygon points="131.86 419.92 152.22 419.92 182.57 252.51 131.86 252.51 131.86 419.92" style="fill:#FFC727"></polygon><g style="opacity:0.4"><polygon points="131.86 419.92 152.22 419.92 182.57 252.51 131.86 252.51 131.86 419.92"></polygon></g><rect x="90.9" y="252.51" width="40.96" height="167.41" transform="translate(222.75 672.44) rotate(180)" style="fill:#FFC727"></rect><rect x="90.9" y="252.51" width="40.96" height="167.41" transform="translate(222.75 672.44) rotate(180)" style="opacity:0.2"></rect><rect x="323.89" y="252.51" width="74.54" height="167.41" transform="translate(722.32 672.44) rotate(180)" style="fill:#FFC727"></rect><g style="opacity:0.4"><rect x="323.89" y="252.51" width="74.54" height="167.41" transform="translate(722.32 672.44) rotate(180)"></rect></g><rect x="282.93" y="252.51" width="40.96" height="167.41" transform="translate(606.82 672.44) rotate(180)" style="fill:#FFC727"></rect><rect x="282.93" y="252.51" width="40.96" height="167.41" transform="translate(606.82 672.44) rotate(180)" style="opacity:0.2"></rect><path d="M313.85,252.51l-15.46-.27-15.46-.19h-.46v.47l-.17,17.9-.07,32.36c0,11.94-.08,23.87,0,35.8s.05,23.87.2,35.8.27,23.87.52,35.8q.38-17.9.52-35.8c.15-11.93.17-23.86.2-35.8s0-23.86,0-35.8l-.07-32.36-.17-17.9-.47.47,15.46-.19Z" style="fill:#263238"></path><path d="M131.86,252.51c-.32,12-.47,38.42-.6,50.4l-.18,35.93.18,35.93.22,18,.38,18,.37-18,.22-18,.18-35.93-.18-35.93C132.32,290.93,132.17,264.49,131.86,252.51Z" style="fill:#263238"></path><path d="M131.86,341.44c13.25.32,26.5.46,39.75.59l39.75.18,31.82-.18,19.87-.21,19.88-.38-19.88-.38-19.87-.22-31.82-.17-39.75.18C158.36,341,145.11,341.12,131.86,341.44Z" style="fill:#263238"></path><path d="M131.86,307.51c13.25.31,26.5.46,39.75.59l39.75.18,31.82-.18,19.87-.22,19.88-.37-19.88-.38-19.87-.22-31.82-.18-39.75.18C158.36,307,145.11,307.19,131.86,307.51Z" style="fill:#263238"></path><polygon points="370.1 419.92 371.11 432.31 373.46 460.94 384.26 460.94 386.61 432.31 387.62 419.92 370.1 419.92" style="fill:#c7c7c7"></polygon><polygon points="387.62 419.92 370.1 419.92 371.11 432.31 386.61 432.31 387.62 419.92" style="fill:#a6a6a6"></polygon><polygon points="294.65 419.92 295.66 432.31 298.01 460.94 308.81 460.94 311.16 432.31 312.17 419.92 294.65 419.92" style="fill:#c7c7c7"></polygon><polygon points="312.17 419.92 294.65 419.92 295.66 432.31 311.16 432.31 312.17 419.92" style="fill:#a6a6a6"></polygon><polygon points="177.43 419.92 178.44 432.31 180.79 460.94 191.58 460.94 193.94 432.31 194.95 419.92 177.43 419.92" style="fill:#c7c7c7"></polygon><polygon points="194.95 419.92 177.43 419.92 178.44 432.31 193.94 432.31 194.95 419.92" style="fill:#a6a6a6"></polygon><polygon points="101.96 419.92 102.97 432.31 105.32 460.94 116.12 460.94 118.47 432.31 119.48 419.92 101.96 419.92" style="fill:#c7c7c7"></polygon><polygon points="101.96 419.92 102.97 432.31 118.47 432.31 119.48 419.92 101.96 419.92" style="fill:#a6a6a6"></polygon><g style="opacity:0.2"><path d="M309.31,250.18a.8.8,0,0,1,0,1.59A.8.8,0,0,1,309.31,250.18Z"></path><path d="M308,347.56a.8.8,0,0,1,0,1.59A.8.8,0,0,1,308,347.56Z"></path><path d="M354.58,201.6a1.34,1.34,0,0,1,.12-.24.36.36,0,0,1,.62,0c0,.08.09.16.12.24C355.89,202.54,354.13,202.54,354.58,201.6Z"></path><path d="M341.77,349.57a1.08,1.08,0,0,1,.12-.24.36.36,0,0,1,.62,0,1.79,1.79,0,0,1,.12.24C343.08,350.51,341.32,350.51,341.77,349.57Z"></path><path d="M302.47,255a.61.61,0,0,1,0,1.21A.61.61,0,0,1,302.47,255Z"></path><path d="M197.12,372.28a.8.8,0,0,1,0,1.59A.8.8,0,0,1,197.12,372.28Z"></path><path d="M266.35,392.52a.61.61,0,0,1,0,1.22A.61.61,0,0,1,266.35,392.52Z"></path><path d="M353.59,316.76a.61.61,0,0,1,0,1.22A.61.61,0,0,1,353.59,316.76Z"></path><path d="M273.77,221.12a.84.84,0,0,1,1.19,0,1.14,1.14,0,0,1,.29,1.14.92.92,0,0,1-1.77,0A1.19,1.19,0,0,1,273.77,221.12Z"></path><path d="M301.29,343.06a.84.84,0,0,1,1.19,0,1.2,1.2,0,0,1,.29,1.15.93.93,0,0,1-1.77,0A1.16,1.16,0,0,1,301.29,343.06Z"></path><path d="M378.27,394.29a.83.83,0,0,1,1.18,0,1.16,1.16,0,0,1,.29,1.15.92.92,0,0,1-1.76,0A1.16,1.16,0,0,1,378.27,394.29Z"></path><path d="M151.57,351.27a.8.8,0,0,1,0-1.6A.8.8,0,0,1,151.57,351.27Z"></path><path d="M191.15,245a.8.8,0,0,1,0-1.59A.8.8,0,0,1,191.15,245Z"></path><path d="M117,343.75a1.34,1.34,0,0,1-.12.24.36.36,0,0,1-.62,0c0-.08-.09-.16-.12-.24C115.72,342.81,117.48,342.81,117,343.75Z"></path><path d="M107.45,275.89l-.12.23a.36.36,0,0,1-.62,0,1.71,1.71,0,0,1-.13-.23C106.13,274.94,107.9,274.94,107.45,275.89Z"></path><path d="M110,386.32c0,.08-.08.16-.13.24a.36.36,0,0,1-.61,0c0-.08-.09-.16-.13-.24C108.64,385.38,110.41,385.38,110,386.32Z"></path><path d="M215.43,295.8a.86.86,0,0,1-1.19,0,1.17,1.17,0,0,1-.29-1.15.92.92,0,0,1,1.77,0A1.21,1.21,0,0,1,215.43,295.8Z"></path><path d="M99.82,279.47a.84.84,0,0,1-1.19,0,1.2,1.2,0,0,1-.29-1.15.93.93,0,0,1,1.77,0A1.16,1.16,0,0,1,99.82,279.47Z"></path></g><path d="M60.67,417.32C63.3,419,145.6,440,149.25,438.79c1.38-.44,5.13-12.25,9.26-26.65.89-3.11,1.79-6.32,2.69-9.59,5.85-21.23,11.57-43.89,11.57-43.89l-55-14.18L107.7,388.76l-2.21,9.72s-35.1,6.07-39,7.79S58,415.63,60.67,417.32Z" style="fill:#d3766a"></path><path d="M156.92,417.64c-3.47,11.8-6.47,20.76-7.67,21.15C145.61,440,63.3,419,60.67,417.32s2-9.31,5.85-11.05c2.39-1.06,16.66-3.78,27.25-5.71-9.25,1.79-26.61,7.26,8.61,11.35C131.5,415.3,150.73,417.1,156.92,417.64Z" style="fill:#263238"></path><path d="M133.79,463.05c3,1,87.9.26,91.12-1.82,1.23-.78-.56-34.94-1.31-38.25-2.52-11.21-15.39-45.21-15.39-45.21l-56.82.3,20.93,55.33s-32.39,14.82-35.68,17.47S130.81,462.08,133.79,463.05Z" style="fill:#d3766a"></path><path d="M224.91,461.23c-3.22,2.08-88.14,2.78-91.13,1.82s-.42-9.53,2.85-12.18c1.55-1.24,9.38-5.1,17.32-8.88-10,5.06-25.92,16.62,71-1C225.35,450.71,225.57,460.82,224.91,461.23Z" style="fill:#263238"></path><path d="M272.51,301.15c-17.71,18.08-80.44,1-83.53,5.81-3.92,6.11,31.34,104.81,31.34,104.81l-55.25,2.44S119.16,303.67,135.75,275c10.53-18.19,56.32-8.57,83.92-10.73,8.33-.65,13-17.56,13-17.56l49.08,2.12S292.74,280.48,272.51,301.15Z" style="fill:#d3766a"></path><path d="M153.43,265.27l46.44,41.21c19.47,1.81,59.15,8.46,72.64-5.32,19.58-20,9.88-50.27,9.23-52.21l0-.1-49.08-2.13s-4.63,16.91-12.95,17.57q-1.8.13-3.72.21c-.43,0-.87,0-1.3.05-.77,0-1.56.05-2.34.05s-1.47,0-2.21,0c-1.64,0-3.3,0-5,0C187.86,264.3,167.93,262.52,153.43,265.27Z" style="opacity:0.1"></path><path d="M108.41,386.45l51,13.17s-38.84-113.84-20.84-127.34c5-3.74,15.56-4.67,27.81,1.27,18.29,8.85,39.16,26.21,59.24,33.09,18.81,6.45,41.65,2.26,49.81-6,17.13-17.29,6.3-51.84,6.3-51.84l-67.36-5.46s1,.87-2.37,3.58c0,0-39.28-10.71-57-.93C123.09,263.67,108.41,386.45,108.41,386.45Z" style="fill:#d3766a"></path><path d="M239.45,309.53a56.77,56.77,0,0,1-17-4c-10.87-4.32-20.9-10.43-30.77-16.62-12.34-7.37-32.46-22.95-47.18-19.05a17,17,0,0,0-7.29,4.22c-5.12,6.06-3.51,17.54-2.84,25,4.81,34.6,14.72,68.4,25.73,101.5,3.74,11,7.73,22,12.19,32.77-4.61-10.71-8.75-21.62-12.66-32.61-11.2-33.11-21.28-66.87-26.25-101.54-.65-7.76-2.25-19.42,3.2-25.76a17.86,17.86,0,0,1,7.7-4.42c15.08-3.95,35.17,11.79,47.71,19.36,4.91,3.14,9.88,6.19,14.94,9.07,10.06,5.72,20.77,11.13,32.49,12Z" style="fill:#263238"></path><path d="M174.19,241.28s34.53,45.51,39,67.07c0,0,5.85,2.94,38,1.33s42.46-28.85,30.45-60.85l-67.36-5.46a9.85,9.85,0,0,1-2.09,1.62C211.69,245.13,187.51,241.27,174.19,241.28Z" style="fill:#dbdbdb"></path><path d="M238.71,184.19c-18.2,26.15-37.05,45-45.28,41.42-11.81-5.12-31.61-21.55-41.19-34.18-2.82-3.71,24.71-25.25,27.72-21.29,3.65,4.8,19.94,21.05,20.43,21.4,1.06.75,23.72-14.6,31.36-18.18C240,169.52,247.93,170.94,238.71,184.19Z" style="fill:#d3766a"></path><path d="M156.94,195.74c-3.52-2.25-15.95-11.9-22.29-20.92-3.08-4.38-10.58-17.88-7.41-20.5s5.73,1.13,5.73,1.13-2.32-6.18,1.12-8.52,7.2,3.62,7.2,3.62-1.91-6.52,1.69-8.61,6.37,4.54,6.37,4.54-2-5.88,1.66-6.35c4.44-.58,7,10.69,10.6,15.35.83,1.06,18.31,20.3,18.31,20.3Z" style="fill:#d3766a"></path><path d="M149.46,146.54c1.87,8.28,4.12,11.58,10,17.49.11.11,0,.31-.16.2-6.32-5.26-9.73-9-10.28-17.62C149,146.19,149.37,146.15,149.46,146.54Z" style="fill:#263238"></path><path d="M141.11,150.25c2.69,8.43,5.1,12,10.83,18.67.09.09-.07.24-.16.15-6.16-6-9.49-9.84-11.07-18.62C140.63,150.05,141,149.86,141.11,150.25Z" style="fill:#263238"></path><path d="M133.22,156.14c3.2,8,5.67,12,12.06,17.76a.16.16,0,0,1-.19.25c-7.09-5.21-10.21-10.26-12.1-17.89C132.86,155.74,133,155.64,133.22,156.14Z" style="fill:#263238"></path><path d="M181.11,175.49s-1-10.59-2.39-15.15-13.08-19.58-16.46-17.25c-4.38,3,.63,13,3.72,17.57,0,0-10.12,7-8.08,14.89S181.11,175.49,181.11,175.49Z" style="fill:#d3766a"></path><path d="M161.33,144.31c-2,5.62,2.43,11.36,5.1,16a.5.5,0,0,1-.31.75c-4.05,3.19-8.83,8.87-8.51,14.31a.12.12,0,0,1-.24,0c-1.14-5.78,3.1-11.74,7.76-15-2.81-4.74-7-10.69-3.86-16.17C161.29,144.26,161.34,144.28,161.33,144.31Z" style="fill:#263238"></path><path d="M219,178.46l14.86,14.3s6.34-8.69,8.93-14.89-1.94-8.81-10.59-5.4A116,116,0,0,0,219,178.46Z" style="fill:#dbdbdb"></path><path d="M235.34,188.36a149.65,149.65,0,0,0-11.05-11.23s-.11,0-.07.07c.95.87,6.73,7.2,11.05,11.24C235.32,188.49,235.39,188.41,235.34,188.36Z" style="fill:#263238"></path><path d="M242.83,177.88c-2.59,6.19-8.93,14.88-8.93,14.88L223,182.24,238.87,171C243,171,244.64,173.55,242.83,177.88Z" style="opacity:0.1"></path><path d="M214.34,243.37l71,8.86s-7.53-34.31-18.22-61.4c-11.45-29-26.95-21.29-32.44-16.67-6.52,5.46-19.42,26.06-20.38,30.06-1.59,6.61,3.92,14.15,3.92,14.15Z" style="fill:#dbdbdb"></path><path d="M240.61,218.48a62.45,62.45,0,0,0-9.07.29c-1.49.19-3,.43-4.44.71-.74.14-1.48.26-2.22.37a9.66,9.66,0,0,1-2.34.13c-.07,0-.08.1,0,.11a16.28,16.28,0,0,0,2.2.25,17.11,17.11,0,0,0,2.15-.12c1.52-.17,3-.41,4.55-.6,3-.37,6.11-.74,9.18-.89C240.76,218.73,240.75,218.48,240.61,218.48Z" style="fill:#263238"></path><path d="M247.65,222.1a65.78,65.78,0,0,0-7.37-1.33c-1.24-.15-2.48-.22-3.73-.27-.59,0-1.19,0-1.79,0s-1.31.08-2,.07c-.07,0-.08.11,0,.11.62,0,1.23.16,1.85.23l1.86.19c1.24.13,2.47.28,3.71.4,2.48.24,5,.51,7.43.83C247.76,222.32,247.78,222.13,247.65,222.1Z" style="fill:#263238"></path><path d="M234.26,172.91S221.2,193.5,222.48,194.5s14.5,2.41,16,1.25,10-21.74,10-21.74Z" style="fill:#d3766a"></path><path d="M248.52,174c-.3,1.29-6.39,9.72-12.29,9.49-1.93-.08-2-10.59-2-10.59l-.18-.78-2.52-10.85,12.71-8.3,1.84-1.1s.49,3,1.07,6.78c0,.17,0,.35.08.53s.08.41.1.61c.1.56.19,1.14.27,1.71s.13.86.18,1.32.11.91.17,1.37A73,73,0,0,1,248.52,174Z" style="fill:#d3766a"></path><path d="M248.5,171c-10.4,3.16-15.7-4.4-15.7-4.4l-1.24-5.35,12.71-8.3,1.84-1.1S248.5,167,248.5,171Z" style="fill:#263238"></path><path d="M257.53,144c2.4,19.41-8.95,23-13.14,23.55-3.8.47-16.79,1.57-21.19-17.49s3.88-26.3,12.51-27.83S255.13,124.6,257.53,144Z" style="fill:#d3766a"></path><path d="M254.82,141.11a12.29,12.29,0,0,1-1.36-.15,2.23,2.23,0,0,1-1.36-.41.72.72,0,0,1-.09-.86,1.77,1.77,0,0,1,1.68-.58,2.56,2.56,0,0,1,1.69.75A.75.75,0,0,1,254.82,141.11Z" style="fill:#263238"></path><path d="M241.37,142.11c.46-.1.87-.26,1.31-.4a2.22,2.22,0,0,0,1.26-.67.71.71,0,0,0-.08-.85,1.74,1.74,0,0,0-1.76-.25,2.56,2.56,0,0,0-1.52,1.05A.75.75,0,0,0,241.37,142.11Z" style="fill:#263238"></path><path d="M244.94,146.67s-.09.07-.09.13c.2,1.33.2,2.89-1,3.48,0,0,0,.08,0,.07C245.37,150,245.34,147.9,244.94,146.67Z" style="fill:#263238"></path><path d="M243.59,145.4c-2.18.09-1.85,4.43.17,4.35S245.41,145.33,243.59,145.4Z" style="fill:#263238"></path><path d="M242.75,145.7c-.36.27-.7.74-1.15.81s-1-.33-1.34-.74c0,0-.07,0-.07.06.05.83.43,1.66,1.34,1.72s1.35-.73,1.49-1.59C243.05,145.81,242.9,145.59,242.75,145.7Z" style="fill:#263238"></path><path d="M252.35,146c0-.05.11.06.11.11.06,1.35.36,2.89,1.61,3.24,0,0,0,.08,0,.08C252.56,149.36,252.19,147.32,252.35,146Z" style="fill:#263238"></path><path d="M253.44,144.54c2.16-.33,2.66,4,.66,4.3S251.64,144.81,253.44,144.54Z" style="fill:#263238"></path><path d="M254.38,144.72c.37.19.75.56,1.17.54s.77-.53,1-1c0-.05.06,0,.07,0,.12.82-.05,1.71-.83,2s-1.32-.41-1.61-1.22C254.14,144.89,254.23,144.64,254.38,144.72Z" style="fill:#263238"></path><path d="M245.23,157.71c.33.31.65.74,1.14.78a3.51,3.51,0,0,0,1.45-.35s.09,0,.06.07a1.84,1.84,0,0,1-1.71.75,1.45,1.45,0,0,1-1.07-1.19C245.08,157.69,245.18,157.66,245.23,157.71Z" style="fill:#263238"></path><path d="M250.55,152.49s.41,2,.47,2.94c0,.09-.22.14-.55.18h0a4.55,4.55,0,0,1-4.49-1.41c-.07-.09.05-.2.14-.14a6.77,6.77,0,0,0,4.19.92c.05-.27-.81-3.39-.66-3.41a8.09,8.09,0,0,1,2.18.35c-.72-4.18-2.11-8.2-2.76-12.37,0-.15.19-.21.24-.08a68.9,68.9,0,0,1,3.55,13.2C252.94,153.21,250.94,152.62,250.55,152.49Z" style="fill:#263238"></path><path d="M250.31,155.17a5.49,5.49,0,0,1-1.95,2,2.5,2.5,0,0,1-1.48.3c-1.12-.14-1.28-1.12-1.19-2a5.89,5.89,0,0,1,.3-1.37A7.14,7.14,0,0,0,250.31,155.17Z" style="fill:#263238"></path><path d="M248.36,157.15a2.5,2.5,0,0,1-1.48.3c-1.12-.14-1.28-1.12-1.19-2A2.55,2.55,0,0,1,248.36,157.15Z" style="fill:#ff9bbc"></path><path d="M224.74,150.66c4.09-.3,3.69-9.69,3.69-9.69s6.84-1.72,9.42-6.61c0,0-1.67,4.2-4.27,6-.44.31,13.52-2,14.18-12.84,0,0,2.72,10.51,9.27,12.29.31.08-1.62-8-4.25-11.09a29.78,29.78,0,0,0-3.72-3.9,20.16,20.16,0,0,0-15-2.9c-8.55,1.79-13.64,11.22-14.07,15C219.17,144.35,222.79,150.81,224.74,150.66Z" style="fill:#263238"></path><path d="M234,140.61c7.64-.82,13.44-6.09,13.59-14a.17.17,0,0,1,.34,0c1.53,7.88-6.7,14.25-14,14.13C233.8,140.74,233.86,140.63,234,140.61Z" style="fill:#263238"></path><path d="M224.73,150.23c4-2.39,4.42-6.61,4.47-10.87,0-.13.21-.14.22,0,.33,4.16-.12,9.3-4.52,11.23A.19.19,0,0,1,224.73,150.23Z" style="fill:#263238"></path><path d="M247.73,125.94a0,0,0,0,1,.08,0c1.21,4.34,1.85,11.74,7.54,12.5a.12.12,0,0,1,0,.23C249.81,138.42,247.42,130.52,247.73,125.94Z" style="fill:#263238"></path><path d="M227.82,150.19s-4.49-5.95-7.2-4.32.82,10.34,4.11,11.43a3.3,3.3,0,0,0,4.36-1.93Z" style="fill:#d3766a"></path><path d="M221.69,148.34a0,0,0,0,0,0,.09c2.31.84,3.59,2.91,4.51,5.07a1.83,1.83,0,0,0-2.75-.4c-.06,0,0,.13.07.12a2,2,0,0,1,2.26.63,10.49,10.49,0,0,1,1.14,1.77c.11.2.47.07.39-.16a.08.08,0,0,1,0-.05C227.23,152.5,224.82,148.52,221.69,148.34Z" style="fill:#263238"></path><g style="opacity:0.9"><path d="M233.69,135.39c2.19-2.64,10.39-5.27,13.49-5.92a27.59,27.59,0,0,1,6.12-.08l.42-1.67a5.25,5.25,0,0,0,1.12-1.15,7.07,7.07,0,0,0-.22-6.73c-2.08-3.5-7.18-3-9.86-4.28s-11.28-3.24-15.35-1.48c-6,2.6-8.67,7.56-10.07,8.66-4.87,3.83-9.77,8.52-10.36,14-.69,6.33,3.33,9.3,3.31,11.8,0,4.61,3.83,10.38,6.66,10.89,2.08.37,3.54-1.11,4.57-1h2.68S223.84,147.34,233.69,135.39Z" style="fill:#FFC727"></path><path d="M253.62,127.25a12.83,12.83,0,0,0-1.94-.55,3.74,3.74,0,0,0,1.06-2.23,15.93,15.93,0,0,0-.33-3.7c0-.14-.24-.11-.21,0a9.09,9.09,0,0,1,.05,3.41,6.61,6.61,0,0,1-1,2.4,11.75,11.75,0,0,0-1.57-.15c.07-.13.13-.26.19-.38a5.08,5.08,0,0,0,.28-.94,4.4,4.4,0,0,0-.06-1.91c0-.13-.23,0-.2.08a3.79,3.79,0,0,1,.07,1.8,4,4,0,0,1-.27.85c-.06.14-.13.26-.2.39l-.07.11H249a31.54,31.54,0,0,0-5.21.71l-1.3.29a2.85,2.85,0,0,0,.26-.65,5.69,5.69,0,0,0-.17-2.65s-.05,0,0,0a5,5,0,0,1,0,2.64,1.72,1.72,0,0,1-.64.79c-.34.08-.68.18-1,.27a2.76,2.76,0,0,1-1.72-1.2,5.24,5.24,0,0,1-1-2.33c0-.14-.24-.12-.22,0a7.26,7.26,0,0,0,.68,2.13,4.47,4.47,0,0,0,1.23,1.68,24,24,0,0,0-4.66,1.93,14.84,14.84,0,0,0-3,2.28,8.18,8.18,0,0,1-1.91-.3,3.94,3.94,0,0,1-1.92-1.28c-.09-.11-.27,0-.18.13a5,5,0,0,0,3.59,1.84,21.74,21.74,0,0,0-2.43,3.07l-.34-.05a4.06,4.06,0,0,1-.85-.21,5.51,5.51,0,0,1-1.6-.86,10,10,0,0,1-2.32-3.09c-.06-.1-.24,0-.18.1a14.19,14.19,0,0,0,2.3,3.46,4.35,4.35,0,0,0,1.63,1.08,3.48,3.48,0,0,0,.95.19h0l-.18.28c-.14.24-.28.49-.43.73a2.29,2.29,0,0,1-1.51.33,3.89,3.89,0,0,1-2.4-1.71c-.09-.12-.26,0-.15.15.74.78,1.5,1.83,2.62,2a2.61,2.61,0,0,0,1-.05,49.07,49.07,0,0,0-3.09,6l-.22-.3a5.85,5.85,0,0,0-1.77-1.44c-.35-.19-.68-.37-1-.53-.12-.06-.21.13-.08.2a5.27,5.27,0,0,1,.94.62c.27.24.54.49.79.75a9.12,9.12,0,0,1,.72.8l.35.43.08.08c-.18.45-.37.89-.52,1.35s-.24.78-.35,1.17l-.42,0a5.5,5.5,0,0,1-.91,0,8.81,8.81,0,0,1-1.85-.2,11.11,11.11,0,0,1-1.77-.5,4.42,4.42,0,0,1-1.64-1.14c-.09-.1-.26,0-.17.13a7.7,7.7,0,0,0,3.28,2.34,5.39,5.39,0,0,0,2,.23,5,5,0,0,0,1.26-.23,22.67,22.67,0,0,0-.67,3.75,29.33,29.33,0,0,0,.37,6c0,.14.24.11.21,0a15.21,15.21,0,0,1,.11-5.21,26.36,26.36,0,0,1,1.2-4.88,55.53,55.53,0,0,1,4.11-8.89c1.56-2.76,3.15-5.39,5.8-7.21a23.86,23.86,0,0,1,8.2-3.32c3.41-.79,7.27-1.56,10.74-.81C253.68,127.5,253.74,127.29,253.62,127.25Z" style="opacity:0.1"></path></g><path d="M261.61,178.16c20.79,22.6,41.13,62.8,35.75,71.94-6,10.19-31-15.32-31.41-17.08-.65-3-10.2-26.31-16-48.21C244.3,163.72,256.46,172.57,261.61,178.16Z" style="fill:#d3766a"></path><g style="opacity:0.30000000000000004"><polygon points="236.41 187.97 231.38 235.19 208.13 234.92 204.17 187.61 236.41 187.97" style="fill:#ebebeb"></polygon><path d="M236.41,188c0,.22-4.82,47.22-4.86,47.41s-23.24-.29-23.42-.22h-.22l0-.22L204,187.62v-.17h.17l32.24.52Zm0,0-32.25-.21.16-.16c-.13-.07,4.47,48.28,3.81,47.09l23.25.31c-.57,1.06,5.19-47.24,5-47Z" style="fill:#263238"></path></g><polygon points="234.5 187.95 229.81 231.91 209.77 231.68 206.08 187.63 234.5 187.95" style="fill:#dbdbdb;opacity:0.4"></polygon><path d="M216.82,220.83a4.17,4.17,0,0,0,7.5,2.41c1.12-1.42,1.3-3.51.33-4.67-.69-.83-2-.93-2.6-1.13s-1.73-.87-2.77-.6C217.81,217.22,216.74,219,216.82,220.83Z" style="fill:#FFC727"></path><path d="M224.32,223.24a4.17,4.17,0,0,1-7.5-2.41,4.47,4.47,0,0,1,1-3.07,3.89,3.89,0,0,0-.78,2.53,3.65,3.65,0,1,0,6.81-2,2.44,2.44,0,0,0-1.3-.74,3.53,3.53,0,0,1,2.06,1C225.62,219.73,225.44,221.82,224.32,223.24Z" style="opacity:0.1"></path><path d="M222.59,217.58l-.48-.12Z" style="fill:#FFC727"></path><path d="M217,219.28a3.2,3.2,0,0,1,2.14-2.11,5,5,0,0,1,2.75.58,5.2,5.2,0,0,1,2.63,1.15,3.25,3.25,0,0,1,.51,3,3.48,3.48,0,0,0-.41-3.29c-.69-.83-2-.93-2.6-1.13s-1.73-.87-2.77-.6A3.49,3.49,0,0,0,217,219.28Z" style="fill:#fff;opacity:0.30000000000000004"></path><path d="M219.76,217.56c.23.93-1.23,3.52-1.68,3.29s-.56-1.73-.35-2.35C218,217.65,219.61,217,219.76,217.56Z" style="fill:#fff;opacity:0.2"></path><path d="M224.44,221.35c-.68-.25-1.81-2.44-1.36-2.65s1.36.38,1.56.8C224.9,220.07,224.89,221.51,224.44,221.35Z" style="fill:#fff;opacity:0.2"></path><path d="M219.6,217.65a1.43,1.43,0,0,1-1,1.54.66.66,0,0,1-.5-.88C218.29,217.68,219.47,217.21,219.6,217.65Z" style="fill:#fff;opacity:0.5"></path><path d="M218.66,219.51c.1.27-.34.57-.54.53a.45.45,0,0,1-.25-.52C218,219.28,218.59,219.33,218.66,219.51Z" style="fill:#fff;opacity:0.5"></path><path d="M219.88,223.59a4.93,4.93,0,0,0,3.19-1.14,6.48,6.48,0,0,0,.8-.85,3.4,3.4,0,0,1-4,2Z" style="opacity:0.1"></path><path d="M219.32,201.79a4.17,4.17,0,0,0,7.43-2.61c0-1.82-1.09-3.58-2.57-3.92-1.05-.25-2.12.45-2.75.67s-1.9.35-2.57,1.2C217.92,198.32,218.16,200.4,219.32,201.79Z" style="fill:#FFC727"></path><path d="M226.75,199.18a4.17,4.17,0,0,1-7.43,2.61,4.42,4.42,0,0,1-1-3.07,3.93,3.93,0,0,0,.9,2.49,3.63,3.63,0,0,0,6.47-2.28,3.38,3.38,0,0,0-2.23-3.41,2.49,2.49,0,0,0-1.48.19,3.57,3.57,0,0,1,2.23-.45C225.66,195.6,226.78,197.36,226.75,199.18Z" style="opacity:0.1"></path><path d="M221.94,195.72l-.45.19Z" style="fill:#FFC727"></path><path d="M218.55,200.44a3.22,3.22,0,0,1,.42-3,5.18,5.18,0,0,1,2.54-1.21,5.31,5.31,0,0,1,2.79-.67,3.23,3.23,0,0,1,2.2,2,3.49,3.49,0,0,0-2.32-2.37c-1.05-.25-2.12.45-2.75.67s-1.9.35-2.57,1.2A3.5,3.5,0,0,0,218.55,200.44Z" style="fill:#fff;opacity:0.30000000000000004"></path><path d="M219.68,197.41c.75.6,1.15,3.56.65,3.64s-1.49-1-1.7-1.66C218.34,198.54,219.2,197,219.68,197.41Z" style="fill:#fff;opacity:0.2"></path><path d="M225.7,197.6c-.69.21-2.92-.85-2.68-1.29s1.31-.52,1.72-.3S226.15,197.46,225.7,197.6Z" style="fill:#fff;opacity:0.2"></path><path d="M223.56,195.52c-.72.2-1.31.73-2,1-.5.16-1.12.2-1.64.34a2.62,2.62,0,0,0-.53.2c.56-.09,1.12-.07,1.69-.14,1-.07,1.69-.87,2.48-1.39Z" style="fill:#fff;opacity:0.30000000000000004"></path><path d="M219.61,197.58a1.44,1.44,0,0,1,.14,1.83.66.66,0,0,1-.93-.4C218.58,198.4,219.24,197.31,219.61,197.58Z" style="fill:#fff;opacity:0.5"></path><path d="M220,199.63c.25.15.08.66-.1.75a.45.45,0,0,1-.52-.27C219.29,199.87,219.82,199.53,220,199.63Z" style="fill:#fff;opacity:0.5"></path><path d="M223.42,202.14a4.86,4.86,0,0,0,1.85-2.84,7.22,7.22,0,0,0,.13-1.16,3.4,3.4,0,0,1-2,4Z" style="opacity:0.1"></path><path d="M222.31,228.47a4.17,4.17,0,0,0,7.43-2.61c0-1.82-1.09-3.58-2.57-3.92-1-.25-2.12.45-2.75.67s-1.9.35-2.57,1.2A3.92,3.92,0,0,0,222.31,228.47Z" style="fill:#FFC727"></path><path d="M229.74,225.86a4.17,4.17,0,0,1-7.43,2.61,4.47,4.47,0,0,1-1-3.07,3.93,3.93,0,0,0,.9,2.49,3.63,3.63,0,0,0,6.47-2.28,3.38,3.38,0,0,0-2.23-3.41,2.49,2.49,0,0,0-1.48.19,3.57,3.57,0,0,1,2.23-.45C228.65,222.28,229.77,224,229.74,225.86Z" style="opacity:0.1"></path><path d="M224.93,222.4l-.45.19Z" style="fill:#FFC727"></path><path d="M221.54,227.12a3.2,3.2,0,0,1,.43-3,5.11,5.11,0,0,1,2.53-1.21,5.31,5.31,0,0,1,2.79-.67,3.23,3.23,0,0,1,2.2,2.05,3.49,3.49,0,0,0-2.32-2.37c-1-.25-2.12.45-2.75.67s-1.9.35-2.57,1.2A3.5,3.5,0,0,0,221.54,227.12Z" style="fill:#fff;opacity:0.30000000000000004"></path><path d="M222.67,224.09c.75.6,1.15,3.56.65,3.64s-1.49-1-1.7-1.66C221.33,225.22,222.19,223.7,222.67,224.09Z" style="fill:#fff;opacity:0.2"></path><path d="M228.69,224.28c-.69.21-2.92-.85-2.68-1.29s1.31-.52,1.72-.3S229.14,224.14,228.69,224.28Z" style="fill:#fff;opacity:0.2"></path><path d="M226.55,222.2c-.72.2-1.31.73-2,1-.5.16-1.12.2-1.63.34a2.49,2.49,0,0,0-.54.2c.56-.09,1.12-.07,1.69-.14,1-.07,1.69-.87,2.48-1.39Z" style="fill:#fff;opacity:0.30000000000000004"></path><path d="M222.6,224.26a1.44,1.44,0,0,1,.14,1.83.66.66,0,0,1-.93-.4C221.57,225.08,222.23,224,222.6,224.26Z" style="fill:#fff;opacity:0.5"></path><path d="M223,226.31c.25.16.08.66-.1.75a.45.45,0,0,1-.52-.27C222.29,226.55,222.81,226.21,223,226.31Z" style="fill:#fff;opacity:0.5"></path><path d="M226.41,228.82a4.86,4.86,0,0,0,1.85-2.84,7.22,7.22,0,0,0,.13-1.16,3.4,3.4,0,0,1-2,4Z" style="opacity:0.1"></path><path d="M210.21,205.85a4.17,4.17,0,0,0,7.5,2.41c1.12-1.43,1.3-3.51.33-4.68-.69-.83-2-.92-2.6-1.13s-1.73-.87-2.77-.6A3.93,3.93,0,0,0,210.21,205.85Z" style="fill:#FFC727"></path><path d="M217.71,208.26a4.17,4.17,0,0,1-7.5-2.41,4.47,4.47,0,0,1,1-3.07,3.85,3.85,0,0,0-.78,2.52,3.62,3.62,0,0,0,6.52,2.1,3.4,3.4,0,0,0,.29-4.07,2.51,2.51,0,0,0-1.3-.74,3.62,3.62,0,0,1,2.06,1C219,204.75,218.83,206.83,217.71,208.26Z" style="opacity:0.1"></path><path d="M216,202.59l-.48-.12Z" style="fill:#FFC727"></path><path d="M210.42,204.29a3.22,3.22,0,0,1,2.14-2.11,5.17,5.17,0,0,1,2.75.58,5.42,5.42,0,0,1,2.63,1.15,3.27,3.27,0,0,1,.51,3,3.5,3.5,0,0,0-.41-3.3c-.69-.83-2-.92-2.6-1.13s-1.73-.87-2.77-.6A3.51,3.51,0,0,0,210.42,204.29Z" style="fill:#fff;opacity:0.30000000000000004"></path><path d="M213.15,202.57c.23.94-1.23,3.53-1.69,3.29s-.55-1.72-.34-2.35C211.4,202.66,213,202,213.15,202.57Z" style="fill:#fff;opacity:0.2"></path><path d="M217.83,206.36c-.68-.25-1.81-2.43-1.36-2.64s1.36.38,1.55.79C218.29,205.08,218.27,206.53,217.83,206.36Z" style="fill:#fff;opacity:0.2"></path><path d="M213,202.67c.2.67-.62,1.58-1,1.53a.65.65,0,0,1-.5-.87C211.68,202.69,212.86,202.22,213,202.67Z" style="fill:#fff;opacity:0.5"></path><path d="M212.05,204.52c.1.27-.34.57-.54.53a.44.44,0,0,1-.25-.52C211.36,204.3,212,204.35,212.05,204.52Z" style="fill:#fff;opacity:0.5"></path><path d="M213.27,208.6a4.87,4.87,0,0,0,3.19-1.14,6.48,6.48,0,0,0,.8-.85,3.39,3.39,0,0,1-4,2Z" style="opacity:0.1"></path><path d="M233.47,197.61l-3.66,34.3-20-.23-3-36.26c7.32-.45,12.94,1.85,17.5,2.43A42.28,42.28,0,0,0,233.47,197.61Z" style="fill:#FFC727;opacity:0.6000000000000001"></path><path d="M217.2,221.36a.36.36,0,0,0,0-.72A.36.36,0,0,0,217.2,221.36Z" style="fill:#FFC727"></path><path d="M229.14,200.8a.54.54,0,0,0,.05.11.16.16,0,0,0,.28,0l.06-.11C229.74,200.38,228.94,200.37,229.14,200.8Z" style="fill:#FFC727"></path><path d="M214.12,219.12a.28.28,0,0,0,0-.55A.28.28,0,0,0,214.12,219.12Z" style="fill:#FFC727"></path><path d="M226.31,227.26a.28.28,0,0,0,0-.55A.28.28,0,0,0,226.31,227.26Z" style="fill:#FFC727"></path><path d="M230.22,217.05a.28.28,0,0,0,0-.55A.28.28,0,0,0,230.22,217.05Z" style="fill:#FFC727"></path><path d="M209.93,206.38a.28.28,0,0,0,0-.55A.28.28,0,0,0,209.93,206.38Z" style="fill:#FFC727"></path><path d="M222.88,209.94a.28.28,0,0,0,0-.56A.28.28,0,0,0,222.88,209.94Z" style="fill:#FFC727"></path><path d="M211.76,196.8a.28.28,0,0,0,0-.55A.28.28,0,0,0,211.76,196.8Z" style="fill:#FFC727"></path><path d="M229.5,219.52a.38.38,0,0,0,.54,0,.55.55,0,0,0,.14-.52.42.42,0,0,0-.8,0A.52.52,0,0,0,229.5,219.52Z" style="fill:#FFC727"></path><path d="M212.6,229a.38.38,0,0,0,.54,0,.52.52,0,0,0,.13-.52.42.42,0,0,0-.8,0A.52.52,0,0,0,212.6,229Z" style="fill:#FFC727"></path><path d="M216.11,201.14a.38.38,0,0,0,.54,0,.52.52,0,0,0,.13-.52.42.42,0,0,0-.8,0A.54.54,0,0,0,216.11,201.14Z" style="fill:#FFC727"></path><path d="M209,207.91a.39.39,0,0,0,.54,0,.56.56,0,0,0,.14-.52.42.42,0,0,0-.81,0A.53.53,0,0,0,209,207.91Z" style="fill:#FFC727"></path><path d="M222,205.06c.08,0,2.93.88,3.13.91s2.21.62,2.25.63.83,1.49.9,1.59,1.07,1.87,1.09,2-1.22,2.31-1.4,2.8a21.63,21.63,0,0,1-1.8,3.11c-.17.06-2.6-.76-3-.85s-2.7-.54-2.83-.65-.77-2-.94-2.36-.91-1.69-.79-1.93,1.07-1.85,1.37-2.23S221.77,205.1,222,205.06Z" style="fill:#fff;opacity:0.2"></path><path d="M219.45,210.75c0-.06,2.63.75,2.88.79a17.41,17.41,0,0,1,2.35.48,14.2,14.2,0,0,1,.63,1.53,14.2,14.2,0,0,1,.91,2c-.07.11-2.62-.68-3-.72a7.63,7.63,0,0,1-2.5-.69c-.23-.3-.47-1.51-.74-2.08S219.45,210.75,219.45,210.75Z" style="fill:#fff;opacity:0.30000000000000004"></path><path d="M221.51,206.66c0,.05-1.58,2.71-1.58,2.71s.88-.38.92-.62.1-.52.1-.52.79,0,.79-.28A12.79,12.79,0,0,0,221.51,206.66Z" style="fill:#fff;opacity:0.6000000000000001"></path><path d="M223.28,206.13c.06-.14,1,.3,1.29.32s2.18.28,2.36.33a1.26,1.26,0,0,1,.5.59,3.51,3.51,0,0,0-.9-.07c-.35,0-.77.68-.93.58s-.42-.6-.66-.64-.5.26-.67.13-.51-.22-.6-.37A8.77,8.77,0,0,1,223.28,206.13Z" style="fill:#fff;opacity:0.6000000000000001"></path><path d="M221.9,205.64a19,19,0,0,0,1.21,2.52c.09,0,.06-.28,0-.37s-.69-2.06-.79-2.21S221.85,205.3,221.9,205.64Z" style="fill:#fff;opacity:0.6000000000000001"></path><path d="M224.25,214.89c.1-.13,1.1.33,1.46.26s1.33-2.16,1.42-2.32.32-.39.35-.19a26.81,26.81,0,0,1-1.14,2.6,1.71,1.71,0,0,1-.55.52,2,2,0,0,1-.73-.19C224.89,215.49,224.09,215.08,224.25,214.89Z" style="fill:#fff;opacity:0.6000000000000001"></path><path d="M220.77,214a10.88,10.88,0,0,0,1.25-1.66,8.7,8.7,0,0,0,.95-1.56,14,14,0,0,1,.69-1.91,21.83,21.83,0,0,1,2.52.8,11.22,11.22,0,0,0,1.92.59c.28,0,.68,0,.67-.09s-1.67-.51-2.08-.69a27.53,27.53,0,0,0-3.13-1,21.55,21.55,0,0,0-.93,2.13c-.06.2-.74,1.13-.81,1.28A11.86,11.86,0,0,0,220.77,214Z" style="fill:#fff;opacity:0.30000000000000004"></path><path d="M217.87,218.21c-.07,0-2.7.34-2.87.33s-2,.36-2.06.37-.95,1-1,1.12a20.08,20.08,0,0,0-1.25,1.6c0,.13.73,2.2.82,2.66a18.78,18.78,0,0,0,1.12,3c.13.07,2.39-.29,2.7-.31s2.45-.08,2.58-.16.92-1.68,1.13-2,1.05-1.18,1-1.41-.62-1.85-.83-2.23S218.05,218.28,217.87,218.21Z" style="fill:#fff;opacity:0.2"></path><path d="M219.58,223.43c0-.05-2.74.4-3,.4a14.78,14.78,0,0,0-2.13.08,41.28,41.28,0,0,1-1.85,2.83c0,.1,2.39-.22,2.75-.19a6.84,6.84,0,0,0,2.29-.24c.25-.22.64-1.25,1-1.71A14.21,14.21,0,0,1,219.58,223.43Z" style="fill:#fff;opacity:0.30000000000000004"></path><path d="M218.05,219.68s1,2.61,1,2.61-.71-.47-.71-.68,0-.47,0-.47-.69-.15-.65-.37A9.56,9.56,0,0,1,218.05,219.68Z" style="fill:#fff;opacity:0.6000000000000001"></path><path d="M216.82,218.72c0-.13-.94.21-1.23.21s-2,.14-2.21.17a9,9,0,0,0-1.65,1.72,1.91,1.91,0,0,0,.5-.16c.21-.12.75-.46,1-.59a3.13,3.13,0,0,1,.61-.37c.32.07.62.53.78.45s.41-.51.65-.53.45.25.61.15.48-.18.58-.3A7.93,7.93,0,0,0,216.82,218.72Z" style="fill:#fff;opacity:0.6000000000000001"></path><path d="M214.44,226.48c-.07-.13-1,.13-1.32,0s-.85-2.09-.9-2.24-.22-.38-.27-.21a22.3,22.3,0,0,0,.61,2.44,1.61,1.61,0,0,0,.4.53,1.76,1.76,0,0,0,.67,0C213.79,226.92,214.55,226.67,214.44,226.48Z" style="fill:#fff;opacity:0.6000000000000001"></path><path d="M215.83,221.63c-.07.09,1.64,4.78,1.84,4.68s-.79-2.65-.89-2.89S216,221.45,215.83,221.63Z" style="fill:#fff;opacity:0.6000000000000001"></path><path d="M211.13,222c.21,0,4.36-.32,4.44-.37s2.2-2.92,2.2-3-.2-.06-.26,0-2,2.5-2.11,2.56-4,.6-4.08.6S211,222,211.13,222Z" style="fill:#fff;opacity:0.30000000000000004"></path><path d="M218.15,199.71c-.05-.06-2.64-1-2.8-1.11s-2-.66-2.06-.68-1.39.49-1.5.52-1.84.76-1.94.85-.42,2.38-.57,2.84a20.08,20.08,0,0,0-.45,3.3c.09.13,2.33.92,2.64,1s2.27,1.14,2.44,1.13,1.67-1.09,2-1.29,1.54-.56,1.59-.81.34-2,.34-2.45S218.28,199.87,218.15,199.71Z" style="fill:#fff;opacity:0.2"></path><path d="M217.14,205.35c0-.06-2.72-1-2.92-1.1a15.23,15.23,0,0,0-2-1,11.88,11.88,0,0,0-1.33.76,11.5,11.5,0,0,0-1.77.92c0,.11,2.29,1,2.62,1.18a7,7,0,0,0,2.21.92c.34-.09,1.21-.83,1.73-1.1A13.94,13.94,0,0,1,217.14,205.35Z" style="fill:#fff;opacity:0.30000000000000004"></path><path d="M217.59,201.15c0,.07-.39,2.88-.39,2.88s-.42-.78-.32-1l.23-.43s-.56-.48-.42-.66A12,12,0,0,1,217.59,201.15Z" style="fill:#fff;opacity:0.6000000000000001"></path><path d="M216.93,199.66c0-.14-1-.26-1.22-.41s-1.94-.88-2.12-.93a9.51,9.51,0,0,0-2.36.75,1.64,1.64,0,0,0,.53.1c.26,0,.92,0,1.17-.07a3.74,3.74,0,0,1,.74,0c.26.23.31.8.49.8s.64-.26.86-.17.29.46.49.45.53.08.68,0A7.87,7.87,0,0,0,216.93,199.66Z" style="fill:#fff;opacity:0.6000000000000001"></path><path d="M210.92,205.6c0-.14-1-.38-1.22-.63s.26-2.34.29-2.5,0-.47-.15-.34a23.13,23.13,0,0,0-.65,2.54,1.69,1.69,0,0,0,.11.7,1.9,1.9,0,0,0,.64.27C210.11,205.69,210.92,205.84,210.92,205.6Z" style="fill:#fff;opacity:0.6000000000000001"></path><path d="M214.59,201.84a28.5,28.5,0,0,0-.63,5.21c.22,0,.59-2.82.62-3.09S214.82,201.75,214.59,201.84Z" style="fill:#fff;opacity:0.6000000000000001"></path><path d="M210.1,199.85c.2.09,4.15,1.87,4.26,1.86s3.46-1.59,3.51-1.69-.15-.16-.26-.11-3.05,1.31-3.2,1.31-3.94-1.42-4-1.47S210,199.79,210.1,199.85Z" style="fill:#fff;opacity:0.30000000000000004"></path><path d="M231.22,215.51c-.05-.06-2.65-1-2.81-1.11s-2-.67-2.06-.68-1.39.48-1.5.51-1.84.76-1.94.86-.41,2.38-.56,2.84a20,20,0,0,0-.45,3.29c.08.14,2.33.92,2.63,1.05s2.28,1.15,2.44,1.14,1.68-1.09,2-1.29,1.55-.57,1.59-.81a23.62,23.62,0,0,0,.34-2.46C230.93,218.4,231.35,215.66,231.22,215.51Z" style="fill:#fff;opacity:0.2"></path><path d="M230.2,221.15c0-.06-2.71-1-2.91-1.1a14.25,14.25,0,0,0-2-1c-.18,0-1.08.65-1.32.76a13.77,13.77,0,0,0-1.78.92c0,.12,2.3,1,2.62,1.19a7.32,7.32,0,0,0,2.21.92c.34-.09,1.21-.84,1.73-1.1A15,15,0,0,1,230.2,221.15Z" style="fill:#fff;opacity:0.30000000000000004"></path><path d="M230.66,217c0,.06-.39,2.88-.39,2.88s-.43-.79-.32-1l.22-.43s-.55-.48-.41-.66A10.26,10.26,0,0,1,230.66,217Z" style="fill:#fff;opacity:0.6000000000000001"></path><path d="M230,215.46c0-.14-1-.27-1.23-.41s-1.94-.88-2.12-.94a10.07,10.07,0,0,0-2.36.76,1.65,1.65,0,0,0,.54.1c.26,0,.91-.05,1.17-.07a3.72,3.72,0,0,1,.74,0c.25.22.31.79.49.8s.63-.26.86-.17.28.45.49.44a3.16,3.16,0,0,0,.68,0C229.41,215.88,230,215.46,230,215.46Z" style="fill:#fff;opacity:0.6000000000000001"></path><path d="M224,221.4c0-.15-1-.38-1.21-.64s.25-2.33.28-2.5,0-.46-.15-.33a22.49,22.49,0,0,0-.64,2.54,1.61,1.61,0,0,0,.1.69,1.72,1.72,0,0,0,.64.28C223.17,221.48,224,221.63,224,221.4Z" style="fill:#fff;opacity:0.6000000000000001"></path><path d="M227.66,217.64a27.48,27.48,0,0,0-.64,5.21c.23,0,.59-2.83.62-3.09S227.88,217.55,227.66,217.64Z" style="fill:#fff;opacity:0.6000000000000001"></path><path d="M223.16,215.64c.21.09,4.16,1.87,4.27,1.86s3.45-1.59,3.51-1.69-.16-.15-.26-.1-3.05,1.31-3.2,1.31-3.95-1.42-4-1.47S223,215.59,223.16,215.64Z" style="fill:#fff;opacity:0.30000000000000004"></path><polygon points="231.85 187.92 226.81 233.78 212.71 234.98 231.38 235.19 236.41 187.97 231.85 187.92" style="opacity:0.1"></polygon><g style="opacity:0.5"><polygon points="207.14 187.64 210.89 187.69 214.47 235 211.07 234.96 207.14 187.64" style="fill:#fff"></polygon><polygon points="212.08 187.7 213.54 187.72 216.8 235.02 215.62 235.01 212.08 187.7" style="fill:#fff"></polygon></g><path d="M295.17,251.85c-4.25,2.62-17.84,2.66-41.56-8.49-4.21-2,.6-35.46,5.26-33.73,5.87,2.18,19.94,10.56,21.48,11.48C293.35,228.84,300.07,248.84,295.17,251.85Z" style="fill:#d3766a"></path><path d="M266.63,214.87S256.66,206,250,203c-8.95-4.07-18.35-3.91-22.29-3.6-8.22.64-27.64,7.88-26.53,13.84,1,5.39,20.48-3,20.48-3s-21.27,5.29-18.87,11.56S227.23,217,227.23,217s-21.74,5.92-18.24,12c2.65,4.59,23.19-4.28,23.19-4.28s-18.65,5.22-16.13,10.06c2.78,5.34,22.25-1.65,22.25-1.65,8.47,11.22,17.09,13.1,23.38,13.71C263.2,247,266.63,214.87,266.63,214.87Z" style="fill:#d3766a"></path><path d="M228.88,207.88c-2.52.53-5.07,1.05-7.54,1.8s-4.91,1.6-7.29,2.58a43.62,43.62,0,0,0-8.92,4.69c5.19-3,14-5.84,16.44-6.6s4.88-1.62,7.34-2.37C229,208,228.94,207.87,228.88,207.88Z" style="fill:#263238"></path><path d="M231.76,216.74c-3.19.81-6.39,1.51-9.54,2.46s-6,2.14-9.1,3.3c-.24.09-.11.19.13.11,3.11-1,6.06-1.77,9.19-2.78s6.2-2.13,9.35-3C231.84,216.8,231.81,216.72,231.76,216.74Z" style="fill:#263238"></path><path d="M235.6,223.89a73.82,73.82,0,0,0-14.3,4.89c-.23.1-.06.21.18.12,4.73-1.72,8.42-3.1,14.15-4.84C235.72,224,235.7,223.87,235.6,223.89Z" style="fill:#263238"></path><path d="M292.83,235.33a41.83,41.83,0,0,0-13.38-14.54c-5.66-3.49-11.71-6.39-17.66-9.36-13.73-14.1-37.6-15.15-54-5.21a21.4,21.4,0,0,0-5.48,4.67,3.6,3.6,0,0,0-.9,2c1,3.07,6.08,1.78,8.43,1.14l.12.3c-2.32,1.21-7.88,3.83-7.29,6.93-.71-3.14,4.85-6,7.16-7.23l.12.3c-2.68.81-8,2.27-9.09-1.39a4,4,0,0,1,1-2.42,21.83,21.83,0,0,1,5.57-4.92c16.42-10.56,41.69-9,54.8,5,6,3,11.93,6.07,17.59,9.67a40.59,40.59,0,0,1,13.07,15Z" style="fill:#263238"></path><path d="M270,185.22l-18.78,8.52s-3.08-10.3-3.45-17,4.77-7.66,11.78-1.56A115,115,0,0,1,270,185.22Z" style="fill:#dbdbdb"></path><path d="M251.37,189.12a148.75,148.75,0,0,1,14.17-6.9s.09.06,0,.09c-1.18.5-8.73,4.55-14.16,6.91A.05.05,0,0,1,251.37,189.12Z" style="fill:#263238"></path><path d="M252.49,193.18c-.43.31-.89.57-1.33.85a34.3,34.3,0,0,1-2-8.71,34.37,34.37,0,0,1,2.33,8.37l-.27-.12c.44-.13.86-.28,1.31-.39Z" style="fill:#263238"></path><path d="M248.58,186.85c.69,1.06,1.06,2.1,1.71,3.17a3.53,3.53,0,0,1-1.71-3.17Z" style="fill:#263238"></path></g><g id="freepik--Table--inject-26"><rect x="309.65" y="286.21" width="96.12" height="8.92" style="fill:#455a64"></rect><rect x="405.77" y="286.21" width="14.58" height="8.92" transform="translate(826.12 581.35) rotate(180)" style="fill:#37474f"></rect><rect x="322.68" y="295.14" width="70.06" height="24.61" style="fill:#455a64"></rect><rect x="392.74" y="295.14" width="20.32" height="24.61" transform="translate(805.8 614.89) rotate(180)" style="fill:#37474f"></rect><polygon points="392.74 300 322.68 302.38 322.68 295.14 392.74 295.14 392.74 300" style="opacity:0.2"></polygon><path d="M380.47,315.1H335V299.79h45.52Zm-44.52-1h43.52V300.79H336Z" style="fill:#37474f"></path><polygon points="321.71 461.3 317.74 461.3 329.3 319.75 339.44 319.75 321.71 461.3" style="fill:#455a64"></polygon><polygon points="339.44 319.75 338.25 329.23 328.53 329.23 329.3 319.75 339.44 319.75" style="opacity:0.2"></polygon><polygon points="393.71 461.3 397.69 461.3 386.12 319.75 375.98 319.75 393.71 461.3" style="fill:#455a64"></polygon><polygon points="375.98 319.75 377.17 329.23 386.89 329.23 386.12 319.75 375.98 319.75" style="opacity:0.2"></polygon><polygon points="339.43 461.3 335.45 461.3 347.02 319.75 357.16 319.75 339.43 461.3" style="fill:#455a64"></polygon><polygon points="357.16 319.75 355.97 329.23 346.25 329.23 347.02 319.75 357.16 319.75" style="opacity:0.2"></polygon><polygon points="411.43 461.3 415.4 461.3 403.84 319.75 393.7 319.75 411.43 461.3" style="fill:#455a64"></polygon><polygon points="393.7 319.75 394.88 329.23 404.61 329.23 403.84 319.75 393.7 319.75" style="opacity:0.2"></polygon></g><g id="freepik--character-2--inject-26"><polygon points="572.04 341.44 620.68 341.44 645.63 202.66 601.09 182.2 572.04 341.44" style="fill:#FFC727"></polygon><g style="opacity:0.4"><polygon points="572.04 341.44 620.68 341.44 645.63 202.66 601.09 182.2 572.04 341.44"></polygon></g><polygon points="440.76 341.44 572.04 341.44 601.09 182.2 469.81 182.2 440.76 341.44" style="fill:#FFC727"></polygon><polygon points="440.76 341.44 572.04 341.44 601.09 182.2 469.81 182.2 440.76 341.44" style="opacity:0.2"></polygon><rect x="406.27" y="341.44" width="151.07" height="78.49" transform="translate(963.61 761.36) rotate(180)" style="fill:#FFC727"></rect><rect x="406.27" y="341.44" width="151.07" height="78.49" transform="translate(963.61 761.36) rotate(180)" style="opacity:0.2"></rect><rect x="406.27" y="307.51" width="151.07" height="34.25" transform="translate(963.61 649.26) rotate(180)" style="fill:#FFC727"></rect><rect x="406.27" y="307.51" width="151.07" height="34.25" transform="translate(963.61 649.26) rotate(180)" style="opacity:0.2"></rect><polygon points="406.27 419.92 426.63 419.92 456.98 252.51 406.27 252.51 406.27 419.92" style="fill:#FFC727"></polygon><g style="opacity:0.4"><polygon points="406.27 419.92 426.63 419.92 456.98 252.51 406.27 252.51 406.27 419.92"></polygon></g><rect x="365.31" y="252.51" width="40.96" height="167.41" transform="translate(771.58 672.44) rotate(180)" style="fill:#FFC727"></rect><rect x="365.31" y="252.51" width="40.96" height="167.41" transform="translate(771.58 672.44) rotate(180)" style="opacity:0.2"></rect><rect x="598.3" y="252.51" width="74.54" height="167.41" transform="translate(1271.14 672.44) rotate(180)" style="fill:#FFC727"></rect><g style="opacity:0.4"><rect x="598.3" y="252.51" width="74.54" height="167.41" transform="translate(1271.14 672.44) rotate(180)"></rect></g><rect x="557.34" y="252.51" width="40.96" height="167.41" transform="translate(1155.64 672.44) rotate(180)" style="fill:#FFC727"></rect><rect x="557.34" y="252.51" width="40.96" height="167.41" transform="translate(1155.64 672.44) rotate(180)" style="opacity:0.2"></rect><path d="M588.26,252.51l-15.46-.27-15.46-.19h-.46v.47l-.17,17.9-.07,32.36c0,11.94-.08,23.87,0,35.8s0,23.87.2,35.8.27,23.87.52,35.8q.38-17.9.52-35.8c.15-11.93.17-23.86.2-35.8s0-23.86,0-35.8L558,270.41l-.17-17.9-.47.47,15.46-.19Z" style="fill:#263238"></path><path d="M406.27,252.51c-.32,12-.47,38.42-.6,50.4l-.18,35.93.18,35.93.22,18,.38,18,.37-18,.22-18,.18-35.93-.18-35.93C406.73,290.93,406.58,264.49,406.27,252.51Z" style="fill:#263238"></path><path d="M406.27,341.44c13.25.32,26.5.46,39.75.59l39.75.18,31.82-.18,19.88-.21,19.87-.38-19.87-.38-19.88-.22-31.82-.17-39.75.18C432.77,341,419.52,341.12,406.27,341.44Z" style="fill:#263238"></path><path d="M406.27,307.51c13.25.31,26.5.46,39.75.59l39.75.18,31.82-.18,19.88-.22,19.87-.37-19.87-.38-19.88-.22-31.82-.18-39.75.18C432.77,307,419.52,307.19,406.27,307.51Z" style="fill:#263238"></path><polygon points="644.51 419.92 645.52 432.31 647.87 460.94 658.67 460.94 661.02 432.31 662.03 419.92 644.51 419.92" style="fill:#c7c7c7"></polygon><polygon points="662.03 419.92 644.51 419.92 645.52 432.31 661.02 432.31 662.03 419.92" style="fill:#a6a6a6"></polygon><polygon points="569.06 419.92 570.07 432.31 572.42 460.94 583.22 460.94 585.57 432.31 586.58 419.92 569.06 419.92" style="fill:#c7c7c7"></polygon><polygon points="586.58 419.92 569.06 419.92 570.07 432.31 585.57 432.31 586.58 419.92" style="fill:#a6a6a6"></polygon><polygon points="451.84 419.92 452.85 432.31 455.2 460.94 466 460.94 468.35 432.31 469.36 419.92 451.84 419.92" style="fill:#c7c7c7"></polygon><polygon points="469.36 419.92 451.84 419.92 452.85 432.31 468.35 432.31 469.36 419.92" style="fill:#a6a6a6"></polygon><polygon points="376.37 419.92 377.38 432.31 379.73 460.94 390.53 460.94 392.88 432.31 393.89 419.92 376.37 419.92" style="fill:#c7c7c7"></polygon><polygon points="376.37 419.92 377.38 432.31 392.88 432.31 393.89 419.92 376.37 419.92" style="fill:#a6a6a6"></polygon><g style="opacity:0.2"><path d="M583.72,250.18a.8.8,0,0,1,0,1.59A.8.8,0,0,1,583.72,250.18Z"></path><path d="M582.36,347.56a.8.8,0,0,1,0,1.59A.8.8,0,0,1,582.36,347.56Z"></path><path d="M629,201.6c0-.08.08-.16.12-.24a.36.36,0,0,1,.62,0,1.34,1.34,0,0,1,.12.24C630.3,202.54,628.54,202.54,629,201.6Z"></path><path d="M616.18,349.57a1.79,1.79,0,0,1,.12-.24.36.36,0,0,1,.62,0,1.79,1.79,0,0,1,.12.24C617.49,350.51,615.73,350.51,616.18,349.57Z"></path><path d="M576.88,255a.61.61,0,0,1,0,1.21A.61.61,0,0,1,576.88,255Z"></path><path d="M471.53,372.28a.8.8,0,0,1,0,1.59A.8.8,0,0,1,471.53,372.28Z"></path><path d="M540.76,392.52a.61.61,0,0,1,0,1.22A.61.61,0,0,1,540.76,392.52Z"></path><path d="M628,316.76a.61.61,0,0,1,0,1.22A.61.61,0,0,1,628,316.76Z"></path><path d="M548.18,221.12a.84.84,0,0,1,1.19,0,1.14,1.14,0,0,1,.29,1.14.92.92,0,0,1-1.77,0A1.19,1.19,0,0,1,548.18,221.12Z"></path><path d="M575.7,343.06a.84.84,0,0,1,1.19,0,1.2,1.2,0,0,1,.29,1.15.93.93,0,0,1-1.77,0A1.16,1.16,0,0,1,575.7,343.06Z"></path><path d="M652.68,394.29a.83.83,0,0,1,1.18,0,1.16,1.16,0,0,1,.29,1.15.92.92,0,0,1-1.76,0A1.16,1.16,0,0,1,652.68,394.29Z"></path><path d="M426,351.27a.8.8,0,0,1,0-1.6A.8.8,0,0,1,426,351.27Z"></path><path d="M465.56,245a.8.8,0,0,1,0-1.59A.8.8,0,0,1,465.56,245Z"></path><path d="M391.44,343.75a1.34,1.34,0,0,1-.12.24.36.36,0,0,1-.62,0l-.12-.24C390.13,342.81,391.9,342.81,391.44,343.75Z"></path><path d="M381.86,275.89l-.12.23a.36.36,0,0,1-.62,0,1,1,0,0,1-.12-.23C380.54,274.94,382.31,274.94,381.86,275.89Z"></path><path d="M384.37,386.32c0,.08-.08.16-.13.24a.36.36,0,0,1-.61,0c-.05-.08-.09-.16-.13-.24C383.05,385.38,384.82,385.38,384.37,386.32Z"></path><path d="M489.84,295.8a.86.86,0,0,1-1.19,0,1.17,1.17,0,0,1-.29-1.15.92.92,0,0,1,1.77,0A1.21,1.21,0,0,1,489.84,295.8Z"></path><path d="M374.23,279.47a.84.84,0,0,1-1.19,0,1.2,1.2,0,0,1-.29-1.15.93.93,0,0,1,1.77,0A1.16,1.16,0,0,1,374.23,279.47Z"></path></g><path d="M513.84,184.9c-4,23.12-16.59,52.94-27.67,57.53-7.51,3.11-36.07-11.22-46.71-16.87S450,193.33,456.13,197c9.5,5.65,21,12.48,23.22,11.59,2.8-1.11,8-10,23.66-30.24C509.64,169.79,515.56,175.06,513.84,184.9Z" style="fill:#f7a9a0"></path><path d="M441,226.27c-3.58-.94-22.68-7.2-26.79-9.81s-15.37-11-13.69-14.29,5.17-1.17,5.17-1.17-4.2-4.28-2.21-7.49,7.32.35,7.32.35-4-4.7-1.78-7.77,7,1.43,7,1.43-3.85-4.14-1-5.89c3.47-2.12,9.71,6.31,14.46,8.84,1.08.58,22.68,10.11,22.68,10.11Z" style="fill:#f7a9a0"></path><path d="M415.58,187.14c4.6,6.18,7.68,8.09,14.76,10.82.14.06.09.28-.06.23-7.17-2-11.39-3.88-15-10.84C415.09,187,415.36,186.85,415.58,187.14Z" style="fill:#263238"></path><path d="M410.44,193.37c5.34,6,8.67,8.1,15.87,11.51.11.05,0,.22-.07.18-7.35-2.74-11.51-4.67-16.06-11.38C410,193.38,410.2,193.09,410.44,193.37Z" style="fill:#263238"></path><path d="M406.06,201.16c5.59,5.44,9.14,7.9,16.56,10.31a.14.14,0,0,1-.07.28c-7.81-1.72-12.26-4.76-16.64-10.4C405.61,201,405.71,200.82,406.06,201.16Z" style="fill:#263238"></path><path d="M459.73,201.94s-4.66-8.47-7.53-11.73-18-11.5-20-8.33c-2.54,4.1,5.28,10.58,9.53,13.25,0,0-5.88,9.48-1.28,15.34S459.73,201.94,459.73,201.94Z" style="fill:#f7a9a0"></path><path d="M431.87,183.24c.38,5.41,6.18,8.55,10.11,11.45a.46.46,0,0,1,0,.74c-2.2,4.13-4.1,10.61-1.84,15a.11.11,0,0,1-.19.12c-3.06-4.39-1.72-10.91,1-15.28-4.07-2.91-9.75-6.33-9.12-12C431.82,183.21,431.87,183.2,431.87,183.24Z" style="fill:#263238"></path><path d="M504.48,225.43l-21.3-26.67A218.55,218.55,0,0,1,500.48,179c10.41-10.58,17.4-7.81,14.39,12A127,127,0,0,1,504.48,225.43Z" style="fill:#FFC727"></path><path d="M514.87,191a127,127,0,0,1-10.39,34.43l-19-23.75,25-28.73C514.77,173,516.73,178.78,514.87,191Z" style="opacity:0.1"></path><path d="M487.08,195.64c1.8,1.8,3.35,3.88,5,5.82s3.14,3.7,4.65,5.6q4.71,5.92,9.14,12c.05.07-.06.17-.12.1q-4.85-5.69-9.55-11.49c-1.56-1.93-3.07-3.9-4.57-5.86s-3.27-4-4.66-6.1C486.91,195.67,487,195.58,487.08,195.64Z" style="fill:#263238"></path><path d="M443.6,461.06c3-.41,79.4-38.52,81.34-41.72.24-.38-3.05-7.35-7.73-16.84-10.55-21.47-31.68-57.77-31.68-57.77l-46,25.84,25.31,47.93s-8.5,10.29-15.39,19c0,0,0,0,0,0-4.24,5.37-7.89,10.15-8.56,11.58C439.17,452.86,440.57,461.48,443.6,461.06Z" style="fill:#f7a9a0"></path><path d="M443.61,461.06c3-.41,79.39-38.51,81.33-41.72.23-.38-3.05-7.35-7.73-16.84-.52-1.07-1.08-2.18-1.65-3.32-13.79,10.6-39.76,29.72-58,38.05-7.42,3.39-6-1-3.42-5.52-1.55,1.93-3.11,3.9-4.62,5.8,0,0,0,0,0,0-4.24,5.38-7.89,10.16-8.56,11.58C439.17,452.86,440.58,461.49,443.61,461.06Z" style="fill:#263238"></path><path d="M453.37,410.06l55.45-28s-40.41-75.55-39.34-76.94c3.73-4.81,48.73-2.62,68.16-21.94,20.58-20.45,4.45-52.33,4.45-52.33H491s-1.81,17.35-4.12,19.26c-1.53,1.27-80.58,8.9-83.67,29.76C397.89,316,453.37,410.06,453.37,410.06Z" style="fill:#37474f"></path><path d="M451.19,401.41c6.4-3.87,13-7.43,19.56-11s13.21-7,19.91-10.34c3.78-1.87,7.64-3.56,11.43-5.42a.1.1,0,0,1,.1.18c-3.32,1.78-6.55,3.73-9.85,5.53s-6.53,3.54-9.81,5.27c-6.61,3.51-13.26,6.93-19.88,10.4-3.74,1.95-7.52,3.8-11.33,5.61A.14.14,0,0,1,451.19,401.41Z" style="fill:#263238"></path><path d="M448.31,296.28c1.32-2.73,4.83-3.13,7.44-3.79l21.45-5.34c12.66-3.14,25.72-6.1,37.07-12.81,5.42-3.2,10.68-7.26,13.39-13.1s2.71-12.09,2.75-18.26c0-1.53-.08-3.06-.18-4.58,0-.13.2-.13.21,0,.39,6.09,1,12.18-.35,18.2a24.74,24.74,0,0,1-3.41,8.2,28,28,0,0,1-6.18,6.49c-10,7.88-22.63,11.65-34.8,14.76-6.88,1.75-13.79,3.42-20.69,5.11l-10.65,2.61c-1.5.37-3.19.67-4.38,1.73a4.62,4.62,0,0,0-1.31,3.86,14.86,14.86,0,0,0,1.08,4.24c.64,1.67,1.31,3.32,2,5,1.32,3.24,2.66,6.46,4,9.66q4.17,9.69,8.68,19.25c6,12.69,12.36,25.18,18.87,37.6.82,1.55,1.6,3.11,2.4,4.67,0,.09-.09.17-.15.08-7-12.28-13.49-24.85-19.69-37.53s-12-25.39-17-38.5C448,301.5,447.16,298.65,448.31,296.28Z" style="fill:#263238"></path><path d="M322.88,463.89c2.91,1,88.25.06,91.4-2,.37-.23.4-18.52.4-18.52,4.61-23.85,9.39-62.59,9.39-62.59l-57-.07-6.47,54.18s-12.14,5.53-22.15,10.37c0,0,0,0,0,0-6.16,3-11.53,5.68-12.75,6.67C322.48,454.58,320,463,322.88,463.89Z" style="fill:#f7a9a0"></path><path d="M322.88,463.89c2.91,1,88.25.05,91.39-2,.35-.21.4-15.35.41-18.09-14.82,2.72-52.06,9-74.5,7.77-11.6-.64-.05-7,5-9.5-2.25,1.05-4.54,2.14-6.73,3.21l0,0c-6.16,3-11.52,5.68-12.76,6.68C322.48,454.58,320,463,322.88,463.89Z" style="fill:#263238"></path><path d="M359.15,423.44l64.42-.47S436.78,322.69,442,317.09c2.64-2.83,87.66-3.2,108.51-23.07,21-20,0-63.17,0-63.17H495.66s-1.36,16.93,2.84,27.29c0,0-76.71,1.24-97.62,17.68C372.83,297.86,359.15,423.44,359.15,423.44Z" style="fill:#37474f"></path><path d="M364.15,412.82c7.47-.55,14.93-.74,22.42-.92s15-.26,22.43-.18c4.22,0,8.43.29,12.65.35a.1.1,0,1,1,0,.2c-3.76.09-7.52.37-11.29.47s-7.41.19-11.12.25c-7.48.13-15,.16-22.44.25-4.22,0-8.42,0-12.64-.14A.14.14,0,0,1,364.15,412.82Z" style="fill:#263238"></path><path d="M522.58,238.85a4,4,0,0,0,.31.74.08.08,0,0,1,0,.12c.72,2.25,1,4.64,1.72,6.89a10.78,10.78,0,0,0,4.17,6c4.25,2.95,9.37,4.29,14.31,5.51.16,0,.11.27,0,.28a27.3,27.3,0,0,1-8.45-1.3,22,22,0,0,1-7.12-3.41,11.14,11.14,0,0,1-4.08-6.15,37.27,37.27,0,0,1-.71-4,29.94,29.94,0,0,1-.5-4.62A.21.21,0,0,1,522.58,238.85Z" style="fill:#263238"></path><path d="M488.47,254.38a62.92,62.92,0,0,1,9.86,3.76l.16.07a2.51,2.51,0,0,1-.15-.6l-.12-.71c0-.24-.05-.5-.08-.74l0-.38a.09.09,0,0,1,0-.05,3,3,0,0,1-2.12-1.08,7.92,7.92,0,0,1-1.32-3.1c-.37-1.41-.71-2.82-1-4.24-.35-1.57-.63-3.16-.89-4.76a31.15,31.15,0,0,1-.54-4.72.22.22,0,0,1,.44-.05c.37,1.45.54,3,.81,4.43s.6,2.95.93,4.42.71,2.92,1.11,4.37c.36,1.29.72,3.16,2.22,3.59,3.07.87,1.69-6,1.56-7.39-.32-3.13-.51-6.33-1.06-9.43,0-.13.17-.18.2-.05.67,2.85,1.44,5.65,1.94,8.54.25,1.42.43,2.85.58,4.27a6.58,6.58,0,0,1-.28,3.68,2.68,2.68,0,0,1-2,1.5c0,.11.06.22.1.33s.14.45.2.69.11.46.16.69a1.7,1.7,0,0,1,.1.86.3.3,0,0,1-.15.18c1.32.57,2.63,1.14,3.93,1.75a33.28,33.28,0,0,1,4.73,2.29c.18.09,0,.33-.13.3a35.9,35.9,0,0,1-5-1.8c-1.64-.63-3.27-1.3-4.9-2a63,63,0,0,1-9.38-4.37A.16.16,0,0,1,488.47,254.38Z" style="fill:#263238"></path><path d="M551.68,256.62a83.37,83.37,0,0,0-3.34-15.94c-.42-1.35-.87-2.68-1.34-4,0-.13-.25-.07-.21.06a87.48,87.48,0,0,1,3.66,16,63.58,63.58,0,0,1,.5,16,28.32,28.32,0,0,1-5.06,13.47,34.82,34.82,0,0,1-9.81,8.92c-8.88,5.56-19.44,7.58-29.59,9.56q-16.75,3.25-33.64,5.87c-12.64,2-37.45,3.33-38.55,5.57-2.11,4.3-5.45,24.35-7.6,36.64s-7.5,54.13-7.9,61.16c0,.45.66.42.7,0,1.18-12.43,3.33-28.12,5.07-40.49s3.8-24.43,6.26-36.55c1.36-6.73,3.94-18.65,4.75-19.76,1.27-1.74,22.54-3.26,33.91-5s23-3.75,34.42-5.94c10.45-2,21.32-3.79,30.72-9,8.11-4.52,14.71-11.62,16.7-20.81A49.38,49.38,0,0,0,551.68,256.62Z" style="fill:#263238"></path><path d="M472.92,313.61c-2.22-.06-27.93,2.33-32.32,3.2-.31.06-8.11,43.59-8.87,51.61-.1,1.06.31,2,.61,0,.6-3.94,9.6-50.47,9.61-50.5,4.4-.5,28.86-3.63,31-4C473.15,313.88,473.09,313.61,472.92,313.61Z" style="fill:#263238"></path><path d="M496.35,258a417.37,417.37,0,0,0-45.08,3.57c-6.67.86-13.33,1.84-19.95,3a103.46,103.46,0,0,0-17.4,4.51,53,53,0,0,0-8.9,4.17,46.92,46.92,0,0,0-7.78,6.05c-.1.09.05.23.16.14,4.47-3.74,10.07-6.41,15.5-8.48A101.33,101.33,0,0,1,430,266.41c6.47-1.23,13-2.13,19.51-3,7.06-1,14.12-1.81,21.2-2.56,8-.83,17.72-1.51,25.71-2.31A.24.24,0,0,0,496.35,258Z" style="fill:#263238"></path><path d="M486.55,246l73.17,6.25s-7.53-34.31-18.22-61.4c-11.45-29-27-21.29-32.44-16.67-6.51,5.46-19.42,26.06-20.38,30.06-1.59,6.61,3.92,14.15,3.92,14.15Z" style="fill:#FFC727"></path><path d="M511,217.1a50.69,50.69,0,0,0-8.25.41c-1.36.2-2.7.46-4,.76-.67.15-1.34.28-2,.4a8.47,8.47,0,0,1-2.13.16c-.06,0-.07.09,0,.1a13.45,13.45,0,0,0,2,.22,14.35,14.35,0,0,0,2-.14c1.38-.19,2.75-.45,4.14-.65,2.78-.41,5.56-.82,8.36-1C511.15,217.34,511.15,217.1,511,217.1Z" style="fill:#263238"></path><path d="M517.38,220.62a54.28,54.28,0,0,0-6.69-1.23c-1.12-.13-2.25-.19-3.38-.22-.55,0-1.09,0-1.63,0s-1.2.1-1.79.1c-.07,0-.08.1,0,.1.57,0,1.12.15,1.68.21l1.69.17,3.37.35c2.26.21,4.5.44,6.74.73C517.47,220.84,517.49,220.65,517.38,220.62Z" style="fill:#263238"></path><path d="M416.19,199.15a49.31,49.31,0,0,0-9.81-3c-4.45-.69-14.09-1.41-15.88-2l-2.85.24,25.82,51.67,26,2.59,40.3-16.4-22-49.47-2.91.2s-5.09,2.29-9.36,3.75S426.09,190.9,416.19,199.15Z" style="fill:#fff"></path><path d="M416.19,199.15a42.78,42.78,0,0,0-12.66-3.29c-3.72-.43-9.58-.81-13-1.52l-2.85.26.14-.24c0-.11,26.47,52.41,25.7,51.45-.11-.12,26.58,2.63,25.8,2.56l20.14-8.21L479.61,232l-.17.42-21.93-49.51.21.12-2.9.2.07,0c-3.23,1.4-6.46,2.76-9.81,3.87s-6.8,1.76-10.15,2.81c-6.66,2.09-13.28,4.82-18.74,9.26Zm0,0c5.42-4.5,12-7.32,18.67-9.49,6.74-2,13.5-3.76,19.86-6.83h.07l2.9-.21h.15l.06.13c0,.45,22.24,49.34,22.26,49.73C469.87,236.63,449.71,245,439.39,249l-26.11-2.66c-.13,0-25.66-51.82-25.78-51.87l-.11-.22.24,0,2.86-.23A63.35,63.35,0,0,0,397,195l6.53.74a42.82,42.82,0,0,1,12.64,3.44Z" style="fill:#dbdbdb"></path><polygon points="443.34 249.59 419.73 199.64 459.43 182.05 482.33 233.19 443.34 249.59" style="fill:#37474f"></polygon><polygon points="443.34 249.59 437.36 250.72 413.69 200.78 419.73 199.64 443.34 249.59" style="fill:#263238"></polygon><polygon points="437.36 250.72 413.69 200.78 386.36 194.12 412.87 246.7 437.36 250.72" style="fill:#37474f"></polygon><path d="M536,189.19c4.84,43.72-2.2,71-11.24,77.17-10.07,6.86-21.74-31.55-20.79-33.13.72-1.2,8.52-24.25,16.16-45.44C527.17,168.34,534.56,175.88,536,189.19Z" style="fill:#f7a9a0"></path><path d="M523.46,267c-7.25,2.71-15.57-2.17-45.28-20-4.11-2.46,6.89-35.13,11.41-32.72,5.7,3,21.52,11.83,23,13C524.79,237,529,264.94,523.46,267Z" style="fill:#f7a9a0"></path><path d="M504.81,224.85s-9.12-10-18.75-16c-6.66-4.17-22.16-11.62-43-.82-4.93,2.56-10.15,9.71-.57,8.45,6.81-.89,10.85-3.51,14.91-3.31,0,0-5.56,9.89-2.8,14.73a101.18,101.18,0,0,0,8.11,12.15,21.77,21.77,0,0,0,2.41-1.31s6.16,7.79,15.48,9.76Z" style="fill:#f7a9a0"></path><path d="M479.07,205.9c-4.07.65-12.66,2.17-19.26,5.86-7.33,4.09-20.35,14-17.27,19.34,2.26,4,7.56.62,7.56.62s-4.52,5.21-1.7,8.33c2.57,2.84,6.52,0,6.52,0s-2.2,3.64.8,5.9c3.62,2.71,7.63-5.35,13.66-5.76C470.74,240.11,479.07,205.9,479.07,205.9Z" style="fill:#f7a9a0"></path><path d="M465.43,218.78C461.7,220,454,225,450.1,231.54c-.08.15,0,.3.09.18a82.06,82.06,0,0,1,15.28-12.87A0,0,0,0,0,465.43,218.78Z" style="fill:#263238"></path><path d="M469.35,226.3c-3.1,1.4-10.85,6.89-14.54,13.65-.08.15,0,.29.1.17a88.67,88.67,0,0,1,14.48-13.76S469.39,226.28,469.35,226.3Z" style="fill:#263238"></path><path d="M523.65,246.07c-2.33-5.53-4.84-11.32-9-15.75-4.53-4-9.93-7-15.17-10.08-2.12-2-4.23-4.14-6.48-6.07a50.76,50.76,0,0,0-7-5.31,29.5,29.5,0,0,1,3.75,2.31,86.52,86.52,0,0,1,10,8.49c5.36,3,10.74,6,15.31,10.18,4.11,4.48,6.54,10.56,8.5,16.23Z" style="fill:#263238"></path><path d="M541,224l-29.65-16.9a219.84,219.84,0,0,1,8.77-24.74c5.76-13.69,13.27-13.7,17.8,5.8A127,127,0,0,1,541,224Z" style="fill:#FFC727"></path><path d="M513.79,202.8c2.34,1,4.54,2.36,6.79,3.55s4.29,2.29,6.39,3.49c4.38,2.51,8.68,5.11,12.95,7.8.07,0,0,.18-.08.13q-6.62-3.48-13.12-7.14c-2.16-1.21-4.29-2.48-6.42-3.75s-4.5-2.48-6.58-3.94C513.64,202.89,513.71,202.76,513.79,202.8Z" style="fill:#263238"></path><path d="M511.89,203.66c.34-1.2.72-2.38,1.12-3.56.08-.25.17-.49.25-.73a44.21,44.21,0,0,1,.72-4.61,0,0,0,0,1,.09,0,35.53,35.53,0,0,1-.46,3.55c.63-1.8,1.29-3.59,2.09-5.31a0,0,0,1,1,.08,0c-.63,2.41-1.44,4.77-2.17,7.16-.35,1.15-2.21,6.79-2.15,6.84s1.44.81,1.56,1,0,.13,0,.09l-2.1-.93C510.87,207.1,511.6,204.68,511.89,203.66Z" style="fill:#263238"></path><path d="M537.28,221.93c1.27.63,2.53,1.3,3.79,1.95l-.28.14a163.56,163.56,0,0,0-.62-20.88c-.2-2.31-.46-4.62-.7-6.95a91.27,91.27,0,0,1,1.91,13.87,83.43,83.43,0,0,1-.25,14.31c-1.28-.82-2.58-1.6-3.85-2.44Z" style="fill:#263238"></path><path d="M542,200.06a15.36,15.36,0,0,1-1.25,6.49,34.94,34.94,0,0,1,1.25-6.49Z" style="fill:#263238"></path><path d="M524.74,174c-.29,1.29-6.38,9.72-12.29,9.49-1.92-.08-2-10.59-2-10.59l-.18-.78-2.52-10.85L520.5,153l1.84-1.1s.49,3,1.06,6.78l.09.53c0,.21.07.41.1.61.09.56.19,1.14.27,1.71s.12.86.17,1.32.12.91.18,1.37A70.52,70.52,0,0,1,524.74,174Z" style="fill:#f7a9a0"></path><path d="M523.4,158.66a22.32,22.32,0,0,1-13.09,13.47l-2.52-10.85L520.5,153l1.84-1.1S522.83,154.9,523.4,158.66Z" style="fill:#263238"></path><path d="M507.14,174.52s-5.37,15.24.54,17.83,23.5-18.52,23.5-18.52S521.4,162.83,507.14,174.52Z" style="fill:#f7a9a0"></path><path d="M492.79,142.57c-4,19.14,7,23.71,11.12,24.57,3.75.78,16.61,3,22.58-15.65s-1.65-26.54-10.13-28.78S496.81,123.43,492.79,142.57Z" style="fill:#f7a9a0"></path><path d="M495.31,140.71a12.44,12.44,0,0,0,1.36-.1,2.2,2.2,0,0,0,1.37-.36.71.71,0,0,0,.12-.86,1.76,1.76,0,0,0-1.65-.64,2.58,2.58,0,0,0-1.72.68A.76.76,0,0,0,495.31,140.71Z" style="fill:#263238"></path><path d="M508.7,142.21c-.45-.12-.85-.3-1.29-.46a2.2,2.2,0,0,1-1.23-.71.71.71,0,0,1,.11-.85,1.73,1.73,0,0,1,1.76-.18,2.55,2.55,0,0,1,1.49,1.1A.76.76,0,0,1,508.7,142.21Z" style="fill:#263238"></path><path d="M505,146.63s.09.08.08.13c-.24,1.33-.3,2.89.84,3.51,0,0,0,.09,0,.08C504.42,149.91,504.52,147.84,505,146.63Z" style="fill:#263238"></path><path d="M506.37,145.42c2.17.16,1.68,4.49-.33,4.33S504.55,145.28,506.37,145.42Z" style="fill:#263238"></path><path d="M507.19,145.74c.35.29.68.76,1.13.86s1-.3,1.36-.69c0,0,.07,0,.07.05-.08.83-.5,1.65-1.4,1.67s-1.32-.78-1.44-1.63C506.89,145.84,507.05,145.62,507.19,145.74Z" style="fill:#263238"></path><path d="M497.59,145.72c0-.05-.11.05-.12.1-.11,1.35-.46,2.87-1.73,3.18,0,0,0,.08,0,.07C497.25,149,497.7,147,497.59,145.72Z" style="fill:#263238"></path><path d="M496.55,144.18c-2.14-.41-2.8,3.9-.82,4.28S498.34,144.53,496.55,144.18Z" style="fill:#263238"></path><path d="M495.61,144.33c-.38.17-.78.54-1.19.5s-.75-.56-1-1.05c0-.05-.06,0-.07,0-.15.82,0,1.72.75,2s1.34-.37,1.66-1.16C495.84,144.51,495.76,144.26,495.61,144.33Z" style="fill:#263238"></path><path d="M504.27,157.65c-.34.3-.68.72-1.17.74a3.61,3.61,0,0,1-1.43-.4,0,0,0,0,0-.06.07,1.81,1.81,0,0,0,1.67.8,1.44,1.44,0,0,0,1.12-1.14A.08.08,0,0,0,504.27,157.65Z" style="fill:#263238"></path><path d="M499.15,152.23s-.48,2-.58,2.93c0,.08.22.15.54.2h0a4.5,4.5,0,0,0,4.54-1.24c.07-.08,0-.19-.13-.14a6.76,6.76,0,0,1-4.22.76c0-.27.93-3.35.78-3.38a8,8,0,0,0-2.19.27c.87-4.15,2.41-8.12,3.22-12.26a.13.13,0,0,0-.24-.09,68.42,68.42,0,0,0-4,13.06C496.73,152.87,498.75,152.36,499.15,152.23Z" style="fill:#263238"></path><path d="M499.29,154.92a5.45,5.45,0,0,0,1.88,2.06,2.43,2.43,0,0,0,1.46.35c1.12-.1,1.32-1.07,1.27-2a5.84,5.84,0,0,0-.26-1.37A7.1,7.1,0,0,1,499.29,154.92Z" style="fill:#263238"></path><path d="M501.17,157a2.43,2.43,0,0,0,1.46.35c1.12-.1,1.32-1.07,1.27-2A2.55,2.55,0,0,0,501.17,157Z" style="fill:#ff9bbc"></path><path d="M525.11,151.17c-3.64.24-4.06-8.1-4.06-8.1s-15.25-3.55-15.79-16.17a21.21,21.21,0,0,1-11.41,11s1.38-13.71,12.44-15.72c0,0,13.83-4.1,20.77,7.1S527.55,151,525.11,151.17Z" style="fill:#263238"></path><path d="M505.27,126a13.43,13.43,0,0,0,.34,5.77A14.3,14.3,0,0,0,508.2,137a12.82,12.82,0,0,0,1,1.1l.5.54c.18.17.37.32.56.48.38.31.75.63,1.15.92s.82.52,1.24.77c.21.13.41.26.63.38l.66.3,1.32.6c.92.32,1.85.59,2.77.84-.86-.44-1.75-.79-2.59-1.23l-1.24-.7-.61-.34c-.2-.13-.39-.28-.58-.42-.38-.27-.76-.55-1.15-.81s-.7-.62-1-.93l-.52-.46-.47-.52a13,13,0,0,1-.91-1.06,17.18,17.18,0,0,1-3.34-7.63A15.8,15.8,0,0,1,505.27,126Z" style="fill:#263238"></path><path d="M521.88,151.22s5-5.55,7.54-3.71-1.68,10.25-5.06,11.06a3.3,3.3,0,0,1-4.18-2.3Z" style="fill:#f7a9a0"></path><path d="M528.14,149.89a0,0,0,0,1,0,.09c-2.38.64-3.82,2.6-4.92,4.67a1.83,1.83,0,0,1,2.77-.16c.06,0,0,.13-.07.11a2,2,0,0,0-2.31.43,10.28,10.28,0,0,0-1.28,1.67c-.13.19-.49,0-.38-.18l0-.05C522.28,153.57,525,149.81,528.14,149.89Z" style="fill:#263238"></path><g style="opacity:0.9"><path d="M516.93,134.65c-2.45-2.56-11.11-4.65-14.35-5.08a28.06,28.06,0,0,0-6.32.37l-.55-1.69a5.58,5.58,0,0,1-1.25-1.1,7.31,7.31,0,0,1-.28-7c1.88-3.76,7.18-3.65,9.85-5.15s11.38-4.18,15.72-2.68c6.4,2.23,9.5,7.14,11,8.17,5.32,3.58,10.72,8.05,11.73,13.6,1.19,6.48-2.73,9.84-2.52,12.42.37,4.74-3.17,11-6.05,11.72-2.11.54-3.73-.87-4.79-.73l-2.76.2S528,146.23,516.93,134.65Z" style="fill:#FFC727"></path><path d="M495.77,127.75a14.89,14.89,0,0,1,2-.71,3.8,3.8,0,0,1-1.26-2.21,16.45,16.45,0,0,1,.06-3.84c0-.15.24-.13.22,0a9.24,9.24,0,0,0,.21,3.51,6.62,6.62,0,0,0,1.22,2.41,12.14,12.14,0,0,1,1.6-.27c-.08-.13-.15-.27-.22-.39a4.81,4.81,0,0,1-.36-.94,4.51,4.51,0,0,1-.08-2c0-.14.23-.07.21.07a3.91,3.91,0,0,0,.06,1.86,4.22,4.22,0,0,0,.35.85c.07.14.15.26.23.39l.08.1.42,0a34,34,0,0,1,5.43.35l1.36.2a3,3,0,0,1-.31-.65,5.81,5.81,0,0,1,0-2.75s.05,0,0,0a5.13,5.13,0,0,0,.23,2.72,1.76,1.76,0,0,0,.71.77l1.07.2a2.88,2.88,0,0,0,1.68-1.37,5.46,5.46,0,0,0,.86-2.48c0-.14.24-.14.23,0a7.56,7.56,0,0,1-.54,2.24,4.72,4.72,0,0,1-1.14,1.83A24.78,24.78,0,0,1,515,129.3a15.52,15.52,0,0,1,3.3,2.12,8.68,8.68,0,0,0,1.94-.45,4.13,4.13,0,0,0,1.88-1.47c.09-.12.28,0,.19.12a5.17,5.17,0,0,1-3.56,2.18,21,21,0,0,1,2.74,3l.35-.08a3.76,3.76,0,0,0,.86-.28,5.35,5.35,0,0,0,1.58-1,10.41,10.41,0,0,0,2.16-3.36c0-.11.25,0,.2.09a15.28,15.28,0,0,1-2.11,3.74,4.39,4.39,0,0,1-1.61,1.23,4.06,4.06,0,0,1-1,.28h0l.2.27.5.72a2.41,2.41,0,0,0,1.58.23,4,4,0,0,0,2.35-1.94c.08-.14.27,0,.17.14-.71.85-1.41,2-2.55,2.27a2.59,2.59,0,0,1-1,0,50.7,50.7,0,0,1,3.64,6c.07-.11.13-.22.21-.33a5.67,5.67,0,0,1,.79-.91,5.44,5.44,0,0,1,.93-.71c.34-.22.67-.44,1-.62a.11.11,0,0,1,.11.19,5.86,5.86,0,0,0-.93.71c-.26.27-.52.55-.76.84s-.46.58-.68.87-.21.33-.33.48l-.07.09c.21.45.44.89.63,1.35s.31.78.45,1.18l.43,0a7.55,7.55,0,0,0,.95,0,9.37,9.37,0,0,0,1.89-.34,12.2,12.2,0,0,0,1.78-.65,4.52,4.52,0,0,0,1.61-1.3c.09-.11.27,0,.19.12a8,8,0,0,1-3.21,2.66,5.69,5.69,0,0,1-2.08.39,5.24,5.24,0,0,1-1.32-.15,24,24,0,0,1,1,3.82,29.88,29.88,0,0,1,.07,6.2c0,.15-.24.13-.22,0a15.2,15.2,0,0,0-.51-5.36,26.84,26.84,0,0,0-1.59-4.94,56.33,56.33,0,0,0-4.92-8.86c-1.81-2.73-3.65-5.32-6.51-7A24.79,24.79,0,0,0,507,128c-3.57-.56-7.6-1.06-11.13,0C495.73,128,495.65,127.81,495.77,127.75Z" style="opacity:0.1"></path></g></g><g id="freepik--Plant--inject-26"><path d="M631.57,253.92s27.57-3.86,21.12-37.13C652.69,216.79,621.89,223.7,631.57,253.92Z" style="fill:#FFC727"></path><path d="M631.57,253.92s27.57-3.86,21.12-37.13C652.69,216.79,621.89,223.7,631.57,253.92Z" style="opacity:0.1"></path><path d="M633,247c.54-1.69,1.18-3.34,1.88-5,0-.22,0-.43.07-.63L635,240c.07-1,.14-2,.2-3,.11-2,.24-4,.27-6,0-.1.17-.1.17,0,0,2,.05,4,0,6,0,1-.1,2-.16,3,0,.22,0,.45-.05.67a59.22,59.22,0,0,1,5.53-9.46q1.41-2,3-3.82c1.1-1.26,2.26-2.45,3.37-3.7.07-.08.19,0,.12.12a48.72,48.72,0,0,0-5.31,7.07c-.84,1.27-1.63,2.57-2.39,3.89l.26-.1,1-.4,2.25-.85,4.44-1.65c.09,0,.15.12.06.16-1.47.58-2.92,1.2-4.37,1.82l-2.13.92-1.08.45a3.7,3.7,0,0,1-.73.25c-.55,1-1.11,2-1.61,3a72,72,0,0,0-3.37,8l-.2.57a16.15,16.15,0,0,1,2.26-1.09l2.85-1.3c1.94-.89,3.86-1.79,5.71-2.84.09,0,.18.1.08.15-1.89,1-3.75,2.14-5.65,3.17-1,.51-1.9,1-2.87,1.48a8.8,8.8,0,0,1-2.59,1,32.68,32.68,0,0,0-1.81,7.82c-.3,3.76-.27,7.55-.36,11.33,0,.06-.09.06-.1,0-.27-3.42-.43-6.87-.44-10.3A29.75,29.75,0,0,1,633,247Z" style="fill:#263238"></path><path d="M637.21,227.41a32.9,32.9,0,0,1,.27,5.87c0,.05-.08.05-.08,0-.11-1.94-.13-3.88-.35-5.82C637,227.34,637.2,227.3,637.21,227.41Z" style="fill:#263238"></path><path d="M645.09,229.07a21.61,21.61,0,0,0,3.55-1.74c.09-.06.17.09.08.15a13.86,13.86,0,0,1-3.58,1.71C645.07,229.21,645,229.1,645.09,229.07Z" style="fill:#263238"></path><path d="M630.69,306.76c0-3.05.08-6.1.12-9.14q.08-15.18.32-30.35.21-12,.56-24.09a.14.14,0,0,1,.07-.11l0-6.57c0-.06.07-.09.14-.09s.13,0,.13.09c0,2.2,0,4.39,0,6.59a.11.11,0,0,1,.06.09c.41,14.3.77,28.59.85,42.89,0,2.91,0,5.81,0,8.72q.15,14,.11,28c0,1.49,0,3,0,4.45,0,8.53-.09,17.06-.09,25.59,0,.46-.51.68-1.05.71s-1.28-.23-1.28-.75c0-9.4-.06-18.81-.06-28.21C630.67,318.61,630.65,312.68,630.69,306.76Z" style="fill:#263238"></path><path d="M642.2,297.5s13.26-9.82,25.85-3.19,14.55,32.23,14.55,32.23-18.47,2.64-30.11-8.43C641.27,307.43,642.2,297.5,642.2,297.5Z" style="fill:#FFC727"></path><path d="M638.59,298.11a15.91,15.91,0,0,1,7.68-1,11.1,11.1,0,0,1,1.63-.15l1.86-.14,3.87-.28c2.62-.19,5.24-.35,7.85-.62.09,0,.11.16,0,.17-2.59.33-5.16.7-7.75,1-1.33.13-2.67.27-4,.37l-1,.09c.4.09.79.18,1.18.29a31.51,31.51,0,0,1,6,2.45c1,.18,2.09.47,3.11.72,1.64.38,3.28.81,4.91,1.23,3.22.85,6.4,1.8,9.6,2.73.1,0,0,.18-.05.16-3.19-.79-6.4-1.5-9.6-2.27l-4.67-1.11-1.22-.28a38.38,38.38,0,0,1,9.43,8.19A51.1,51.1,0,0,1,674,319.94c.05.09-.09.19-.14.09a50.42,50.42,0,0,0-7.93-10.4c.06.17.12.35.17.53.25.78.5,1.56.74,2.34.49,1.56,1,3.12,1.46,4.69,0,.1-.13.14-.17,0-.56-1.51-1.09-3-1.62-4.56-.26-.74-.53-1.49-.79-2.24-.13-.38-.26-.77-.4-1.16l-.12-.36a47.08,47.08,0,0,0-4.71-4,35.76,35.76,0,0,0-7-4c0,.23.08.46.13.68l.39,1.81c.26,1.26.5,2.52.75,3.77.5,2.57.81,5.17,1.29,7.74a.09.09,0,0,1-.17,0c-.59-2.58-1.36-5.12-1.93-7.71-.29-1.29-.58-2.59-.85-3.88-.13-.61-.25-1.22-.37-1.82a9.09,9.09,0,0,1-.18-1c-.25-.09-.48-.2-.72-.29-3.48-1.29-7.33-2.23-11-1.52a10.88,10.88,0,0,0-8,6.4c-.12.29-.57.11-.51-.19C633,301.7,635.68,299.33,638.59,298.11Z" style="fill:#263238"></path><path d="M658.89,309q.55,2.52,1.12,5a37.55,37.55,0,0,1,.92,4.91c0,.06-.09.06-.1,0a36.07,36.07,0,0,1-1.13-4.94c-.33-1.66-.65-3.32-1-5A.09.09,0,0,1,658.89,309Z" style="fill:#263238"></path><path d="M671.71,313.3c1.69.86,3.33,1.83,5.09,2.54a.08.08,0,1,1-.07.15,56.3,56.3,0,0,1-5.06-2.62A0,0,0,0,1,671.71,313.3Z" style="fill:#263238"></path><path d="M639.22,279.46s16.21,1,23.75-9.65,5.84-25.95,5.84-25.95-17,2.07-23.78,9.74S639.22,279.46,639.22,279.46Z" style="fill:#FFC727"></path><path d="M631.62,295.45c.56-1.74,1.25-3.45,1.91-5.15s1.3-3.25,2-4.86a103,103,0,0,1,4.86-9.54c1.14-2,2.37-3.88,3.63-5.77,0-.29.08-.57.13-.86.07-.5.15-1,.22-1.51.17-1,.34-2,.52-3.07.37-2.24.83-4.46,1.19-6.7,0-.1.18-.1.16,0-.32,2.21-.54,4.44-.85,6.65-.16,1.09-.3,2.18-.46,3.26-.06.4-.13.79-.19,1.18a116.51,116.51,0,0,1,8-10.4c.39-.45.79-.88,1.18-1.32,0-.13.1-.25.15-.37.12-.31.24-.62.35-.93.24-.64.47-1.29.71-1.93.45-1.27.86-2.55,1.2-3.86a.08.08,0,0,1,.16,0c-.32,1.33-.67,2.66-1.06,4-.19.64-.39,1.26-.62,1.89,0,.1-.07.21-.11.31,2.07-2.26,4.23-4.43,6.41-6.58.08-.08.19,0,.12.12a115.71,115.71,0,0,0-11.49,14.06c.4-.12.81-.22,1.2-.3,1.25-.24,2.51-.42,3.77-.58,2.64-.34,5.27-.67,7.9-1.08.11,0,.15.14,0,.16-2.51.49-5,1.06-7.49,1.63-1.18.27-2.36.5-3.54.74a21.54,21.54,0,0,0-2.85.81c-.26.37-.53.74-.79,1.12-1.19,1.73-2.33,3.49-3.45,5.28l1.66-.33c1.25-.24,2.51-.47,3.76-.67,2.47-.41,4.95-.84,7.39-1.4a.09.09,0,0,1,0,.17c-2.48.58-4.93,1.26-7.39,1.91-1.19.32-2.38.61-3.58.87l-1.8.39a4.17,4.17,0,0,1-.73.13q-3.55,5.76-6.65,11.77-1.35,2.66-2.62,5.34c-.86,1.84-1.6,3.72-2.4,5.59C632.08,296,631.48,295.86,631.62,295.45Z" style="fill:#263238"></path><path d="M648.2,258.2c.31-1.54.64-3.08,1-4.62,0-.11.18-.06.16,0q-.47,2.28-.87,4.56c-.28,1.51-.5,3.06-.92,4.54a0,0,0,0,1,0,0A33.15,33.15,0,0,1,648.2,258.2Z" style="fill:#263238"></path><path d="M657.66,257.75c.75-.37,1.54-.67,2.33-1l1.22-.48.63-.25a2.76,2.76,0,0,0,.68-.3c.13-.09.2.12.08.14a3,3,0,0,0-.69.29l-.61.27-1.19.53a22.42,22.42,0,0,1-2.39.95C657.62,258,657.57,257.8,657.66,257.75Z" style="fill:#263238"></path><path d="M622.63,266.72s-9.8-18.32-24.73-21.16-24,12.51-24,12.51,10.89,13.9,24.58,16.33S622.63,266.72,622.63,266.72Z" style="fill:#FFC727"></path><path d="M587.91,253.77a40.26,40.26,0,0,1,11.7.14l-.67-.36c-1.11-.56-2.21-1.13-3.31-1.7-2.29-1.19-4.6-2.46-7-3.42a.09.09,0,1,1,.06-.16c2.34,1.09,4.76,2,7.1,3.08,1.17.54,2.32,1.1,3.46,1.7.74.39,1.55.76,2.28,1.23a41.08,41.08,0,0,1,9.48,3.15l-1.87-2c-1.39-1.53-2.75-3.12-4.28-4.51-.08-.07,0-.19.12-.12,1.56,1.42,3.21,2.73,4.72,4.21.74.71,1.44,1.46,2.13,2.22.34.38.68.77,1,1.18a39.35,39.35,0,0,1,20,27c0,.1-.13.16-.16.05a45.2,45.2,0,0,0-11-18.56,43.12,43.12,0,0,0-20-11.56,43.88,43.88,0,0,0-13.79-1.26C587.74,254.08,587.72,253.8,587.91,253.77Z" style="fill:#263238"></path><path d="M573.85,258.08s10.89,13.9,24.58,16.32c10.45,1.85,19-3.6,22.53-6.28l.75-1.24s-7.06-5.95-20.43-9.38S573.85,258.08,573.85,258.08Z" style="opacity:0.1"></path><path d="M596.57,247.24a38,38,0,0,1,3.32,2.19,21,21,0,0,1,2.87,2.63.08.08,0,1,1-.12.12c-1-.86-2-1.72-3-2.54a31.59,31.59,0,0,0-3.14-2.26C596.39,247.33,596.48,247.18,596.57,247.24Z" style="fill:#263238"></path><path d="M588.38,250.34c.56.23,1.12.43,1.67.66l1.66.69c.12.05.07.24-.05.19l-1.67-.67-1.66-.71C588.23,250.46,588.28,250.3,588.38,250.34Z" style="fill:#263238"></path><path d="M624.59,289.77S622,308,608.31,314.3s-30.33,0-30.33,0S584.53,275,624.59,289.77Z" style="fill:#FFC727"></path><path d="M587.4,302.48c1.26-.14,2.51-.36,3.76-.58l1.83-.35c.31-.06.64-.14,1-.19.37-.35.73-.7,1.11-1a55.3,55.3,0,0,1,8.36-6.06,48.24,48.24,0,0,1,5-2.57h-.26l-4.5.2c-3,.13-6,.2-9,.4-.1,0-.1-.17,0-.17,3-.21,6-.54,9-.8q2.19-.18,4.38-.39l2.25-.19.57-.06c.78-.29,1.57-.57,2.36-.81a21.34,21.34,0,0,1,11.58-.64c3.43.88,6.87,3.13,7.76,6.75,0,.13-.17.22-.22.09-1.28-3-4.65-4.55-7.68-5.18a18.12,18.12,0,0,0-6.19-.12,13.92,13.92,0,0,1-.69,2.74c-.38,1.28-.75,2.56-1.14,3.84-.77,2.55-1.62,5.08-2.38,7.64a.08.08,0,0,1-.16-.05c.63-2.55,1.17-5.13,1.78-7.68l.93-3.76a22,22,0,0,1,.69-2.58,32.68,32.68,0,0,0-3.55.83,52.25,52.25,0,0,0-6.19,2.27c-.2,1.3-.49,2.58-.79,3.86-.37,1.6-.79,3.19-1.29,4.76a.08.08,0,0,1-.16-.05l.06-.29h0c.3-1.48.63-3,.94-4.45.26-1.2.49-2.4.75-3.6-1.7.77-3.37,1.6-5,2.53,0,.37-.13.75-.18,1.08-.1.63-.21,1.25-.32,1.87-.26,1.4-.54,2.8-.88,4.18a64.11,64.11,0,0,1-2.35,7.91.08.08,0,0,1,0,.1l-.08.09c0,.07-.15,0-.13-.08.63-2.7,1.35-5.37,1.94-8.07q.45-2,.87-4.05c.13-.68.25-1.36.38-2,0-.19.07-.39.1-.6a57.12,57.12,0,0,0-5.32,3.54,58.1,58.1,0,0,0-8.15,7.44c-.1.11-.29,0-.2-.16a51.42,51.42,0,0,1,3.26-4c.69-.73,1.4-1.44,2.13-2.14l-.23,0c-.64.11-1.28.2-1.93.29-1.26.17-2.53.29-3.79.43C587.33,302.66,587.29,302.49,587.4,302.48Z" style="fill:#263238"></path><path d="M597,308.64h0c0-.15,0-.31.08-.47s.13-.39.16-.59h0c.28-1.21.52-2.44.74-3.67,0-.08.15-.06.14,0a14.6,14.6,0,0,1-1,4.74c0,.05-.1.05-.09,0Z" style="fill:#263238"></path><path d="M608.44,308.35c0-.05,0-.07.08-.08.38-1.6.75-3.21,1.08-4.84.18-.85.36-1.7.52-2.55.09-.46.17-.92.25-1.38a3.94,3.94,0,0,1,.3-1.18.08.08,0,0,1,.15,0,8.17,8.17,0,0,1-.34,2.44c-.17.89-.34,1.77-.54,2.65q-.59,2.7-1.35,5.35a.09.09,0,0,1-.18,0Z" style="fill:#263238"></path><path d="M588.64,297.25c2.5-.34,5-.71,7.49-1,.11,0,.15.15,0,.16-2.49.37-5,.68-7.49,1C588.58,297.42,588.53,297.26,588.64,297.25Z" style="fill:#263238"></path><path d="M631.59,247.15s8.36-36.68-31.05-51.53C600.54,195.62,589.62,243.91,631.59,247.15Z" style="fill:#FFC727"></path><path d="M623.08,226.35a4,4,0,0,0-.42-.26l-2.23-1.25-4.57-2.55c-3-1.69-6-3.44-9-5.08a.09.09,0,0,1,.09-.15c3,1.65,6.12,3.2,9.18,4.81l4.52,2.39,1.84,1c-1.31-2.49-2.72-4.93-4.26-7.29-2.06-3.14-4.32-6.13-6.67-9.06a.14.14,0,0,1,.2-.19,63.18,63.18,0,0,1,9.11,11.17c0-.12,0-.25,0-.38-.05-.91-.07-1.82-.08-2.74,0-1.79.06-3.58,0-5.37,0-.11.16-.1.17,0,.07,1.76.29,3.51.39,5.28,0,.88.08,1.75.11,2.63,0,.48.06,1,0,1.54.81,1.29,1.59,2.61,2.33,3.93a68.59,68.59,0,0,1,3.52,7.39c0-.91.1-1.82.15-2.74.12-2,.36-4,.45-6,0-.1.17-.1.17,0-.05,2,0,4,0,6,0,1-.07,2-.13,3,0,.37-.05.74-.07,1.12a67.18,67.18,0,0,1,3,10.08,108.33,108.33,0,0,1,1.46,11.08s0,0,0,0a59.68,59.68,0,0,0-2.09-9.88c-.49-1.73-1-3.46-1.56-5.16-1.64-.78-3.21-1.74-4.79-2.62s-3.3-1.8-5-2.71c-3.28-1.8-6.57-3.63-10-5.23-.1,0,0-.19.09-.14,3.43,1.56,6.9,3,10.27,4.73,1.68.84,3.33,1.75,5,2.67,1.37.77,2.78,1.54,4.08,2.43-.38-1.14-.78-2.28-1.21-3.4A96.66,96.66,0,0,0,623.08,226.35Z" style="fill:#263238"></path><path d="M626.41,218c0-.11.17-.11.16,0-.14,2.09-.21,4.19-.43,6.27,0,.12-.19.12-.18,0C626,222.13,626.25,220.05,626.41,218Z" style="fill:#263238"></path><path d="M607.51,225c2.47,1,5,1.94,7.41,3,.07,0,0,.14,0,.11-2.5-.93-4.95-1.95-7.43-2.92C607.36,225.09,607.41,224.92,607.51,225Z" style="fill:#263238"></path><path d="M603.76,208a66.46,66.46,0,0,1,7,3.76.11.11,0,1,1-.11.18c-2.28-1.33-4.61-2.62-7-3.79C603.58,208.14,603.67,208,603.76,208Z" style="fill:#263238"></path><rect x="604.36" y="326.48" width="56.84" height="59.92" transform="translate(1265.56 712.88) rotate(180)" style="fill:#455a64"></rect><rect x="662.21" y="347.68" width="2.91" height="113.62" style="fill:#263238"></rect><rect x="600.75" y="347.68" width="2.91" height="113.62" style="fill:#263238"></rect><rect x="629.93" y="347.68" width="2.91" height="113.62" style="fill:#263238"></rect><rect x="602.21" y="382.56" width="61.45" height="8.3" transform="translate(1265.87 773.42) rotate(180)" style="fill:#263238"></rect></g><g id="freepik--speech-bubbles--inject-26"><path d="M421,125.06a28.51,28.51,0,0,0,47.66,18L483,145.2l-7.14-12.34a28.18,28.18,0,0,0,2-13.74A28.53,28.53,0,1,0,421,125.06Z" style="fill:#fff"></path><path d="M429.57,101.5a28.46,28.46,0,0,1,23.9-7.94,28.64,28.64,0,0,1,12.17,4.57,28.86,28.86,0,0,1,10.7,34.94l0-.49,7.1,12.36.52.92-1-.16-14.26-2.19.34-.11a28.73,28.73,0,0,1-14.11,7,25.08,25.08,0,0,1-3.95.41,27.7,27.7,0,0,1-4-.07,29,29,0,0,1-7.68-1.83,28.32,28.32,0,0,1-6.88-3.84,25.23,25.23,0,0,1-5.59-5.52,28.68,28.68,0,0,1,2.78-38Zm-2.7,37.95a30.3,30.3,0,0,0,2.6,3,31.62,31.62,0,0,0,3,2.52,26.58,26.58,0,0,0,6.88,3.7A27.74,27.74,0,0,0,447,150.3a28.2,28.2,0,0,0,3.9,0,25.1,25.1,0,0,0,3.87-.47,28,28,0,0,0,13.66-7l.14-.13.2,0,14.29,2-.51.75-7.19-12.31-.13-.24.1-.25a28.13,28.13,0,0,0-1.61-24.5,29.36,29.36,0,0,0-8.54-9.31,28.09,28.09,0,0,0-11.78-4.66,28.21,28.21,0,0,0-26.51,45.27Z" style="fill:#263238"></path><path d="M464.1,122.07a2.63,2.63,0,1,1-2.63-2.63A2.62,2.62,0,0,1,464.1,122.07Z" style="fill:#263238"></path><path d="M451.5,122.07a2.63,2.63,0,1,1-2.62-2.63A2.62,2.62,0,0,1,451.5,122.07Z" style="fill:#263238"></path><path d="M438.91,122.07a2.63,2.63,0,1,1-2.63-2.63A2.62,2.62,0,0,1,438.91,122.07Z" style="fill:#263238"></path><path d="M323.35,114.91a28.52,28.52,0,0,1-47.66,18l-14.27,2.1,7.14-12.34a28.53,28.53,0,1,1,54.79-7.8Z" style="fill:#fff"></path><path d="M323.35,114.91a28.69,28.69,0,0,1-5.76,14.46,25.82,25.82,0,0,1-5.59,5.52,28,28,0,0,1-6.88,3.83,28.61,28.61,0,0,1-7.68,1.84,27.7,27.7,0,0,1-4,.07,25.08,25.08,0,0,1-4-.41,28.73,28.73,0,0,1-14.11-7l.34.11-14.26,2.19-1,.15.52-.91,7.1-12.36,0,.49a28.81,28.81,0,1,1,55.3-8Zm0,0A28.22,28.22,0,0,0,291,84a28.09,28.09,0,0,0-11.78,4.66A29.36,29.36,0,0,0,270.68,98a28.2,28.2,0,0,0-3.62,12.07,28.72,28.72,0,0,0,2,12.43l.1.25L269,123l-7.19,12.32-.51-.75,14.29-2,.2,0,.14.13a28.12,28.12,0,0,0,13.66,7,26.39,26.39,0,0,0,3.87.47A27.36,27.36,0,0,0,305,138.47a26.32,26.32,0,0,0,6.88-3.71,25.63,25.63,0,0,0,5.61-5.46A28.68,28.68,0,0,0,323.35,114.91Z" style="fill:#263238"></path><path d="M280.29,111.92a2.63,2.63,0,1,0,2.62-2.63A2.62,2.62,0,0,0,280.29,111.92Z" style="fill:#263238"></path><path d="M292.88,111.92a2.63,2.63,0,1,0,2.62-2.63A2.62,2.62,0,0,0,292.88,111.92Z" style="fill:#263238"></path><path d="M305.47,111.92a2.63,2.63,0,1,0,2.63-2.63A2.62,2.62,0,0,0,305.47,111.92Z" style="fill:#263238"></path></g></svg>
